<?xml version="1.0" standalone="no"?>
<!DOCTYPE svg PUBLIC "-//W3C//DTD SVG 20010904//EN"
 "http://www.w3.org/TR/2001/REC-SVG-20010904/DTD/svg10.dtd">
<svg version="1.0" xmlns="http://www.w3.org/2000/svg"
 width="2832.000000pt" height="4240.000000pt" viewBox="0 0 2832.000000 4240.000000"
 preserveAspectRatio="xMidYMid meet">

<g transform="translate(0.000000,4240.000000) scale(0.100000,-0.100000)"
fill="#000000" stroke="none">
<path d="M11340 36631 c-69 -8 -97 -26 -105 -68 -6 -33 -18 -236 -17 -285 1
-16 -3 -28 -8 -28 -5 0 -7 -27 -4 -60 3 -33 1 -66 -3 -73 -10 -16 -13 -276 -3
-282 13 -8 2 -127 -12 -136 -9 -6 -9 -9 -1 -9 12 0 14 -37 4 -55 -8 -12 -7
-31 3 -73 11 -46 -12 -131 -41 -149 -27 -18 -113 -29 -113 -15 0 6 6 12 13 15
9 3 8 9 -4 23 -12 14 -19 48 -23 123 -4 57 -9 107 -11 111 -3 5 -1 10 4 12 6
2 6 26 2 58 -14 98 -21 19 -18 -205 l2 -210 33 3 c18 1 60 11 92 22 93 31 190
24 190 -15 0 -8 -15 -21 -34 -29 -24 -10 -35 -22 -39 -42 -4 -16 -14 -63 -23
-104 -9 -41 -18 -96 -19 -121 -2 -26 -8 -56 -14 -68 -7 -12 -13 -63 -15 -114
-1 -52 -6 -99 -10 -106 -4 -6 -3 -17 2 -24 5 -7 8 -32 5 -57 -2 -25 -4 -56 -3
-70 1 -14 1 -33 1 -42 0 -10 0 -36 0 -58 1 -46 1 -103 1 -180 -1 -30 0 -62 0
-70 0 -8 0 -44 -1 -80 0 -36 2 -128 6 -205 7 -146 7 -263 1 -651 -2 -185 0
-234 11 -247 9 -12 10 -17 2 -17 -8 0 -10 -8 -6 -19 3 -10 1 -30 -4 -44 -17
-44 -24 -174 -11 -182 9 -6 9 -9 0 -15 -10 -6 -10 -15 -1 -41 9 -25 8 -34 -1
-40 -9 -6 -9 -11 -1 -21 12 -14 11 -61 -2 -90 -4 -11 -3 -18 4 -18 7 0 12 -15
11 -32 0 -18 1 -42 1 -53 1 -11 -2 -85 -6 -165 -7 -161 -7 -151 -1 -202 2 -21
1 -40 -4 -43 -8 -5 -5 -155 4 -225 3 -19 1 -62 -3 -95 -5 -33 -5 -67 0 -76 5
-11 4 -20 -4 -26 -12 -9 -123 -31 -162 -32 -11 0 -67 -9 -125 -19 -58 -10
-150 -24 -205 -31 -55 -7 -194 -26 -310 -42 -248 -35 -527 -74 -678 -94 l-107
-15 -53 40 c-119 90 -258 145 -412 162 -85 9 -111 9 -175 -6 -185 -41 -217
-47 -245 -51 -16 -1 -33 -3 -37 -4 -5 -1 -8 -8 -8 -17 0 -8 -5 -12 -11 -9 -6
4 -8 13 -5 21 3 9 -1 14 -12 14 -20 0 -119 -33 -169 -56 -17 -7 -36 -14 -42
-14 -6 0 -15 -9 -21 -20 -6 -11 -18 -20 -28 -20 -20 0 -102 -76 -151 -140 -19
-25 -37 -47 -41 -50 -13 -9 -21 -50 -15 -70 7 -23 45 -27 45 -5 0 18 12 19 27
4 7 -7 22 -8 48 0 20 5 43 7 50 5 8 -3 37 -7 66 -7 42 -2 54 2 63 18 6 10 26
34 44 52 17 18 32 36 32 40 0 11 112 134 164 182 44 40 39 17 -6 -30 -71 -73
-154 -183 -162 -214 -7 -28 -7 -29 12 -12 31 28 48 14 18 -16 -22 -22 -91
-165 -116 -242 -13 -38 -26 -74 -30 -80 -4 -5 -24 -62 -44 -125 -36 -112 -54
-164 -81 -225 -38 -89 -46 -103 -60 -115 -8 -7 -15 -19 -15 -26 0 -17 -37 -19
-42 -2 -3 9 -6 9 -12 0 -4 -7 -2 -12 3 -12 6 0 11 -4 11 -9 0 -5 -12 -8 -27
-6 -16 1 -31 -2 -34 -7 -10 -15 -31 1 -25 18 8 20 -22 30 -46 15 -11 -7 -34
-10 -51 -7 -26 5 -28 4 -12 -4 15 -7 7 -8 -30 -4 -27 4 -57 7 -65 7 -8 0 -20
4 -26 8 -8 7 -13 -10 -17 -53 -3 -35 -15 -139 -26 -233 -22 -179 -27 -360 -12
-370 5 -3 10 -71 10 -151 1 -80 5 -165 10 -187 5 -23 12 -81 16 -129 4 -49 10
-88 15 -88 8 0 28 -43 34 -77 10 -52 22 -61 68 -51 24 6 56 16 71 24 36 18 45
18 63 -1 9 -8 23 -15 32 -14 11 0 12 2 5 6 -7 2 -13 9 -13 14 0 14 28 11 33
-3 4 -10 7 -10 15 0 10 15 82 7 82 -9 0 -5 5 -9 11 -9 14 0 68 -60 75 -85 19
-60 211 -543 223 -560 4 -5 18 -35 31 -65 12 -30 47 -96 76 -147 30 -50 54
-98 54 -107 0 -9 4 -16 8 -16 8 0 16 -14 40 -62 2 -5 -8 -8 -22 -8 -24 0 -26
-3 -20 -27 11 -43 44 -95 83 -131 20 -18 55 -51 78 -72 24 -22 47 -40 52 -40
5 0 11 -7 15 -15 3 -8 22 -23 43 -33 21 -9 41 -21 44 -25 3 -5 9 -9 12 -8 4 0
22 -6 41 -14 45 -19 66 -19 66 0 0 18 -16 20 -23 3 -3 -7 -6 -3 -6 10 -1 13 5
22 14 22 8 0 15 -4 15 -10 0 -5 9 -10 19 -10 12 0 21 -10 26 -27 4 -16 10 -22
12 -15 6 17 30 15 37 -3 6 -16 36 -21 36 -6 0 4 18 3 39 -2 22 -6 38 -14 36
-17 -2 -4 20 -5 49 -3 32 2 57 0 61 -7 3 -6 11 -7 17 -4 6 4 28 11 47 14 51
11 165 53 173 65 4 5 8 7 8 3 0 -9 55 28 101 66 17 15 30 29 28 31 -3 2 -26
12 -53 22 -27 10 -51 23 -53 29 -5 16 74 22 681 45 409 15 551 18 560 9 8 -8
11 -139 12 -453 4 -1064 16 -8687 15 -9112 0 -287 3 -476 9 -485 7 -12 11 -8
16 17 4 19 11 30 17 26 7 -4 8 0 4 12 -4 9 -3 23 3 30 8 10 6 15 -10 20 -17 5
-19 10 -9 21 9 11 8 18 -2 30 -12 15 -11 16 11 10 14 -4 20 -4 13 1 -15 10
-13 144 2 155 6 4 2 8 -7 8 -10 0 -18 4 -18 9 0 5 9 7 19 4 15 -4 19 0 17 21
0 14 -7 26 -13 26 -14 0 -17 22 -5 34 11 12 10 60 -2 68 -7 5 -7 8 2 8 17 0
15 29 -3 36 -9 4 -14 17 -14 33 2 23 2 24 6 3 3 -17 7 -19 16 -10 16 17 14 97
-2 108 -10 6 -9 12 5 29 10 11 24 21 31 21 7 0 12 10 12 23 -1 16 -2 18 -6 5
-6 -26 -17 -22 -29 10 -12 31 -12 101 0 120 4 7 5 16 2 19 -3 3 -1 12 5 19 9
10 7 15 -5 20 -23 9 -20 24 4 24 16 0 19 4 12 18 -5 9 -12 37 -15 62 -3 25 -3
37 0 28 2 -10 9 -18 14 -18 12 0 12 107 -1 115 -17 10 -12 45 7 45 15 0 14 2
-3 15 -11 8 -14 15 -6 15 17 0 15 20 -3 20 -8 0 -15 5 -15 10 0 6 10 10 22 10
20 0 20 1 4 19 -17 18 -17 20 0 29 23 13 11 44 -13 35 -13 -5 -12 -1 6 18 19
21 22 32 18 84 -2 33 -8 70 -12 83 -6 17 -4 22 9 22 26 0 20 40 -6 41 -21 1
-22 1 -3 7 16 6 20 16 20 54 0 25 -3 49 -7 53 -3 4 -2 20 4 36 9 25 7 32 -8
44 -16 12 -17 16 -5 24 11 7 14 26 13 68 -2 32 1 53 5 46 5 -7 8 7 8 33 0 28
-4 44 -12 44 -18 0 -16 31 2 57 10 14 12 24 5 28 -15 9 -12 25 4 25 11 0 14
12 14 43 -1 23 -3 34 -6 25 -7 -34 -18 -18 -18 27 -1 24 3 42 8 39 4 -3 8 2 8
11 0 9 -4 13 -10 10 -6 -4 -10 5 -10 20 0 14 4 24 9 20 6 -3 7 9 4 31 -4 27
-3 35 5 30 8 -5 12 3 12 23 0 16 -5 33 -10 36 -6 4 -8 15 -5 26 4 10 2 19 -3
19 -6 0 -10 16 -9 35 1 28 5 35 21 36 18 1 18 2 3 6 -12 3 -16 10 -12 24 4 12
1 21 -9 25 -14 5 -14 7 0 21 13 13 13 17 2 24 -10 7 -9 9 5 9 11 0 17 8 17 21
0 15 -5 19 -15 15 -8 -3 -15 -1 -15 3 0 5 7 11 15 15 11 4 14 13 9 31 -5 19
-3 25 7 23 8 -2 14 7 15 21 1 24 1 24 -13 5 -14 -17 -15 -16 -9 21 5 27 4 35
-3 26 -6 -10 -9 27 -8 106 1 71 6 119 11 115 5 -3 6 3 3 13 -4 9 -2 25 5 33
11 13 10 15 -6 9 -16 -6 -17 -4 -11 20 13 51 15 113 4 113 -5 0 -7 5 -3 11 11
19 13 129 1 122 -6 -4 -7 8 -3 33 3 22 6 54 6 71 -1 27 3 32 17 27 14 -4 15
-4 4 4 -7 5 -15 31 -17 58 -2 33 -1 41 4 24 10 -31 22 -14 18 26 -2 19 -12 33
-27 41 l-24 13 23 0 c21 0 22 2 9 28 -18 35 -28 100 -17 107 5 3 8 26 6 50 -2
33 0 45 10 45 18 0 18 5 -3 37 -10 15 -13 24 -6 20 16 -10 27 11 14 27 -7 9
-7 16 1 24 9 9 9 15 0 24 -17 17 -15 28 6 29 12 0 10 3 -8 10 -19 8 -21 12
-11 19 9 5 11 14 6 26 -13 30 -16 94 -4 94 6 0 8 -9 4 -22 -6 -19 -5 -21 6
-10 11 10 11 18 -3 45 -24 48 -28 66 -17 73 6 3 8 17 5 30 -4 14 -2 33 4 44 8
15 8 20 -1 20 -7 0 -9 10 -5 30 3 17 2 30 -3 30 -5 0 -11 11 -13 24 -4 19 -1
22 14 18 12 -3 18 1 18 12 0 9 -4 16 -10 16 -5 0 -10 5 -10 11 0 5 5 7 10 4 6
-3 10 -1 10 4 0 6 -7 11 -15 11 -13 0 -14 4 -5 20 6 11 8 31 4 44 -8 35 4 52
22 29 7 -10 14 -13 14 -6 0 6 -10 19 -21 27 -19 13 -21 21 -15 60 7 48 19 59
30 29 6 -15 8 -15 16 -3 15 23 12 28 -17 42 -26 12 -28 18 -30 81 -2 65 -1 68
27 82 16 8 36 15 45 15 17 0 21 -25 4 -35 -7 -5 -5 -13 5 -24 9 -10 13 -20 10
-23 -10 -11 -13 -198 -3 -198 6 0 7 -9 4 -20 -4 -12 -1 -28 6 -36 11 -13 9
-14 -13 -9 -37 9 -44 -27 -12 -62 14 -15 21 -29 16 -32 -10 -6 -11 -81 -2 -81
3 0 7 -13 8 -30 1 -17 -3 -30 -9 -30 -6 0 -8 -7 -5 -15 3 -8 9 -22 12 -30 4
-10 2 -15 -7 -13 -9 2 -12 -7 -10 -30 1 -18 -3 -40 -10 -48 -6 -8 -9 -18 -5
-21 4 -4 12 -1 17 7 8 12 10 9 6 -12 -2 -15 0 -29 4 -30 5 -2 6 -13 3 -25 -4
-15 -11 -20 -22 -15 -15 5 -15 3 1 -12 18 -18 16 -49 -4 -71 -14 -15 -10 -28
6 -21 18 6 21 -29 4 -39 -7 -5 -4 -14 8 -27 17 -19 17 -20 0 -29 -20 -11 -23
-45 -5 -51 18 -6 18 -78 1 -78 -12 0 -11 -3 1 -16 18 -18 20 -38 6 -64 -6 -12
-7 -21 0 -25 5 -3 6 -15 1 -28 -5 -12 -5 -32 0 -44 9 -26 1 -63 -15 -63 -8 0
-8 -2 0 -8 14 -9 30 -57 17 -49 -11 7 -12 -88 -1 -99 4 -4 0 -13 -10 -20 -12
-10 -13 -13 -3 -14 7 0 11 -6 8 -14 -3 -7 2 -24 10 -36 13 -19 13 -24 2 -31
-12 -8 -12 -11 1 -19 13 -8 13 -11 1 -19 -9 -6 -11 -18 -7 -36 5 -19 3 -31 -6
-37 -10 -7 -10 -11 -1 -14 7 -3 10 -11 7 -18 -10 -25 -11 -131 -1 -143 5 -8 6
-29 2 -50 -15 -74 -13 -93 5 -50 7 17 8 13 4 -17 -5 -26 -3 -41 7 -46 11 -7
11 -13 0 -34 -9 -16 -11 -30 -5 -38 11 -15 11 -179 0 -197 -4 -6 -2 -18 4 -26
9 -11 9 -19 2 -28 -7 -8 -8 -26 -2 -50 8 -36 6 -41 -15 -37 -5 1 -4 -4 3 -11
15 -16 16 -46 1 -51 -9 -3 -9 -9 0 -25 6 -12 11 -37 11 -55 0 -18 4 -47 9 -64
6 -20 4 -43 -4 -66 -7 -21 -9 -55 -6 -80 7 -49 6 -106 -3 -128 -3 -8 -4 -47
-3 -87 1 -39 -1 -69 -5 -67 -5 3 -8 -2 -8 -10 0 -9 5 -16 11 -16 7 0 9 -13 5
-37 -4 -24 -1 -48 8 -65 13 -24 12 -28 -5 -46 -14 -16 -15 -21 -5 -25 19 -8
28 -47 10 -47 -8 0 -14 -4 -14 -10 0 -5 5 -10 11 -10 8 0 9 -13 5 -39 -3 -24
-2 -42 4 -46 6 -4 9 -28 6 -58 -2 -29 0 -58 6 -64 7 -9 7 -13 -2 -13 -10 0
-11 -22 -5 -97 10 -131 12 -213 4 -213 -8 0 -4 -58 4 -66 3 -3 3 -13 0 -22 -4
-10 -2 -13 5 -8 16 9 24 -10 9 -22 -9 -8 -12 -47 -11 -146 1 -75 -2 -136 -7
-136 -4 0 -2 -21 6 -46 7 -25 11 -52 9 -59 -3 -7 -1 -23 6 -34 8 -16 8 -21 -2
-21 -14 0 -19 -63 -5 -76 12 -12 8 -24 -9 -24 -12 0 -14 -5 -9 -17 5 -10 7
-42 6 -71 -1 -31 3 -60 10 -68 10 -13 10 -17 -1 -24 -11 -7 -11 -11 -1 -24 7
-8 10 -20 6 -27 -8 -12 -13 -168 -6 -175 2 -2 10 1 18 7 10 9 13 7 13 -9 0
-12 -6 -19 -16 -18 -9 0 -19 -5 -21 -11 -3 -8 4 -13 15 -13 28 0 33 -21 30
-140 -1 -73 2 -105 10 -108 7 -2 9 -8 6 -13 -3 -6 -11 -5 -20 2 -11 9 -14 8
-14 -4 0 -9 5 -19 10 -22 6 -3 10 -15 10 -25 0 -14 -5 -18 -17 -14 -14 4 -13
2 2 -7 28 -17 28 -16 19 -31 -11 -16 -12 -218 -2 -218 5 0 8 -7 8 -15 0 -8 -4
-15 -10 -15 -5 0 -10 -7 -10 -15 0 -8 3 -15 8 -15 4 0 7 -38 7 -85 0 -47 -4
-85 -8 -85 -5 0 -5 -6 0 -12 4 -7 8 -71 9 -143 3 -289 4 -316 13 -310 5 3 12
1 16 -5 3 -5 0 -10 -8 -10 -19 0 -20 -59 -1 -67 13 -5 13 -8 -1 -23 -11 -12
-14 -26 -9 -44 4 -16 2 -26 -5 -26 -6 0 -8 -6 -5 -14 3 -8 12 -12 20 -9 9 3
14 -1 14 -11 0 -10 -7 -16 -16 -14 -12 2 -17 -5 -18 -25 -1 -16 2 -31 6 -33 4
-3 8 -18 8 -35 0 -16 5 -29 10 -29 18 0 11 -20 -7 -20 -17 -1 -17 -1 0 -14 19
-15 22 -37 6 -53 -6 -6 -8 -17 -3 -24 4 -8 9 -32 11 -54 2 -22 5 -48 7 -57 3
-12 -2 -18 -12 -18 -15 -1 -14 -3 2 -15 19 -15 19 -15 1 -29 -18 -13 -18 -14
0 -23 12 -7 14 -12 6 -18 -9 -5 -9 -10 0 -21 13 -16 4 -48 -11 -39 -5 3 -10 2
-10 -3 0 -6 7 -12 15 -16 17 -6 21 -36 5 -36 -7 0 -8 -6 -2 -16 5 -9 6 -32 2
-51 -5 -19 -5 -46 -1 -61 3 -15 6 -67 6 -117 -1 -54 3 -93 9 -97 8 -5 7 -8 -1
-8 -7 0 -10 -6 -7 -14 3 -7 -2 -16 -11 -20 -14 -5 -14 -8 0 -30 11 -17 14 -35
9 -60 -3 -20 -2 -36 2 -36 5 0 10 -32 10 -70 1 -54 -2 -70 -12 -70 -18 0 -18
-16 3 -75 14 -43 14 -50 1 -58 -11 -8 -13 -21 -7 -65 5 -32 4 -63 -2 -73 -12
-23 -12 -76 1 -84 17 -10 11 -53 -7 -58 -15 -4 -15 -5 -2 -6 14 -1 15 -7 7
-47 -11 -49 -3 -114 12 -114 6 0 10 -5 10 -11 0 -5 -4 -7 -10 -4 -5 3 -11 0
-11 -7 -5 -43 -8 -67 -14 -100 -5 -27 -4 -38 4 -38 9 0 9 -5 1 -20 -13 -24 -5
-60 13 -60 7 0 4 -7 -7 -15 -10 -8 -16 -21 -13 -29 4 -9 2 -18 -3 -21 -6 -4
-7 -13 -1 -24 6 -10 6 -52 2 -102 -7 -80 -5 -180 4 -206 2 -7 0 -13 -6 -13 -7
0 -8 -7 -4 -17 4 -10 7 -34 5 -53 -1 -19 -2 -41 -1 -47 2 -20 2 -22 -5 -318
-5 -262 -11 -314 -34 -300 -5 3 -9 -63 -9 -147 -1 -91 -6 -156 -12 -164 -6 -7
-8 -18 -4 -25 4 -6 9 -27 11 -46 3 -30 0 -34 -18 -31 -20 3 -21 9 -22 140 0
76 -3 138 -6 138 -3 0 -6 47 -7 104 -1 58 -5 112 -10 121 -5 9 -6 39 -3 67 4
28 3 72 -2 97 -5 25 -11 57 -13 71 -2 14 -6 36 -11 49 -4 14 -3 22 2 19 5 -3
10 12 11 33 0 21 -3 39 -8 39 -5 0 -9 13 -9 28 0 15 -6 34 -12 40 -10 10 -10
14 0 21 11 6 11 17 2 49 -6 23 -15 44 -20 47 -17 10 -11 25 7 18 17 -7 17 -8
-3 57 -4 12 -2 20 5 20 6 0 11 7 11 15 0 18 -16 20 -24 3 -3 -7 -4 10 -2 37 2
28 1 44 -1 38 -9 -26 -22 -12 -17 17 5 23 2 31 -12 37 -10 4 -19 2 -22 -5 -2
-7 -10 -12 -18 -12 -9 0 -14 -10 -14 -27 l1 -28 13 24 c12 21 14 22 20 5 6
-16 -7 -33 -28 -34 -4 0 -6 -16 -4 -35 2 -19 1 -35 -3 -35 -8 0 -11 -36 -28
-270 -15 -218 -14 -843 2 -904 l13 -49 16 25 c16 25 19 25 115 22 54 -2 123
-6 154 -9 64 -6 255 -7 284 -1 11 3 50 5 86 5 57 1 69 5 97 29 l31 28 -19 40
c-17 36 -19 74 -25 464 -3 234 -10 461 -15 505 -4 44 -6 106 -4 138 3 36 0 57
-7 57 -5 0 -8 4 -4 9 6 10 7 122 3 358 -2 83 -6 146 -10 140 -5 -7 -8 -3 -8
11 0 13 4 21 9 17 11 -6 8 76 -3 94 -4 6 -3 11 2 11 6 0 10 124 11 321 1 255
-1 319 -11 313 -10 -6 -11 -4 0 7 15 16 17 214 2 204 -5 -3 -10 -1 -10 4 0 6
4 11 10 11 6 0 9 50 7 129 -2 109 -4 128 -17 124 -10 -3 -10 -1 2 6 13 9 17
27 17 86 0 51 -4 75 -12 75 -9 0 -8 3 1 8 13 9 13 142 11 8587 0 1832 0 3349
0 3373 1 40 3 43 34 49 29 6 30 7 9 12 -41 10 -28 26 23 28 28 1 69 5 91 8
l42 6 -11 40 c-7 28 -13 37 -20 30 -8 -8 -7 -15 1 -23 7 -7 12 -18 12 -25 0
-23 -25 -14 -37 14 -11 22 -10 28 4 39 15 10 7 13 -52 19 -39 3 -75 8 -82 10
-7 3 -13 48 -17 137 -7 156 -7 133 -1 368 2 121 0 195 -7 213 -8 21 -8 31 0
36 7 4 11 247 11 836 0 457 0 1020 1 1252 l0 422 47 21 c26 11 62 32 81 47 33
25 34 27 28 77 -11 76 -9 98 6 108 10 7 8 12 -10 27 -15 14 -18 21 -10 25 10
5 10 7 1 12 -7 3 -9 12 -7 19 6 14 -3 18 -80 30 -38 6 -39 6 -33 -22 4 -24 4
-25 -8 -10 -7 9 -20 17 -29 17 -9 0 -16 7 -16 15 0 8 8 15 18 15 16 0 17 122
15 2441 -1 1342 -4 2452 -7 2465 -8 30 -75 51 -194 59 -48 3 -100 7 -117 9
-16 2 -55 0 -85 -3z m360 -4981 c0 -5 -4 -10 -9 -10 -6 0 -13 5 -16 10 -3 6 1
10 9 10 9 0 16 -4 16 -10z m10 -29 c0 -6 -4 -13 -10 -16 -5 -3 -10 1 -10 9 0
9 5 16 10 16 6 0 10 -4 10 -9z m25 -11 c3 -5 1 -10 -4 -10 -6 0 -11 5 -11 10
0 6 2 10 4 10 3 0 8 -4 11 -10z m41 -37 c7 -7 16 -13 20 -12 5 1 16 -1 24 -4
8 -3 24 -8 35 -10 32 -7 -94 -6 -155 2 l-55 6 45 10 c41 8 42 9 16 13 -21 3
-26 6 -16 12 19 12 72 1 86 -17z m-956 -120 c14 -25 14 -32 1 -69 -14 -38 -13
-44 3 -68 9 -15 29 -32 44 -38 15 -6 41 -17 59 -24 17 -8 36 -14 42 -14 8 0
11 -131 12 -452 2 -917 -2 -1433 -12 -1443 -7 -6 -21 -3 -42 9 -71 42 -364
184 -437 211 -163 60 -199 80 -181 98 8 8 -11 190 -34 322 -72 398 -194 740
-384 1069 -28 49 -48 92 -46 97 3 4 30 13 59 19 30 6 58 16 63 23 5 7 22 44
37 82 15 39 31 77 35 85 7 13 132 39 255 53 45 5 231 30 371 51 135 20 138 20
155 -11z m-1475 -43 c3 -5 -1 -10 -10 -10 -9 0 -13 5 -10 10 3 6 8 10 10 10 2
0 7 -4 10 -10z m-139 -49 c-10 -11 -15 -25 -11 -30 3 -6 -5 -16 -19 -22 -20
-10 -24 -17 -20 -36 4 -12 2 -23 -2 -23 -5 0 -23 -14 -41 -30 -47 -44 -47 -44
-27 45 5 19 4 19 -9 3 -15 -19 -27 -23 -27 -10 0 11 82 98 105 111 11 6 31 11
44 11 23 0 23 -1 7 -19z m1904 -461 c0 -5 5 -9 12 -7 7 1 13 -12 15 -30 2 -24
-1 -33 -12 -33 -8 0 -15 -7 -15 -15 0 -8 6 -15 13 -15 18 0 50 -72 35 -81 -6
-4 -7 -12 -3 -19 14 -23 11 -199 -3 -205 -10 -4 -10 -10 1 -32 9 -19 13 -63
12 -143 -1 -72 2 -118 9 -122 8 -6 8 -10 0 -15 -6 -5 -12 -21 -13 -38 0 -16
-1 -54 -2 -83 -1 -31 3 -57 9 -61 7 -4 8 -12 2 -21 -5 -8 -4 -22 2 -33 12 -23
-4 -67 -24 -67 -6 0 -2 -9 10 -20 24 -23 26 -32 13 -58 -35 -69 -35 -71 -14
-101 13 -16 18 -33 13 -41 -6 -9 -10 -8 -19 6 -9 16 -11 10 -9 -28 2 -26 8
-50 14 -52 7 -3 11 -24 10 -53 -2 -26 1 -53 5 -58 12 -17 -2 -95 -17 -95 -18
0 -18 -18 1 -36 17 -17 9 -45 -11 -37 -17 6 -18 -11 -1 -38 10 -17 9 -22 -5
-33 -19 -14 -24 -36 -8 -36 5 0 7 -6 4 -14 -3 -8 0 -25 7 -37 8 -16 8 -24 1
-27 -7 -2 -7 -14 0 -38 5 -20 7 -38 4 -42 -3 -3 -1 -11 5 -19 6 -7 8 -13 4
-13 -4 0 -2 -6 4 -14 10 -11 8 -17 -6 -26 -13 -8 -14 -13 -5 -16 17 -8 15 -31
-3 -38 -8 -3 -15 -10 -15 -16 0 -5 7 -10 15 -10 8 0 15 -9 15 -20 0 -11 -5
-20 -11 -20 -16 0 10 -30 36 -40 17 -7 15 -9 -12 -9 -33 -1 -43 -14 -22 -27 8
-4 6 -10 -7 -17 -12 -7 -19 -7 -21 0 -2 6 -12 9 -23 6 -17 -5 -19 2 -19 81 1
47 5 86 10 86 10 0 -10 41 -26 52 -6 5 -5 8 3 8 10 0 13 18 12 68 -1 37 -1 69
0 72 8 27 6 46 -7 66 -12 20 -13 25 -2 28 43 14 44 14 27 15 -9 1 -17 9 -17
19 0 9 -3 64 -6 122 -3 58 -7 137 -9 175 -2 39 -7 77 -11 86 -3 10 -2 20 4 24
7 4 8 13 2 23 -5 9 -11 51 -13 94 -4 61 -2 75 9 71 18 -7 16 17 -4 39 -15 17
-15 19 2 32 11 8 14 15 7 20 -7 4 -7 17 0 42 7 28 6 39 -5 52 -18 21 -19 92
-1 92 10 0 10 7 -1 33 -10 25 -11 37 -3 45 9 9 8 18 0 37 -14 30 -16 65 -4 65
12 0 12 83 0 98 -8 10 -9 15 -1 20 11 7 10 43 -2 81 -5 15 -2 21 9 21 19 0 20
11 4 29 -9 9 -9 15 -2 17 6 3 9 31 8 69 -2 54 1 65 15 65 13 0 14 2 2 9 -12 8
-13 14 -3 36 7 14 12 43 12 64 0 28 5 41 18 46 16 6 16 7 0 16 -19 11 -24 29
-8 29 6 0 10 -4 10 -10z m-1566 -886 c17 -44 -8 -157 -47 -216 -12 -18 -28
-45 -36 -60 -13 -25 -46 -46 -57 -36 -2 3 2 22 10 44 8 21 24 71 37 109 30 94
67 175 78 175 5 0 12 -7 15 -16z m246 -66 c0 -14 -19 1 -31 25 -12 22 -12 22
10 3 11 -11 21 -23 21 -28z m-75 20 c30 -14 33 -28 4 -28 -25 0 -59 17 -59 30
0 13 24 13 55 -2z m291 -85 c-10 -10 -19 5 -10 18 6 11 8 11 12 0 2 -7 1 -15
-2 -18z m76 15 c21 -17 58 -87 58 -110 0 -10 5 -18 10 -18 6 0 10 -16 10 -37
0 -20 -3 -33 -6 -30 -10 10 -43 109 -44 129 0 9 -17 30 -37 47 -36 29 -27 46
9 19z m-155 -16 l26 23 -6 -46 c-3 -25 -16 -67 -28 -95 -19 -40 -23 -45 -27
-26 -5 29 -16 28 -30 -4 -15 -31 -27 -25 -37 18 l-7 33 -14 -32 c-14 -34 -34
-44 -34 -19 0 27 -20 27 -32 1 l-12 -26 -18 23 -18 23 -6 -22 c-9 -32 -19 -29
-31 10 l-10 32 -15 -35 -16 -35 -7 32 c-4 18 -11 30 -16 27 -5 -3 -9 2 -9 10
0 9 4 16 10 16 5 0 16 14 25 30 17 33 35 40 35 13 0 -13 7 -10 30 12 29 28 30
28 30 7 0 -27 16 -28 30 -2 14 26 34 26 27 0 -6 -23 10 -17 31 12 19 27 35 22
29 -9 -5 -25 -3 -25 32 12 34 37 36 38 39 16 l4 -23 25 24z m-399 -104 c-2 -6
-10 -14 -16 -16 -7 -2 -10 2 -6 12 7 18 28 22 22 4z m747 -118 c4 -6 -6 -10
-22 -9 -25 0 -26 1 -8 9 11 5 21 9 22 9 1 1 5 -3 8 -9z m-817 -27 c38 -57 92
-211 92 -267 0 -17 5 -26 16 -26 8 0 37 -18 64 -41 49 -42 130 -66 130 -40 0
7 4 10 9 7 4 -3 19 6 32 20 20 21 21 27 9 35 -8 5 -24 9 -35 8 -65 -4 -105 3
-129 22 -32 26 -29 33 9 19 23 -9 26 -8 21 6 -4 12 -2 15 9 10 8 -3 22 -9 30
-12 8 -3 15 -2 15 4 0 6 34 8 85 7 80 -3 85 -2 80 16 -7 22 5 25 24 7 6 -7 33
-13 59 -13 40 0 47 -3 47 -20 0 -16 -8 -21 -35 -23 -19 -1 -42 -5 -50 -9 -8
-3 -24 -7 -35 -8 -11 0 -29 -2 -41 -3 -14 -1 -25 -15 -37 -49 -10 -27 -24 -57
-32 -67 -14 -19 -16 -19 -87 3 -40 13 -86 26 -103 30 -16 4 -35 17 -41 29 -9
19 -13 20 -17 8 -17 -43 -35 2 -86 209 -17 66 -33 130 -37 143 -9 31 11 28 34
-5z m802 -23 c0 -5 -4 -10 -9 -10 -6 0 -13 5 -16 10 -3 6 1 10 9 10 9 0 16 -4
16 -10z m146 -50 c32 -16 90 -42 129 -56 122 -46 331 -146 387 -185 14 -11 31
-19 37 -19 6 0 11 -13 11 -30 0 -16 -2 -30 -5 -30 -6 0 -75 39 -105 60 -38 26
-270 140 -286 140 -8 0 -14 3 -14 8 0 8 -68 42 -92 46 -10 1 -26 12 -36 24
-12 13 -26 20 -35 16 -9 -3 -24 0 -34 6 -17 11 -17 11 2 6 20 -6 20 -6 1 9
-11 8 -23 15 -28 15 -4 0 -8 5 -8 10 0 16 15 12 76 -20z m-230 -13 c4 -4 20
-7 36 -7 15 0 28 -4 28 -10 0 -5 14 -10 31 -10 30 0 59 -19 59 -39 0 -6 8 -11
17 -11 9 0 13 -3 9 -7 -10 -11 -36 -12 -36 -2 0 5 -13 9 -30 9 -16 0 -30 5
-30 10 0 6 -8 10 -17 10 -54 0 -180 60 -168 80 5 8 90 -11 101 -23z m-302 -29
c5 -21 3 -28 -8 -28 -16 0 -26 21 -26 58 0 23 2 24 14 12 7 -8 16 -27 20 -42z
m56 11 c6 -23 10 -43 7 -45 -2 -2 -16 9 -32 26 -23 24 -26 32 -15 45 20 24 28
18 40 -26z m-291 -11 c13 -38 1 -56 -22 -30 -10 11 -14 26 -10 40 8 31 19 27
32 -10z m51 20 c0 -7 3 -24 6 -38 5 -24 5 -24 -10 -6 -18 22 -21 56 -6 56 6 0
10 -6 10 -12z m70 -36 c0 -26 -25 -5 -28 24 -2 28 -2 28 13 10 8 -11 15 -26
15 -34z m50 7 c0 -10 -4 -19 -10 -19 -5 0 -10 12 -10 26 0 14 4 23 10 19 6 -3
10 -15 10 -26z m-221 -34 c0 -5 -6 -1 -14 9 -8 11 -15 24 -15 30 0 5 7 1 15
-10 8 -10 14 -23 14 -29z m801 -15 c0 -5 -4 -10 -10 -10 -5 0 -10 5 -10 10 0
6 5 10 10 10 6 0 10 -4 10 -10z m-52 -56 c13 -2 30 -8 37 -14 8 -7 19 -9 25
-5 6 4 16 2 23 -3 7 -5 29 -12 50 -15 28 -4 37 -2 37 9 0 9 11 14 30 14 17 0
30 -5 30 -10 0 -6 10 -15 23 -20 20 -8 20 -9 3 -9 -15 -1 -17 -4 -9 -12 8 -8
17 -8 29 -1 13 8 26 7 44 -3 14 -8 50 -26 80 -40 91 -43 165 -85 168 -95 2 -6
9 -10 15 -10 6 0 21 -10 34 -22 l23 -21 0 -348 c0 -293 2 -350 15 -362 13 -13
13 -17 -1 -28 -14 -12 -16 -38 -11 -206 4 -120 2 -195 -4 -198 -11 -7 -685
-34 -851 -35 -116 0 -121 3 -90 48 48 71 156 334 186 452 33 126 64 286 75
375 27 228 31 278 31 378 0 60 4 109 10 112 18 11 10 23 -20 30 -16 4 -32 10
-35 15 -8 14 6 40 18 33 6 -4 22 -8 35 -9z m-2135 -223 c9 -10 5 -12 -20 -8
-21 3 -36 0 -45 -10 -9 -11 -24 -13 -60 -9 -26 4 -56 2 -67 -3 -25 -14 -32 -4
-18 26 11 25 13 25 105 21 54 -3 98 -10 105 -17z m32 -10 c3 -5 1 -12 -5 -16
-5 -3 -10 1 -10 9 0 18 6 21 15 7z m2905 -441 c21 -21 26 -45 11 -55 -15 -9
-9 -114 7 -120 12 -4 12 -8 1 -21 -10 -13 -10 -17 2 -25 12 -8 11 -11 -3 -19
-9 -6 -15 -17 -12 -25 4 -10 0 -15 -12 -16 -16 0 -15 -2 4 -9 12 -5 22 -14 22
-19 0 -5 -10 -11 -22 -13 -30 -4 -25 -32 10 -64 23 -20 25 -25 12 -34 -13 -9
-13 -11 -1 -19 12 -8 12 -12 2 -24 -8 -10 -8 -17 -2 -21 15 -10 2 -34 -21 -38
-20 -3 -20 -3 1 -29 15 -20 17 -29 8 -38 -9 -9 -9 -16 1 -31 16 -26 15 -30 -3
-30 -8 0 -15 -4 -15 -10 0 -5 5 -10 11 -10 6 0 9 -7 5 -15 -4 -11 1 -15 19
-15 13 0 27 -4 30 -10 4 -6 -24 -10 -77 -10 -73 1 -81 2 -65 14 17 13 21 48
16 156 -1 24 7 70 13 76 3 3 2 21 -4 40 -6 25 -6 39 2 49 6 7 7 15 3 18 -5 3
-7 45 -6 94 2 48 3 97 2 108 -3 59 1 165 8 178 8 13 33 7 53 -13z m-1854 -807
c-3 -4 -1 -12 5 -20 9 -9 8 -13 0 -13 -19 0 -12 -17 10 -23 12 -3 18 -10 15
-16 -17 -27 -50 15 -62 77 -4 21 -2 22 17 12 11 -7 18 -14 15 -17z m1847 -734
c-13 -44 -13 -51 1 -65 23 -22 20 -31 -9 -31 -14 0 -25 4 -25 9 0 5 -9 7 -19
3 -17 -5 -19 -3 -12 22 5 18 14 27 24 25 22 -4 30 14 17 37 -8 16 -7 22 7 29
14 9 14 11 -5 21 -12 7 -22 18 -22 27 0 11 6 10 29 -7 l28 -21 -14 -49z m-43
37 c0 -23 -11 -46 -20 -41 -10 6 0 55 11 55 5 0 9 -6 9 -14z m10 -147 c0 -6 6
-9 14 -6 17 7 30 -20 13 -27 -7 -2 -2 -5 11 -5 15 -1 22 -7 22 -20 0 -11 -6
-18 -16 -17 -9 0 -19 -5 -22 -13 -3 -10 1 -12 17 -8 22 5 30 -8 9 -16 -8 -3
-6 -6 5 -6 21 -1 22 -29 2 -58 -13 -18 -13 -22 1 -34 12 -10 12 -14 2 -20 -11
-7 -11 -12 0 -29 7 -12 8 -20 2 -20 -5 0 -10 -18 -10 -40 0 -22 4 -40 8 -40 5
0 9 -13 9 -30 0 -26 -3 -29 -24 -24 -17 5 -23 2 -23 -9 0 -9 4 -18 9 -21 15
-10 22 -68 9 -83 -10 -12 -9 -17 5 -24 19 -11 23 -39 6 -39 -8 0 -8 -4 -1 -12
15 -20 7 -61 -13 -68 -17 -6 -17 -8 5 -23 l23 -16 -22 -27 c-17 -21 -19 -29
-9 -35 10 -6 10 -11 1 -20 -6 -6 -9 -18 -6 -26 3 -8 0 -19 -8 -24 -11 -6 -8
-9 9 -9 26 0 29 -12 7 -30 -13 -11 -13 -14 0 -24 19 -14 22 -74 6 -105 -11
-20 -10 -29 6 -60 10 -20 22 -39 28 -43 5 -4 6 -10 2 -14 -4 -4 -13 -2 -19 4
-21 21 -27 13 -12 -15 13 -26 12 -28 -5 -31 -14 -2 -17 -9 -13 -24 3 -14 1
-19 -6 -14 -7 4 -12 2 -12 -4 0 -7 9 -14 20 -17 22 -6 25 -14 11 -28 -5 -6
-11 -21 -13 -35 -2 -16 -10 -26 -23 -28 -15 -2 -16 -1 -7 6 11 7 10 11 -3 16
-12 4 -15 13 -12 27 3 12 3 27 0 35 -6 16 -33 19 -33 4 0 -5 5 -10 10 -10 13
0 13 -67 1 -75 -6 -3 -15 4 -21 16 -7 12 -8 19 -2 15 6 -3 8 20 6 64 -4 72 2
83 36 59 12 -8 10 -9 -7 -4 -27 7 -29 0 -7 -22 13 -14 17 -14 25 -2 5 8 9 17
9 22 0 4 7 7 15 7 18 0 18 5 5 30 -12 23 -2 59 11 38 6 -9 9 -9 9 -1 0 6 -4
15 -10 18 -5 3 -10 21 -10 38 0 21 -3 28 -9 19 -7 -11 -9 -11 -14 2 -13 34
-27 14 -28 -41 l-1 -58 -14 45 c-8 25 -19 55 -26 67 -6 13 -8 26 -5 30 4 3 7
-1 7 -10 0 -9 4 -17 9 -17 4 0 8 21 8 48 1 26 1 56 2 67 3 65 -1 127 -8 117
-4 -6 -8 5 -8 25 -1 25 2 32 8 22 13 -21 12 7 -2 33 -8 14 -8 23 0 31 14 14
14 137 1 171 -5 14 -6 26 -1 26 5 0 14 15 21 33 10 29 12 30 24 15 17 -24 26
-23 26 2 0 28 -27 36 -49 16 -18 -16 -19 -15 -19 34 0 39 3 48 13 40 13 -11
25 -4 25 16 0 8 -6 11 -15 8 -8 -4 -15 -2 -15 4 0 6 5 12 11 14 9 3 9 10 0 27
-14 25 -7 56 10 45 8 -5 8 -1 0 14 -15 29 -3 78 23 90 l21 11 -22 0 c-13 1
-23 5 -23 10 0 5 10 12 23 14 l22 4 -22 8 c-12 4 -24 14 -27 22 -4 11 -1 13
14 8 11 -4 20 -2 20 4 0 6 -4 11 -10 11 -5 0 -10 5 -10 10 0 6 5 10 10 10 6 0
10 -5 10 -11z m-30 -1340 c0 -5 -9 -9 -20 -9 -19 0 -26 11 -14 23 8 8 34 -3
34 -14z m85 1 c-3 -5 -17 -10 -31 -10 -13 0 -24 5 -24 10 0 6 14 10 31 10 17
0 28 -4 24 -10z m-10 -38 c0 -7 -3 -12 -7 -12 -5 0 -15 0 -23 0 -8 0 -15 7
-15 15 0 10 8 14 23 11 12 -1 22 -8 22 -14z m-85 -1 c0 -5 -7 -11 -15 -15 -15
-5 -20 5 -8 17 9 10 23 9 23 -2z m50 -30 c0 -5 9 -11 21 -14 24 -7 16 -27 -10
-27 -22 0 -45 25 -36 40 8 12 25 13 25 1z m-40 -9 c0 -4 -4 -12 -9 -17 -5 -6
-11 -28 -14 -50 -3 -37 -4 -36 -5 11 -1 28 1 54 5 57 9 10 23 9 23 -1z m68
-83 c3 -17 -23 -33 -39 -23 -5 3 -9 14 -9 25 0 15 6 20 22 17 13 -2 24 -10 26
-19z m2 -77 c0 -13 -12 -22 -22 -16 -10 6 -1 24 13 24 5 0 9 -4 9 -8z m40 -2
c0 -5 -4 -10 -10 -10 -5 0 -10 5 -10 10 0 6 5 10 10 10 6 0 10 -4 10 -10z
m-61 -59 c7 -5 12 -13 10 -18 -2 -6 -13 -2 -23 8 -20 19 -12 26 13 10z m1 -56
c0 -8 -2 -15 -4 -15 -2 0 -6 7 -10 15 -3 8 -1 15 4 15 6 0 10 -7 10 -15z m48
-25 c3 -9 -1 -11 -12 -7 -12 5 -16 0 -16 -18 0 -30 -4 -31 -30 -5 -23 23 -26
34 -6 27 8 -3 20 1 27 9 14 17 31 14 37 -6z m-23 -72 c17 1 26 -1 20 -5 -10
-8 -17 -28 -18 -50 0 -6 -6 -9 -14 -6 -8 3 -11 13 -8 23 4 14 1 17 -12 14 -14
-4 -18 1 -20 23 -1 23 1 25 10 13 7 -9 24 -14 42 -12z m-13 -86 c-7 -2 -13
-18 -13 -35 -1 -19 -3 -24 -6 -14 -7 28 6 69 19 61 9 -6 9 -9 0 -12z m25 -82
c3 -16 9 -30 14 -30 5 0 9 -9 9 -20 0 -13 -5 -18 -15 -14 -24 10 -32 -26 -9
-43 13 -10 15 -16 7 -21 -6 -4 -11 -16 -10 -26 3 -29 -22 -31 -33 -2 -5 14
-17 26 -27 27 -11 0 -13 3 -5 6 7 3 19 21 28 41 13 33 13 38 -1 48 -19 14 -20
38 0 30 8 -3 14 -2 14 2 -6 41 19 43 28 2z m-10 -220 c-4 -17 -2 -20 16 -15
19 5 20 5 4 -5 -10 -6 -14 -16 -10 -23 4 -7 9 -38 10 -71 2 -32 8 -68 14 -78
8 -15 7 -24 -7 -39 -13 -15 -15 -22 -6 -31 14 -14 16 -58 3 -58 -10 0 -8 -46
2 -57 4 -3 2 -12 -3 -18 -7 -9 -6 -14 4 -18 9 -4 12 -14 9 -25 -2 -11 0 -29 6
-40 8 -15 8 -23 0 -27 -6 -4 -8 -12 -6 -19 3 -7 -1 -23 -9 -37 -16 -29 -18
-42 -3 -33 6 4 10 -1 8 -12 -4 -29 11 -65 24 -58 7 4 1 -4 -11 -19 -17 -18
-22 -32 -17 -47 14 -45 13 -90 -3 -90 -12 0 -12 -3 -2 -15 10 -12 10 -18 0
-30 -10 -12 -9 -15 4 -15 12 0 15 -6 10 -25 -4 -16 0 -34 10 -50 12 -19 13
-25 3 -25 -9 0 -12 -23 -11 -97 1 -66 -3 -107 -12 -125 -12 -23 -12 -27 0 -22
15 6 32 -26 17 -35 -7 -5 -9 -76 -1 -76 7 0 6 -56 -1 -61 -6 -4 -6 -11 1 -19
7 -8 8 -19 4 -26 -14 -24 -14 -87 0 -92 13 -5 12 -23 -4 -82 -2 -5 0 -18 5
-28 4 -10 2 -24 -6 -33 -10 -13 -10 -17 2 -25 12 -8 12 -10 0 -18 -11 -7 -11
-15 -3 -40 7 -19 7 -31 1 -31 -15 0 -10 -22 9 -36 16 -13 16 -15 0 -28 -22
-16 -23 -44 -3 -70 11 -14 12 -23 4 -33 -7 -8 -9 -30 -5 -58 7 -43 6 -45 -21
-51 -15 -3 -34 -8 -42 -10 -15 -5 -41 13 -41 27 0 5 11 7 25 3 27 -7 35 10 10
20 -16 6 -16 46 0 58 5 4 5 15 -3 30 -6 13 -10 52 -10 88 1 36 -2 91 -6 123
-5 38 -4 57 3 57 13 0 12 118 -1 126 -4 3 -8 10 -8 15 0 6 3 8 8 6 4 -3 7 44
7 103 1 67 -3 106 -9 103 -5 -4 -7 1 -3 10 4 10 10 24 14 34 4 11 3 14 -5 9
-7 -4 -12 -1 -12 8 0 8 8 20 18 25 16 10 16 10 -1 11 -12 0 -16 4 -10 13 4 6
6 22 4 35 -2 15 3 22 16 23 15 1 15 2 2 6 -11 3 -15 11 -12 23 4 16 11 18 32
14 24 -6 24 -5 -9 20 -39 30 -39 29 -22 69 9 21 9 34 1 48 -6 12 -8 26 -6 34
3 7 0 18 -6 24 -8 8 -8 14 1 23 15 15 16 45 1 50 -7 2 -7 12 2 30 10 22 9 31
-1 43 -10 12 -10 19 -2 27 17 17 15 38 -3 32 -17 -7 -21 11 -4 21 6 4 8 13 5
20 -3 9 2 11 17 8 20 -4 21 -3 5 10 -19 15 -26 53 -8 42 15 -9 12 8 -4 31 -10
13 -11 23 -4 31 6 8 6 19 -2 33 -14 27 -22 168 -9 175 5 4 7 17 4 31 -3 13 -7
35 -10 49 -4 18 -1 25 10 25 18 0 20 20 3 21 -10 0 -10 2 0 6 20 8 15 33 -5
26 -15 -5 -16 -3 -5 8 6 7 12 22 13 34 0 11 3 14 6 7 2 -6 9 -10 14 -6 5 3 5
13 -1 25 -7 12 -7 19 -1 19 6 0 2 14 -7 31 -12 22 -14 33 -6 36 7 2 10 13 7
23 -4 14 0 20 12 20 13 0 16 -6 12 -20z m-37 -1870 c0 -5 -4 -10 -10 -10 -5 0
-10 5 -10 10 0 6 5 10 10 10 6 0 10 -4 10 -10z m547 -1916 c-3 -3 -12 -4 -19
-1 -8 3 -5 6 6 6 11 1 17 -2 13 -5z m-540 -1120 c-3 -3 -12 -4 -19 -1 -8 3 -5
6 6 6 11 1 17 -2 13 -5z m173 -1297 c0 -4 -6 -2 -14 5 -8 7 -12 17 -9 22 5 8
23 -12 23 -27z m335 -217 c3 -6 -1 -7 -9 -4 -18 7 -21 14 -7 14 6 0 13 -4 16
-10z m-338 -142 c-3 -8 -6 -5 -6 6 -1 11 2 17 5 13 3 -3 4 -12 1 -19z m-7 -44
c0 -8 -5 -12 -10 -9 -6 4 -8 11 -5 16 9 14 15 11 15 -7z m8 -208 c0 -21 -3
-23 -14 -11 -16 16 -19 29 -4 20 6 -3 10 -1 10 4 0 6 2 11 4 11 2 0 4 -11 4
-24z m-8 -136 c0 -5 -5 -10 -11 -10 -5 0 -7 5 -4 10 3 6 8 10 11 10 2 0 4 -4
4 -10z m3 -77 c4 -19 2 -33 -3 -33 -6 0 -10 17 -10 37 0 43 5 41 13 -4z m347
-63 c0 -5 -4 -10 -10 -10 -5 0 -10 5 -10 10 0 6 5 10 10 10 6 0 10 -4 10 -10z
m-18 -38 c-19 -6 -14 -22 7 -22 30 0 34 -17 6 -22 -15 -3 -26 0 -30 10 -8 21
4 54 18 45 8 -5 8 -8 -1 -11z m-35 -129 c-3 -10 -5 -4 -5 12 0 17 2 24 5 18 2
-7 2 -21 0 -30z m26 -126 c3 -8 -3 -14 -14 -14 -11 -1 -19 5 -19 13 0 18 26
19 33 1z m29 -94 c6 -8 3 -15 -9 -22 -17 -11 -17 -11 0 -25 17 -13 16 -15 -14
-30 -39 -20 -39 -20 -39 -1 0 8 4 15 10 15 5 0 7 7 4 15 -4 8 1 17 10 21 9 3
16 13 16 21 0 8 -4 12 -9 9 -5 -3 -14 1 -21 9 -11 13 -10 14 4 9 13 -5 19 0
24 17 l7 24 3 -25 c2 -14 8 -30 14 -37z m-327 -133 c3 -5 1 -10 -4 -10 -6 0
-11 5 -11 10 0 6 2 10 4 10 3 0 8 -4 11 -10z m335 -10 c0 -5 -2 -10 -4 -10 -3
0 -8 5 -11 10 -3 6 -1 10 4 10 6 0 11 -4 11 -10z m-36 -16 c9 -22 -3 -32 -14
-14 -12 19 -12 30 -1 30 5 0 12 -7 15 -16z m-8 -109 c-4 -19 -11 -35 -16 -35
-13 0 -13 27 0 35 6 3 10 16 10 27 0 12 3 19 6 15 4 -3 3 -22 0 -42z m44 -26
c0 -5 -7 -9 -15 -9 -15 0 -20 12 -9 23 8 8 24 -1 24 -14z m20 -19 c0 -5 -5
-10 -11 -10 -5 0 -7 5 -4 10 3 6 8 10 11 10 2 0 4 -4 4 -10z m-30 -10 c0 -5
-7 -10 -16 -10 -8 0 -12 5 -9 10 3 6 10 10 16 10 5 0 9 -4 9 -10z m-33 -56
c-3 -3 -12 -4 -19 -1 -8 3 -5 6 6 6 11 1 17 -2 13 -5z m29 -34 c8 0 14 -4 14
-10 0 -5 -9 -10 -20 -10 -17 0 -20 -7 -20 -41 0 -25 -4 -38 -10 -34 -6 4 -10
14 -9 23 2 10 -1 27 -5 39 -9 28 1 46 21 39 8 -3 21 -6 29 -6z m14 -90 c0 -5
-4 -10 -10 -10 -5 0 -10 5 -10 10 0 6 5 10 10 10 6 0 10 -4 10 -10z m-20 -57
c0 -8 -4 -12 -9 -9 -5 4 -11 0 -14 -6 -2 -7 -7 -10 -11 -7 -10 10 4 36 19 36
8 0 15 -7 15 -14z m-13 -55 c-3 -8 -6 -5 -6 6 -1 11 2 17 5 13 3 -3 4 -12 1
-19z m33 -42 c0 -4 -9 -6 -20 -3 -13 3 -20 0 -20 -9 0 -16 -26 -19 -35 -4 -3
6 -4 18 0 29 5 16 10 17 40 7 19 -6 35 -15 35 -20z m-22 -43 c-22 -5 -24 -29
-3 -37 8 -3 15 -10 15 -16 0 -5 -7 -10 -15 -10 -8 0 -15 7 -15 15 0 9 -9 15
-21 15 -21 0 -21 0 2 20 13 10 31 19 39 19 10 -1 10 -3 -2 -6z m-31 -74 c-4
-14 -1 -19 7 -16 15 6 16 -35 2 -45 -8 -6 -7 -11 3 -17 7 -5 10 -14 6 -21 -5
-8 -14 -5 -32 11 -23 22 -23 24 -6 37 16 13 17 15 2 24 -15 10 -15 13 0 30 20
23 25 23 18 -3z m58 -109 c3 -5 1 -10 -4 -10 -6 0 -11 5 -11 10 0 6 2 10 4 10
3 0 8 -4 11 -10z m-23 -35 c12 -17 9 -30 -4 -17 -17 17 -31 15 -24 -3 6 -17
-2 -19 -23 -6 -8 5 -11 16 -8 24 7 17 48 19 59 2z m-45 -101 c-3 -3 -12 -4
-19 -1 -8 3 -5 6 6 6 11 1 17 -2 13 -5z m35 -40 c22 13 38 -2 17 -17 -21 -17
-30 -44 -23 -73 5 -20 9 -22 20 -13 11 9 14 8 14 -5 0 -8 -11 -18 -24 -22 -17
-4 -22 -11 -19 -25 6 -21 -7 -25 -25 -7 -18 18 -14 38 8 38 11 0 20 7 20 15 0
10 -7 15 -17 13 -13 -2 -17 3 -15 17 2 11 3 38 3 60 0 33 2 37 12 24 9 -12 16
-14 29 -5z m28 -62 c0 -13 -12 -22 -22 -16 -10 6 -1 24 13 24 5 0 9 -4 9 -8z
m-27 -156 c-4 -28 -1 -37 16 -48 27 -17 27 -27 -1 -21 -20 4 -21 3 -8 -9 9 -7
15 -25 15 -40 0 -24 -4 -28 -30 -29 l-30 -1 33 -14 c35 -15 44 -29 12 -19 -33
10 -24 -22 10 -37 33 -14 41 -33 10 -23 -14 5 -20 2 -20 -9 0 -9 7 -16 15 -16
18 0 20 -30 3 -31 -10 0 -10 -2 0 -6 6 -2 12 -19 11 -36 0 -18 -3 -26 -6 -19
-8 19 -23 14 -23 -8 0 -11 4 -20 9 -20 5 0 11 -9 14 -19 3 -14 1 -18 -9 -14
-18 7 -17 -7 1 -31 8 -11 15 -25 15 -30 0 -6 -4 -4 -10 4 -17 26 -19 5 -8 -69
9 -60 8 -75 -3 -82 -8 -5 -9 -9 -4 -9 6 0 16 -9 23 -20 12 -19 11 -20 -13 -14
-28 7 -35 -10 -9 -24 17 -9 18 -21 8 -114 -5 -49 -3 -58 10 -58 9 0 16 -4 16
-10 0 -5 -7 -7 -15 -4 -16 6 -21 -11 -6 -20 4 -3 8 -24 8 -46 0 -22 -4 -43 -8
-46 -15 -9 -10 -26 6 -20 8 3 15 1 15 -3 0 -5 -6 -11 -12 -14 -10 -4 -10 -7
-1 -17 10 -11 9 -16 -4 -26 -14 -10 -15 -15 -5 -27 10 -12 10 -17 1 -23 -9 -5
-7 -11 6 -21 18 -13 18 -13 -1 -28 -19 -14 -19 -14 0 -15 18 0 18 -2 -3 -24
l-23 -25 22 -31 c23 -32 21 -45 -8 -45 -25 0 -28 -35 -3 -42 21 -5 29 -23 11
-23 -5 0 -10 -4 -10 -10 0 -5 7 -10 16 -10 25 0 6 -18 -26 -25 -17 -4 -30 -11
-30 -16 0 -6 9 -5 21 1 11 7 22 10 25 8 7 -8 8 -64 0 -76 -5 -8 0 -12 16 -13
19 0 17 -3 -12 -14 -19 -7 -29 -14 -22 -14 24 -2 25 -32 2 -56 -19 -20 -21
-27 -10 -40 7 -8 19 -14 28 -13 8 2 17 -3 19 -9 3 -9 -7 -14 -29 -14 -30 -2
-30 -2 -5 -6 27 -4 35 -17 17 -28 -15 -9 -12 -46 3 -43 12 3 17 -3 17 -21 0
-5 -15 -13 -32 -17 l-33 -7 25 -10 25 -10 -25 -7 c-24 -8 -24 -8 -2 -9 24 -1
31 -31 7 -31 -9 0 -18 -7 -21 -15 -4 -8 -14 -15 -23 -15 -24 0 -25 60 -2 61
11 0 12 2 3 6 -6 2 -10 9 -6 14 3 5 -1 16 -9 23 -9 10 -13 30 -10 63 1 26 3
62 3 80 0 17 4 34 10 38 20 12 11 33 -12 27 -22 -5 -22 -4 -5 15 18 21 23 38
8 29 -12 -8 -20 38 -10 57 5 8 9 27 9 43 0 16 0 40 1 54 2 52 2 66 -6 98 -6
26 -4 32 9 32 23 0 20 11 -11 37 -25 21 -26 23 -7 21 11 -2 20 2 20 7 -1 6 -8
9 -17 8 -13 -2 -16 3 -12 20 3 12 11 28 17 36 8 11 8 15 -2 19 -10 3 -7 9 8
19 19 14 20 17 6 32 -9 10 -13 21 -9 24 3 4 1 7 -6 7 -9 0 -11 9 -5 33 4 17 6
54 5 80 -1 27 4 67 10 90 8 30 8 42 0 45 -14 5 -14 42 0 42 5 0 7 5 3 12 -4 6
-8 23 -9 37 -1 14 -5 34 -9 43 -6 12 -3 20 8 24 20 8 21 24 1 24 -25 0 -17 14
15 28 17 8 30 21 30 30 -1 15 -2 15 -14 0 -7 -10 -19 -18 -27 -17 -8 0 -9 2
-3 5 7 3 9 18 4 44 -6 32 -4 40 8 40 13 0 12 3 -3 20 -14 16 -15 23 -6 34 8
10 9 21 3 33 -5 10 -12 33 -15 51 -5 26 -3 34 11 39 23 9 46 33 38 40 -3 3
-12 0 -20 -6 -15 -13 -36 -7 -36 10 0 5 8 9 18 10 10 0 12 3 5 6 -21 8 -15 31
9 39 l22 7 -22 17 c-12 10 -17 20 -11 22 8 3 8 14 1 41 -9 33 -8 37 8 37 22 0
33 23 18 38 -8 8 -7 16 3 28 13 16 11 17 -14 12 -16 -3 -25 -2 -20 2 7 7 29
15 55 19 4 0 4 -14 1 -33z m35 -1904 c15 -10 0 -62 -18 -62 -5 0 -10 -4 -10
-10 0 -5 7 -10 15 -10 9 0 15 -10 15 -26 0 -18 -4 -25 -14 -21 -9 4 -16 -3
-19 -18 -2 -14 0 -22 5 -19 10 7 38 -14 38 -28 0 -6 -7 -5 -15 2 -19 16 -19 7
0 -30 15 -30 15 -30 -12 -30 -30 0 -22 -15 12 -22 17 -4 16 -7 -10 -18 l-30
-14 28 -4 c15 -2 27 -8 27 -14 0 -5 -6 -8 -14 -5 -8 3 -17 1 -20 -6 -5 -9 -8
-8 -12 2 -5 10 -8 11 -14 1 -12 -19 -33 -1 -27 22 3 11 2 31 -3 44 -5 13 -6
24 -2 24 4 0 8 11 8 25 2 19 -3 25 -20 25 -20 1 -20 1 -2 15 25 19 29 72 7 85
-10 6 -11 10 -3 10 8 0 10 8 6 24 -10 43 46 81 84 58z m-321 -284 c-3 -8 -6
-5 -6 6 -1 11 2 17 5 13 3 -3 4 -12 1 -19z m293 -129 c0 -5 -4 -8 -9 -5 -5 3
-12 -1 -15 -10 -4 -9 -9 -15 -11 -12 -3 3 -3 13 1 22 7 18 34 22 34 5z m37
-41 c-3 -7 -5 -2 -5 12 0 14 2 19 5 13 2 -7 2 -19 0 -25z m-27 -12 c0 -8 6
-17 13 -19 6 -3 3 -6 -9 -6 -12 -1 -26 -11 -33 -23 -11 -22 -11 -22 -6 -1 3
12 0 25 -6 29 -9 5 -7 11 6 21 24 17 35 17 35 -1z"/>
<path d="M10530 29360 c0 -5 9 -10 21 -10 11 0 17 5 14 10 -3 6 -13 10 -21 10
-8 0 -14 -4 -14 -10z"/>
<path d="M10391 29344 c0 -11 3 -14 6 -6 3 7 2 16 -1 19 -3 4 -6 -2 -5 -13z"/>
<path d="M11108 28033 c7 -3 16 -2 19 1 4 3 -2 6 -13 5 -11 0 -14 -3 -6 -6z"/>
<path d="M11100 26819 c0 -5 5 -7 10 -4 6 3 10 8 10 11 0 2 -4 4 -10 4 -5 0
-10 -5 -10 -11z"/>
<path d="M11101 26758 c0 -21 4 -38 9 -38 6 0 10 -7 10 -15 0 -16 25 -21 34
-7 2 4 -4 19 -15 32 -13 18 -19 21 -20 10 -1 -8 -5 1 -9 20 l-7 35 -2 -37z"/>
<path d="M11090 26506 c0 -21 -5 -46 -11 -57 -6 -11 -7 -34 -4 -51 10 -45 27
-20 29 44 2 30 5 59 9 65 4 6 0 16 -8 23 -13 11 -15 7 -15 -24z"/>
<path d="M11091 26344 c0 -11 3 -14 6 -6 3 7 2 16 -1 19 -3 4 -6 -2 -5 -13z"/>
<path d="M11074 26160 c0 -33 4 -60 8 -60 4 0 8 23 8 50 0 28 0 53 1 57 0 4
-4 9 -9 11 -5 1 -9 -24 -8 -58z"/>
<path d="M11110 26130 c0 -5 5 -10 11 -10 5 0 7 5 4 10 -3 6 -8 10 -11 10 -2
0 -4 -4 -4 -10z"/>
<path d="M11100 25820 c0 -5 5 -10 11 -10 5 0 7 5 4 10 -3 6 -8 10 -11 10 -2
0 -4 -4 -4 -10z"/>
<path d="M11130 24360 c0 -5 5 -10 10 -10 6 0 10 5 10 10 0 6 -4 10 -10 10 -5
0 -10 -4 -10 -10z"/>
<path d="M11138 23863 c7 -3 16 -2 19 1 4 3 -2 6 -13 5 -11 0 -14 -3 -6 -6z"/>
<path d="M11592 15756 c7 -8 15 -12 17 -11 5 6 -10 25 -20 25 -5 0 -4 -6 3
-14z"/>
<path d="M11597 15536 c-4 -10 -1 -13 9 -9 7 3 14 9 14 14 0 14 -17 10 -23 -5z"/>
<path d="M11560 15500 c0 -11 5 -20 10 -20 6 0 10 9 10 20 0 11 -4 20 -10 20
-5 0 -10 -9 -10 -20z"/>
<path d="M11600 15419 c0 -11 5 -17 10 -14 6 3 10 13 10 21 0 8 -4 14 -10 14
-5 0 -10 -9 -10 -21z"/>
<path d="M11608 15083 c7 -3 16 -2 19 1 4 3 -2 6 -13 5 -11 0 -14 -3 -6 -6z"/>
<path d="M11601 14204 c0 -11 3 -14 6 -6 3 7 2 16 -1 19 -3 4 -6 -2 -5 -13z"/>
<path d="M11009 36598 c-7 -20 -6 -659 1 -663 6 -4 11 74 12 207 1 236 4 315
11 401 4 45 2 57 -9 57 -8 0 -14 -1 -15 -2z"/>
<path d="M11045 36580 c-3 -5 1 -10 9 -10 9 0 16 5 16 10 0 6 -4 10 -9 10 -6
0 -13 -4 -16 -10z"/>
<path d="M11000 35866 c0 -30 5 -58 10 -61 6 -4 10 17 10 54 0 34 -4 61 -10
61 -5 0 -10 -24 -10 -54z"/>
<path d="M11045 35700 c3 -5 8 -10 11 -10 2 0 4 5 4 10 0 6 -5 10 -11 10 -5 0
-7 -4 -4 -10z"/>
<path d="M11041 35474 c0 -11 3 -14 6 -6 3 7 2 16 -1 19 -3 4 -6 -2 -5 -13z"/>
<path d="M10998 35263 c-12 -14 -7 -553 4 -553 5 0 9 44 10 98 3 181 5 217 12
251 5 19 11 29 15 22 4 -6 7 29 6 78 -1 82 0 90 19 95 11 3 17 8 13 12 -12 12
-68 10 -79 -3z"/>
<path d="M11001 34660 c-2 -3 -4 -25 -6 -49 -2 -28 0 -40 7 -33 5 5 8 27 5 48
-2 22 -5 37 -6 34z"/>
<path d="M10996 34333 c-8 -51 -8 -91 2 -96 4 -3 8 26 10 64 3 76 -2 90 -12
32z"/>
<path d="M10991 34104 c0 -11 3 -14 6 -6 3 7 2 16 -1 19 -3 4 -6 -2 -5 -13z"/>
<path d="M10992 33910 c0 -14 2 -19 5 -12 2 6 2 18 0 25 -3 6 -5 1 -5 -13z"/>
<path d="M10990 33808 c0 -15 5 -30 10 -33 13 -8 13 25 0 45 -8 12 -10 9 -10
-12z"/>
<path d="M10990 33729 c0 -5 5 -7 10 -4 6 3 10 8 10 11 0 2 -4 4 -10 4 -5 0
-10 -5 -10 -11z"/>
<path d="M10992 33605 c0 -44 3 -89 8 -100 11 -25 11 107 0 150 -5 21 -8 7 -8
-50z"/>
<path d="M10998 33447 c-5 -10 -8 -33 -7 -50 0 -31 1 -31 10 -7 5 13 9 36 7
50 -3 21 -4 22 -10 7z"/>
<path d="M10991 32904 c0 -11 3 -14 6 -6 3 7 2 16 -1 19 -3 4 -6 -2 -5 -13z"/>
<path d="M10992 32835 c0 -16 2 -22 5 -12 2 9 2 23 0 30 -3 6 -5 -1 -5 -18z"/>
<path d="M11750 28666 c0 -5 161 -219 170 -226 4 -3 10 -14 13 -24 4 -10 10
-16 14 -12 7 7 -28 76 -39 76 -5 0 -8 4 -8 10 0 22 -120 179 -137 180 -7 0
-13 -2 -13 -4z"/>
<path d="M11760 28495 c0 -18 4 -23 16 -18 14 5 14 3 3 -14 -11 -18 -8 -26 20
-62 37 -47 41 -49 41 -22 0 11 -8 22 -17 24 -17 4 -17 5 0 6 23 1 22 13 -4 29
-11 7 -19 19 -17 25 2 7 -6 22 -19 34 l-23 22 0 -24z"/>
<path d="M11960 28378 c0 -8 7 -21 15 -28 19 -16 19 -1 0 24 -12 16 -15 17
-15 4z"/>
<path d="M12010 28310 c1 -18 29 -70 30 -54 0 7 -7 25 -15 40 -8 16 -15 22
-15 14z"/>
<path d="M11960 28000 c-8 -5 -11 -12 -7 -17 5 -4 12 -2 16 6 6 9 10 7 14 -8
7 -27 -2 -61 -17 -61 -14 0 -40 -40 -31 -48 4 -4 12 1 19 11 16 20 36 23 36 3
0 -7 15 -16 33 -19 17 -4 42 -9 55 -13 30 -9 29 14 -2 26 -35 13 -39 26 -20
65 11 25 14 39 7 46 -14 14 -85 20 -103 9z"/>
<path d="M8340 27968 c0 -25 38 -74 126 -163 84 -85 128 -125 139 -125 2 0 28
-18 57 -39 28 -22 56 -37 61 -34 4 3 17 -3 27 -12 10 -9 24 -14 29 -10 16 9
13 54 -4 71 -8 9 -15 11 -15 5 0 -6 -4 -11 -10 -11 -5 0 -10 6 -10 13 0 8 -31
34 -68 58 -38 24 -82 61 -98 81 -16 20 -34 37 -41 38 -6 0 -15 9 -18 20 -3 11
-11 20 -17 20 -6 0 -28 16 -49 35 -22 19 -48 35 -59 35 -11 0 -23 7 -26 15 -7
18 -24 20 -24 3z"/>
<path d="M12221 27864 c0 -11 3 -14 6 -6 3 7 2 16 -1 19 -3 4 -6 -2 -5 -13z"/>
<path d="M12541 26494 c0 -11 3 -14 6 -6 3 7 2 16 -1 19 -3 4 -6 -2 -5 -13z"/>
<path d="M11120 22769 c0 -5 5 -7 10 -4 6 3 10 8 10 11 0 2 -4 4 -10 4 -5 0
-10 -5 -10 -11z"/>
<path d="M11132 22565 c-11 -13 -9 -15 12 -15 18 0 24 4 20 15 -8 19 -15 18
-32 0z"/>
<path d="M11161 21854 c0 -11 3 -14 6 -6 3 7 2 16 -1 19 -3 4 -6 -2 -5 -13z"/>
<path d="M11150 21570 c0 -5 5 -10 10 -10 6 0 10 5 10 10 0 6 -4 10 -10 10 -5
0 -10 -4 -10 -10z"/>
<path d="M11191 20864 c0 -11 3 -14 6 -6 3 7 2 16 -1 19 -3 4 -6 -2 -5 -13z"/>
<path d="M11147 20733 c-4 -3 -7 -11 -7 -17 0 -6 5 -5 12 2 6 6 9 14 7 17 -3
3 -9 2 -12 -2z"/>
<path d="M11190 20559 c0 -5 5 -7 10 -4 6 3 10 8 10 11 0 2 -4 4 -10 4 -5 0
-10 -5 -10 -11z"/>
<path d="M11197 20479 c7 -7 15 -10 18 -7 3 3 -2 9 -12 12 -14 6 -15 5 -6 -5z"/>
<path d="M11135 20470 c3 -5 8 -10 11 -10 2 0 4 5 4 10 0 6 -5 10 -11 10 -5 0
-7 -4 -4 -10z"/>
<path d="M11121 20354 c0 -11 3 -14 6 -6 3 7 2 16 -1 19 -3 4 -6 -2 -5 -13z"/>
<path d="M11130 19619 c0 -5 5 -7 10 -4 6 3 10 8 10 11 0 2 -4 4 -10 4 -5 0
-10 -5 -10 -11z"/>
<path d="M11770 18650 c-6 -75 -5 -88 5 -78 3 3 5 39 3 79 l-3 74 -5 -75z"/>
<path d="M11767 18546 c-4 -10 -5 -21 -2 -24 9 -9 17 6 13 25 -3 17 -4 17 -11
-1z"/>
<path d="M11070 18140 c0 -5 5 -10 10 -10 6 0 10 5 10 10 0 6 -4 10 -10 10 -5
0 -10 -4 -10 -10z"/>
<path d="M11005 17791 c-3 -5 -1 -12 5 -16 5 -3 10 1 10 9 0 18 -6 21 -15 7z"/>
<path d="M11010 17709 c0 -36 3 -49 9 -40 5 8 7 20 4 28 -3 7 0 19 6 27 8 10
8 16 -4 26 -13 11 -15 6 -15 -41z"/>
<path d="M11250 17735 c0 -9 5 -15 11 -13 6 2 11 8 11 13 0 5 -5 11 -11 13 -6
2 -11 -4 -11 -13z"/>
<path d="M11250 17684 c0 -8 5 -12 10 -9 6 4 8 11 5 16 -9 14 -15 11 -15 -7z"/>
<path d="M11258 17630 c-7 -24 -3 -38 8 -28 3 4 4 17 2 30 l-3 23 -7 -25z"/>
<path d="M11012 17600 c0 -14 2 -19 5 -12 2 6 2 18 0 25 -3 6 -5 1 -5 -13z"/>
<path d="M11013 17495 c0 -33 2 -45 4 -27 2 18 2 45 0 60 -2 15 -4 0 -4 -33z"/>
<path d="M11771 16804 c0 -11 3 -14 6 -6 3 7 2 16 -1 19 -3 4 -6 -2 -5 -13z"/>
<path d="M11772 16460 c0 -297 6 -387 32 -450 3 -8 15 -73 26 -145 38 -247 59
-374 74 -437 8 -35 17 -91 21 -125 4 -35 12 -63 17 -63 6 0 8 12 4 28 -3 15
-12 68 -21 117 -8 50 -19 117 -24 150 -12 70 -15 94 -41 315 -10 91 -22 203
-25 250 -3 47 -8 103 -12 125 -3 22 -16 155 -28 295 l-23 255 0 -315z"/>
<path d="M23651 14612 c-8 -14 -13 -14 -34 -3 -34 18 -61 11 -65 -18 -3 -21
-1 -22 30 -15 39 8 371 8 399 -1 11 -4 19 -2 19 5 0 7 6 8 18 1 9 -5 46 -10
82 -11 222 -7 332 -16 464 -39 32 -6 63 -8 67 -5 5 3 9 1 9 -4 0 -5 26 -12 58
-15 31 -2 109 -14 173 -26 63 -11 129 -22 145 -25 16 -2 36 -6 44 -9 36 -13
454 -86 463 -80 5 3 12 1 16 -4 6 -11 81 -28 81 -19 0 8 -57 36 -62 31 -2 -2
-28 2 -57 10 -30 8 -67 11 -83 8 -23 -4 -27 -3 -23 10 5 11 -3 16 -32 20 -34
4 -104 18 -373 73 -137 28 -340 63 -395 69 -22 2 -58 6 -80 9 -22 2 -69 8
-105 11 -36 4 -70 11 -77 17 -9 7 -13 7 -13 -1 0 -9 -5 -9 -20 -1 -27 15 -119
19 -123 6 -3 -8 -8 -7 -18 1 -16 13 -258 21 -277 9 -7 -4 -12 -3 -12 2 0 13
-83 2 -92 -12 -6 -8 -11 -6 -18 4 -13 21 -98 23 -109 2z"/>
<path d="M23400 14605 c0 -8 4 -15 9 -15 5 0 14 7 21 15 10 13 9 15 -9 15 -12
0 -21 -6 -21 -15z"/>
<path d="M23458 14613 c6 -2 18 -2 25 0 6 3 1 5 -13 5 -14 0 -19 -2 -12 -5z"/>
<path d="M23505 14610 c3 -5 8 -10 11 -10 2 0 4 5 4 10 0 6 -5 10 -11 10 -5 0
-7 -4 -4 -10z"/>
<path d="M23270 14594 c0 -19 10 -22 35 -10 33 15 31 23 -5 22 -16 -1 -30 -6
-30 -12z"/>
<path d="M23195 14592 c-27 -2 -54 -7 -59 -13 -13 -12 84 -12 104 1 21 13 12
15 -45 12z"/>
<path d="M22999 14557 c-24 -5 -48 -13 -53 -18 -6 -5 -23 -9 -39 -9 -31 0
-125 -28 -144 -43 -7 -5 -13 -13 -13 -18 0 -14 26 -10 39 5 8 10 24 12 51 9
24 -4 40 -2 40 5 0 9 17 16 70 29 8 2 35 6 60 9 25 3 52 12 60 19 8 7 22 15
30 18 23 8 -50 3 -101 -6z"/>
<path d="M23105 14550 c-16 -7 -17 -9 -3 -9 9 -1 20 4 23 9 7 11 7 11 -20 0z"/>
<path d="M23028 14503 c7 -3 16 -2 19 1 4 3 -2 6 -13 5 -11 0 -14 -3 -6 -6z"/>
<path d="M22664 14465 c-27 -12 -63 -26 -81 -29 -17 -4 -37 -13 -43 -21 -6 -8
-19 -11 -27 -8 -12 5 -14 3 -8 -7 5 -8 4 -11 -2 -7 -13 8 -103 -22 -103 -34 0
-5 -9 -9 -20 -9 -10 0 -23 -6 -27 -14 -4 -7 -26 -19 -48 -26 -22 -7 -47 -18
-55 -25 -8 -7 -32 -18 -52 -26 -21 -7 -38 -17 -38 -21 0 -4 -4 -7 -8 -5 -14 4
-82 -47 -82 -61 0 -8 -6 -12 -12 -9 -7 2 -25 -8 -39 -22 -26 -26 -52 -45 -77
-57 -20 -10 -92 -84 -92 -94 0 -6 -4 -10 -9 -10 -16 0 -131 -117 -131 -134 0
-9 -7 -16 -15 -16 -9 0 -19 -8 -22 -17 -8 -20 -70 -82 -77 -76 -2 2 -8 -10
-14 -26 -6 -17 -15 -31 -20 -31 -5 0 -14 -12 -20 -26 -7 -14 -16 -23 -21 -20
-5 4 -7 -3 -4 -13 5 -19 -29 -64 -44 -58 -5 1 -8 -10 -9 -26 -1 -15 -11 -39
-24 -52 -13 -14 -18 -25 -12 -25 7 0 12 -7 12 -15 0 -8 -4 -15 -9 -15 -5 0
-19 -16 -31 -35 -12 -19 -27 -34 -33 -32 -8 1 -12 -16 -12 -52 1 -53 1 -53
-17 -31 -18 22 -18 22 -18 -29 0 -40 -4 -52 -20 -61 -11 -6 -18 -15 -14 -21 9
-15 -15 -39 -33 -32 -15 6 -14 -5 5 -56 4 -10 0 -13 -16 -9 -15 4 -22 2 -22
-8 0 -8 4 -14 10 -14 5 0 7 -7 4 -15 -4 -8 -12 -15 -20 -15 -17 0 -18 -12 -2
-28 8 -8 8 -15 1 -24 -18 -22 -25 -69 -12 -84 6 -7 9 -19 6 -26 -4 -8 -6 -7
-6 5 -1 9 -5 17 -10 17 -13 0 -20 -27 -19 -74 0 -25 -6 -44 -16 -52 -17 -12
-22 -34 -8 -34 5 0 6 -19 2 -42 -19 -112 -30 -187 -34 -233 -2 -28 -9 -70 -16
-94 -8 -29 -8 -47 -1 -54 6 -6 11 2 15 24 7 39 25 161 35 234 3 28 11 56 15
64 5 8 13 31 17 50 12 59 46 172 69 231 35 90 70 189 70 200 0 6 9 20 20 32
11 12 20 29 20 38 0 9 7 25 15 36 8 10 15 27 15 36 0 9 4 18 8 20 13 5 53 89
47 99 -4 5 -1 9 4 9 6 0 17 15 26 33 8 17 35 59 59 92 25 33 45 68 45 78 1 9
5 17 9 17 4 0 16 20 26 45 11 25 23 45 28 45 4 0 8 6 8 14 0 7 9 16 21 19 15
4 19 11 15 24 -4 13 3 23 24 35 18 10 30 25 30 37 0 11 11 28 25 37 14 9 22
20 20 25 -3 4 3 14 15 21 11 7 20 18 20 25 0 6 10 15 23 19 12 4 46 31 75 61
29 29 71 63 93 75 22 11 43 27 46 34 2 7 14 15 26 18 12 3 45 26 72 51 28 25
68 54 90 64 22 10 50 28 62 40 12 11 24 21 27 21 3 0 17 5 33 12 15 6 33 12
38 13 20 3 63 24 70 34 3 6 19 11 34 11 16 0 34 7 41 15 7 9 19 14 27 11 17
-7 44 4 38 14 -3 5 9 12 27 15 18 4 44 15 57 24 14 9 27 15 29 13 10 -10 8 5
-2 14 -10 9 -25 6 -62 -11z"/>
<path d="M11305 14410 c-3 -5 -1 -10 4 -10 6 0 11 5 11 10 0 6 -2 10 -4 10 -3
0 -8 -4 -11 -10z"/>
<path d="M25655 14340 c3 -5 10 -10 16 -10 5 0 9 5 9 10 0 6 -7 10 -16 10 -8
0 -12 -4 -9 -10z"/>
<path d="M25700 14331 c0 -6 1 -11 3 -11 1 0 17 -4 35 -9 17 -5 32 -6 32 -1 0
4 -8 10 -17 13 -10 2 -26 8 -35 12 -11 4 -18 3 -18 -4z"/>
<path d="M11105 14300 c-3 -5 -1 -10 4 -10 6 0 11 5 11 10 0 6 -2 10 -4 10 -3
0 -8 -4 -11 -10z"/>
<path d="M12086 14269 c9 -49 43 -171 49 -177 9 -9 5 10 -19 106 -24 94 -42
136 -30 71z"/>
<path d="M25850 14290 c19 -13 30 -13 30 0 0 6 -10 10 -22 10 -19 0 -20 -2 -8
-10z"/>
<path d="M25915 14280 c-3 -5 1 -10 10 -10 9 0 13 5 10 10 -3 6 -8 10 -10 10
-2 0 -7 -4 -10 -10z"/>
<path d="M25648 14183 c7 -3 16 -2 19 1 4 3 -2 6 -13 5 -11 0 -14 -3 -6 -6z"/>
<path d="M11055 14160 c-3 -5 -2 -10 4 -10 5 0 13 5 16 10 3 6 2 10 -4 10 -5
0 -13 -4 -16 -10z"/>
<path d="M11100 14160 c0 -5 5 -10 10 -10 6 0 10 5 10 10 0 6 -4 10 -10 10 -5
0 -10 -4 -10 -10z"/>
<path d="M11082 14119 c2 -6 8 -10 13 -10 5 0 11 4 13 10 2 6 -4 11 -13 11 -9
0 -15 -5 -13 -11z"/>
<path d="M11120 14100 c0 -5 -6 -10 -13 -10 -12 0 -23 -16 -45 -64 -3 -4 5 -5
17 -1 13 4 21 2 21 -5 0 -6 7 -19 16 -28 15 -15 16 -13 9 19 -4 19 -12 40 -18
47 -5 7 -7 16 -3 19 4 4 11 1 16 -7 7 -11 10 -8 10 13 0 15 -2 27 -5 27 -3 0
-5 -4 -5 -10z"/>
<path d="M11043 14075 c-3 -9 -3 -19 1 -22 3 -4 6 1 6 10 0 8 6 18 13 20 9 4
9 6 -1 6 -7 1 -15 -6 -19 -14z"/>
<path d="M12130 14073 c1 -22 29 -123 39 -139 10 -18 10 -18 11 -1 0 29 -33
147 -42 147 -4 0 -8 -3 -8 -7z"/>
<path d="M12177 13883 c-3 -5 0 -27 8 -49 7 -21 20 -95 29 -162 9 -68 18 -127
20 -131 3 -4 16 -100 30 -213 27 -211 28 -222 41 -395 4 -56 11 -100 15 -98 8
5 18 -50 24 -140 2 -27 2 -36 0 -20 -3 17 -10 43 -16 59 -10 26 -13 27 -24 11
-15 -20 -36 -11 -32 13 2 11 -5 18 -20 20 l-22 3 5 -133 c3 -93 2 -121 -5 -93
-5 22 -9 68 -9 101 -1 34 -8 99 -16 145 -16 96 -19 178 -10 299 7 99 0 164
-21 185 -9 8 -24 57 -34 107 -11 51 -27 112 -35 136 -8 24 -18 62 -20 85 -8
65 -10 73 -27 98 -16 24 -17 24 -11 -16 3 -22 10 -51 16 -65 5 -14 11 -45 13
-70 12 -154 17 -200 23 -200 3 0 7 -41 8 -90 1 -49 7 -108 13 -129 6 -22 11
-56 12 -76 1 -20 5 -38 9 -41 5 -2 4 -16 -1 -29 -5 -14 -7 -32 -5 -40 3 -8 8
-23 11 -32 3 -10 7 -81 10 -158 2 -77 8 -178 13 -224 5 -47 7 -90 5 -96 -3 -6
-17 -12 -33 -13 -16 -1 -55 -11 -88 -21 -61 -20 -253 -62 -358 -80 -182 -31
-347 -56 -465 -72 -40 -5 -90 -14 -110 -19 -19 -5 -62 -12 -95 -15 -33 -3
-121 -14 -195 -25 -74 -10 -170 -22 -212 -25 -43 -4 -78 -11 -78 -16 0 -5 -28
-9 -62 -9 -35 0 -119 -7 -188 -15 -153 -18 -203 -22 -395 -35 -82 -5 -213 -14
-290 -19 -77 -5 -151 -9 -165 -9 -14 0 -50 -2 -80 -6 -30 -3 -100 -8 -155 -11
-55 -3 -124 -11 -152 -16 -29 -6 -57 -7 -63 -4 -6 4 -22 -1 -36 -10 -20 -13
-28 -14 -40 -5 -11 10 -15 9 -19 -1 -4 -10 -23 -14 -61 -14 -31 0 -58 -3 -61
-8 -3 -4 -17 -6 -31 -4 -15 2 -21 2 -14 0 27 -9 10 -23 -30 -25 -24 -1 -51 -2
-61 -2 -10 -1 -22 -8 -27 -16 -7 -11 -11 -12 -24 0 -14 11 -16 11 -11 -2 4
-11 -3 -17 -24 -21 -17 -4 -38 -4 -46 -1 -10 4 -15 2 -13 -7 2 -9 -14 -17 -47
-24 -27 -5 -55 -13 -62 -18 -6 -4 -15 -3 -18 3 -5 7 -11 8 -19 1 -6 -5 -29
-11 -51 -13 -25 -2 -39 -8 -38 -15 2 -7 -4 -13 -12 -13 -8 0 -15 -4 -15 -10 0
-5 6 -9 13 -7 7 1 11 -7 10 -18 -1 -11 6 -24 15 -29 15 -9 14 -11 -8 -17 -15
-4 4 -7 47 -6 44 0 78 -5 88 -13 9 -7 22 -9 32 -5 10 5 23 7 28 6 6 -2 29 -3
52 -3 31 0 44 -4 47 -16 5 -14 21 -17 100 -17 52 0 98 3 102 8 13 12 26 8 21
-7 -3 -8 0 -17 8 -19 17 -7 25 1 25 26 0 16 2 17 15 7 9 -7 18 -10 22 -7 10
11 33 -14 33 -34 0 -25 15 -24 41 2 16 16 23 18 29 9 6 -9 12 -9 29 -1 24 14
52 4 30 -10 -9 -6 -10 -9 -2 -9 6 0 19 7 28 16 13 13 23 14 55 6 24 -6 42 -6
46 -1 3 5 10 7 15 3 5 -3 7 -10 4 -15 -8 -12 -5 -11 34 2 34 12 85 4 76 -11
-4 -6 1 -17 9 -25 14 -14 15 -12 11 15 -3 24 0 30 16 30 10 0 18 -3 16 -7 -2
-9 6 -13 28 -13 8 0 15 5 15 10 0 6 -7 10 -15 10 -8 0 -15 5 -15 10 0 16 27
11 34 -6 4 -11 14 -15 30 -12 14 3 30 1 38 -3 7 -4 19 -3 27 4 11 9 15 9 18 0
3 -7 11 -13 19 -13 9 0 13 4 9 9 -3 5 -1 12 5 16 5 3 10 2 10 -4 0 -6 15 -7
35 -4 26 4 36 2 41 -11 3 -9 11 -13 16 -10 6 4 5 10 -3 16 -10 6 -6 7 11 3 14
-4 33 -17 42 -29 13 -15 18 -17 18 -6 0 15 80 65 80 50 0 -4 18 -6 40 -3 25 4
40 2 40 -5 0 -25 52 -62 105 -74 51 -12 53 -13 38 -30 -14 -16 -13 -18 13 -29
16 -6 38 -16 49 -21 11 -5 40 -10 64 -11 24 -1 38 -3 32 -5 -18 -6 -12 -23 7
-20 10 1 30 -7 46 -19 16 -13 37 -21 50 -18 11 2 43 7 69 10 65 9 56 29 -14
33 -30 2 -58 8 -64 14 -7 7 -2 9 17 4 30 -7 68 11 68 32 0 8 8 10 25 6 31 -8
33 11 3 21 -22 7 -21 8 7 12 17 3 36 10 44 16 12 9 13 9 7 0 -4 -8 -2 -13 6
-13 8 0 15 11 16 24 1 17 -5 25 -21 30 -13 3 -27 18 -34 36 -10 27 -14 29 -37
20 -23 -8 -26 -7 -25 13 0 12 3 16 6 9 4 -9 8 -10 18 -2 9 8 15 8 20 0 4 -7
13 -7 27 1 19 10 20 9 14 -16 -5 -19 -4 -25 5 -19 9 5 10 2 6 -9 -8 -22 8 -30
23 -12 10 13 10 19 -4 33 -17 20 -12 32 12 32 7 0 12 -5 10 -12 -2 -6 4 -20
13 -29 11 -11 16 -26 12 -41 -4 -18 -3 -20 6 -8 6 8 8 23 5 33 -5 15 -1 18 17
15 12 -2 24 3 27 11 4 11 -3 13 -32 8 -50 -8 -48 15 4 31 55 17 63 15 57 -9
-3 -13 -1 -19 6 -16 7 2 12 13 11 24 0 15 6 20 27 20 23 0 25 -2 13 -14 -8 -8
-14 -21 -14 -30 0 -12 7 -9 26 10 14 14 35 27 47 29 16 2 22 10 22 27 0 32 25
41 26 9 0 -23 0 -23 9 -2 9 22 12 23 135 43 l50 8 -40 3 c-29 2 -33 4 -15 7
14 3 29 9 34 14 6 5 16 3 26 -6 13 -12 23 -13 44 -6 14 6 26 15 26 21 0 5 7
10 15 10 8 0 15 -4 15 -10 0 -13 40 -7 49 9 4 6 15 9 23 6 11 -4 18 0 21 12 4
16 5 16 6 1 1 -22 24 -23 45 -3 20 21 104 24 117 5 9 -12 10 -12 5 3 -8 24 41
48 54 26 7 -10 5 -15 -5 -17 -8 -2 -15 -10 -15 -18 0 -15 12 -19 24 -6 4 4 13
7 19 7 13 1 13 9 1 39 -6 16 -4 18 10 13 10 -4 38 0 63 8 25 9 54 13 64 10 13
-4 19 -1 19 9 0 9 6 13 15 10 10 -4 22 10 39 46 l25 52 -25 -16 c-13 -9 -24
-12 -24 -7 0 16 35 30 58 24 12 -3 22 -1 22 5 0 5 18 17 39 25 22 9 42 21 46
27 3 5 15 10 26 10 11 0 17 5 14 10 -3 6 4 10 18 10 14 0 30 7 37 15 7 9 19
14 27 11 8 -3 23 0 33 6 15 10 22 10 32 0 9 -9 7 -17 -10 -35 -12 -13 -22 -31
-22 -40 0 -9 -13 -23 -30 -32 -30 -15 -40 -47 -20 -60 6 -3 10 -15 10 -26 0
-16 -4 -19 -21 -14 -15 5 -20 3 -17 -6 3 -9 26 -15 67 -17 53 -3 61 -5 51 -17
-16 -20 11 -50 29 -32 8 8 11 8 11 -1 0 -7 9 -12 21 -12 14 0 19 5 16 13 -3 8
-1 20 4 28 7 11 9 11 9 -3 0 -10 8 -18 18 -18 9 0 27 -3 40 -6 16 -5 22 -2 22
11 0 13 5 16 23 10 12 -4 32 -8 44 -9 18 -1 21 -5 16 -23 -3 -14 -1 -23 6 -23
6 0 12 10 12 23 1 12 2 29 3 37 1 8 5 21 9 28 5 7 3 12 -5 12 -9 1 -7 5 5 14
9 7 17 18 17 25 0 6 4 11 9 11 15 0 25 -21 14 -29 -12 -8 -13 -41 -1 -41 5 0
6 -4 3 -10 -10 -16 -14 -70 -5 -70 5 0 11 8 13 18 2 9 3 4 2 -13 -2 -25 13
-55 28 -55 2 0 4 24 4 53 0 28 5 79 12 112 7 33 14 74 16 90 1 17 12 82 23
145 24 136 29 207 19 315 -7 71 -6 77 6 56 8 -13 17 -19 20 -13 7 10 -1 140
-9 154 -3 4 -7 76 -10 159 -3 84 -6 155 -8 158 -2 3 0 39 5 79 4 42 4 81 -1
90 -5 10 -14 51 -19 92 -12 85 -14 94 -37 170 -9 30 -19 77 -23 104 -5 28 -13
52 -19 54 -6 2 -8 10 -5 19 4 10 2 14 -5 9 -6 -3 -13 -2 -16 3 -4 5 -1 13 5
16 5 4 7 14 4 24 -4 9 -13 40 -21 70 -17 63 -29 87 -37 74z m73 -1416 c0 -18
-2 -19 -10 -7 -13 20 -13 43 0 35 6 -3 10 -16 10 -28z m30 -267 c0 -11 -4 -20
-10 -20 -5 0 -10 9 -10 20 0 11 5 20 10 20 6 0 10 -9 10 -20z m-37 -13 c7 -18
-3 -67 -14 -67 -14 0 -10 50 4 50 6 1 1 7 -13 15 -24 14 -24 14 -4 15 12 0 24
-6 27 -13z m-383 -151 c0 -3 -4 -8 -10 -11 -5 -3 -10 -1 -10 4 0 6 5 11 10 11
6 0 10 -2 10 -4z m320 -6 c0 -5 -4 -10 -10 -10 -5 0 -10 5 -10 10 0 6 5 10 10
10 6 0 10 -4 10 -10z m-40 -26 c0 -2 -7 -4 -15 -4 -8 0 -15 4 -15 10 0 5 7 7
15 4 8 -4 15 -8 15 -10z m-123 0 c-3 -3 -12 -4 -19 -1 -8 3 -5 6 6 6 11 1 17
-2 13 -5z m36 -31 c-7 -2 -19 -2 -25 0 -7 3 -2 5 12 5 14 0 19 -2 13 -5z
m-1103 -93 c0 -5 -4 -10 -10 -10 -5 0 -10 5 -10 10 0 6 5 10 10 10 6 0 10 -4
10 -10z m-190 -30 c0 -5 -4 -10 -10 -10 -5 0 -10 5 -10 10 0 6 5 10 10 10 6 0
10 -4 10 -10z m-102 -60 c13 0 14 -2 3 -12 -11 -10 -14 -10 -18 0 -3 6 -12 12
-21 12 -15 0 -15 2 -2 10 10 6 16 6 18 0 2 -6 11 -10 20 -10z m-2341 -17 c-3
-3 -11 -2 -17 2 -9 6 -9 10 1 16 14 8 27 -7 16 -18z m283 -43 c-20 -13 -40
-13 -40 0 0 6 12 10 28 10 21 0 24 -2 12 -10z m128 1 c9 -5 3 -8 -18 -9 -17 0
-28 4 -25 9 8 11 26 11 43 0z m962 0 c0 -12 -20 -25 -27 -18 -7 7 6 27 18 27
5 0 9 -4 9 -9z m550 -1 c0 -5 -2 -10 -4 -10 -3 0 -8 5 -11 10 -3 6 -1 10 4 10
6 0 11 -4 11 -10z m-525 -20 c3 -5 -1 -10 -10 -10 -9 0 -13 5 -10 10 3 6 8 10
10 10 2 0 7 -4 10 -10z m575 -10 c0 -15 -7 -20 -25 -20 -14 0 -25 4 -25 10 0
5 6 7 14 4 7 -3 16 2 19 10 9 22 17 20 17 -4z m-1380 -10 c0 -5 -4 -10 -10
-10 -5 0 -10 5 -10 10 0 6 5 10 10 10 6 0 10 -4 10 -10z m775 0 c3 -5 -1 -10
-10 -10 -9 0 -13 5 -10 10 3 6 8 10 10 10 2 0 7 -4 10 -10z m218 -6 c9 -4 17
-11 17 -16 0 -5 -6 -7 -12 -4 -7 3 -21 9 -30 12 -10 4 -18 11 -18 16 0 5 6 7
13 4 6 -3 20 -9 30 -12z m307 -14 c0 -5 -2 -10 -4 -10 -3 0 -8 5 -11 10 -3 6
-1 10 4 10 6 0 11 -4 11 -10z m113 -10 c-5 -20 -15 -25 -26 -14 -9 9 4 34 18
34 8 0 11 -8 8 -20z m47 -20 c0 -5 -4 -10 -10 -10 -5 0 -10 5 -10 10 0 6 5 10
10 10 6 0 10 -4 10 -10z m-330 -19 c0 -18 -18 -21 -30 -6 -10 13 -9 15 9 15
11 0 21 -4 21 -9z m-20 -35 c0 -3 -4 -8 -10 -11 -5 -3 -10 -1 -10 4 0 6 5 11
10 11 6 0 10 -2 10 -4z m285 -16 c-3 -5 -13 -10 -21 -10 -8 0 -14 5 -14 10 0
6 9 10 21 10 11 0 17 -4 14 -10z m-225 -10 c0 -5 -5 -10 -11 -10 -5 0 -7 5 -4
10 3 6 8 10 11 10 2 0 4 -4 4 -10z m75 -10 c-3 -5 -10 -10 -16 -10 -5 0 -9 5
-9 10 0 6 7 10 16 10 8 0 12 -4 9 -10z"/>
<path d="M12995 12702 c-16 -10 -35 -22 -42 -29 -7 -6 -26 -14 -42 -18 -16 -3
-35 -13 -42 -21 -6 -8 -20 -14 -30 -14 -11 0 -27 -4 -37 -10 -23 -13 -124 -40
-197 -52 -33 -6 -67 -13 -75 -16 -8 -3 -18 -4 -22 -4 -10 2 -11 -9 -8 -160 2
-127 -4 -174 -40 -323 -50 -205 -65 -427 -34 -515 23 -66 45 -111 71 -146 23
-31 25 -32 100 -29 41 2 78 8 82 14 11 16 187 44 286 45 96 0 258 -30 352 -64
38 -14 59 -17 75 -10 30 12 68 45 68 59 0 6 9 15 20 21 16 9 18 15 10 29 -7
15 -5 22 13 34 18 12 22 24 23 66 0 28 -2 49 -4 46 -3 -2 -21 10 -41 27 -35
31 -36 31 -39 10 -4 -23 -22 -31 -22 -9 0 23 -25 67 -38 67 -7 0 -10 -4 -7
-10 12 -19 -14 -10 -44 16 -17 14 -37 24 -44 21 -8 -3 -13 8 -14 35 -3 40 -20
84 -30 74 -10 -10 -33 31 -27 47 3 8 -1 21 -9 28 -11 10 -12 21 -4 47 7 21 7
36 1 40 -5 4 -8 21 -6 37 2 17 5 53 6 81 2 29 6 56 9 60 3 5 3 29 1 53 -2 24
0 49 4 55 7 9 9 176 3 244 -1 14 -37 16 -46 2 -3 -5 -19 -10 -34 -10 -15 0
-32 -5 -39 -12 -6 -6 -14 -9 -18 -5 -3 3 7 19 24 35 33 33 47 66 35 84 -4 7
-8 24 -8 38 -1 35 -12 49 -35 43 -11 -3 -20 0 -20 6 0 16 -50 12 -85 -7z m292
-1054 c-3 -8 -6 -5 -6 6 -1 11 2 17 5 13 3 -3 4 -12 1 -19z m103 -4 c0 -14 -3
-14 -15 -4 -12 10 -15 9 -15 -5 0 -10 -3 -16 -6 -12 -11 10 4 37 21 37 8 0 15
-7 15 -16z"/>
<path d="M4552 12562 c1 -4 -4 -23 -11 -42 -16 -41 -15 -65 6 -97 18 -27 91
-102 96 -97 1 2 20 -15 42 -37 21 -22 44 -38 52 -35 7 3 13 2 13 -2 0 -11 56
-43 63 -36 3 4 18 -3 34 -14 15 -11 31 -20 35 -21 18 -3 44 -15 57 -25 14 -11
76 -27 174 -46 27 -5 55 -14 63 -21 8 -7 17 -9 21 -6 3 4 12 2 19 -4 8 -6 21
-9 29 -5 8 3 15 1 15 -4 0 -6 13 -10 30 -10 16 0 49 -6 72 -14 24 -8 67 -16
97 -20 30 -3 58 -11 63 -18 6 -10 8 -10 8 0 0 9 7 11 21 7 14 -5 26 0 38 14
10 12 23 21 30 21 6 0 11 4 11 10 0 8 -29 15 -90 23 -8 1 -16 12 -18 23 -3 21
-25 30 -107 48 -16 3 -15 4 5 5 l25 1 -25 14 c-16 8 -29 9 -37 4 -7 -6 -18 -6
-24 -2 -9 5 -7 10 7 15 13 5 7 8 -23 8 -23 1 -44 5 -48 10 -3 6 -40 17 -83 27
-189 41 -211 52 -154 76 25 11 29 16 21 36 -5 13 -18 23 -31 24 -13 0 -29 2
-36 2 -7 1 -17 7 -21 15 -5 7 -14 10 -20 7 -6 -4 -11 -2 -11 4 0 7 -7 10 -15
7 -8 -4 -17 -2 -20 3 -3 5 -29 16 -58 25 -28 10 -97 39 -152 65 -107 51 -166
73 -163 62z m958 -456 c0 -3 -4 -8 -10 -11 -5 -3 -10 -1 -10 4 0 6 5 11 10 11
6 0 10 -2 10 -4z"/>
<path d="M5106 12332 c-7 -12 16 -22 50 -22 15 0 23 4 19 10 -4 6 -16 8 -27 4
-12 -3 -24 -1 -28 6 -5 8 -10 8 -14 2z"/>
<path d="M21106 12245 c-3 -9 -6 -24 -5 -33 0 -9 5 -4 10 12 9 32 6 48 -5 21z"/>
<path d="M5540 12110 c0 -5 5 -10 11 -10 5 0 7 5 4 10 -3 6 -8 10 -11 10 -2 0
-4 -4 -4 -10z"/>
<path d="M11777 12073 c-12 -12 -7 -33 8 -33 17 0 19 9 7 28 -5 7 -11 9 -15 5z"/>
<path d="M5597 12016 c-8 -19 15 -23 103 -18 47 3 68 7 55 12 -11 4 -41 5 -67
3 -30 -2 -48 0 -48 7 0 15 -37 12 -43 -4z"/>
<path d="M11827 11962 c-9 -2 -15 -8 -12 -13 8 -12 45 -12 45 0 0 13 -12 18
-33 13z"/>
<path d="M6365 11930 c-3 -5 1 -10 10 -10 9 0 13 5 10 10 -3 6 -8 10 -10 10
-2 0 -7 -4 -10 -10z"/>
<path d="M11405 11930 c-3 -5 3 -10 15 -10 12 0 18 5 15 10 -3 6 -10 10 -15
10 -5 0 -12 -4 -15 -10z"/>
<path d="M11468 11923 c7 -3 16 -2 19 1 4 3 -2 6 -13 5 -11 0 -14 -3 -6 -6z"/>
<path d="M12072 11921 c-9 -5 -11 -17 -6 -35 6 -26 6 -26 24 -6 18 21 50 27
50 10 0 -5 -9 -10 -20 -10 -11 0 -20 -4 -20 -10 0 -5 9 -10 20 -10 11 0 20 5
20 10 0 6 8 10 17 10 16 0 15 2 -2 19 -24 22 -65 33 -83 22z m28 -5 c0 -3 -4
-8 -10 -11 -5 -3 -10 -1 -10 4 0 6 5 11 10 11 6 0 10 -2 10 -4z"/>
<path d="M12022 11895 c0 -16 2 -22 5 -12 2 9 2 23 0 30 -3 6 -5 -1 -5 -18z"/>
<path d="M6420 11906 c0 -2 7 -6 15 -10 8 -3 15 -1 15 4 0 6 -7 10 -15 10 -8
0 -15 -2 -15 -4z"/>
<path d="M11920 11880 c0 -5 5 -10 11 -10 5 0 7 5 4 10 -3 6 -8 10 -11 10 -2
0 -4 -4 -4 -10z"/>
<path d="M11980 11860 c0 -5 5 -10 10 -10 6 0 10 5 10 10 0 6 -4 10 -10 10 -5
0 -10 -4 -10 -10z"/>
<path d="M11926 11843 c5 -5 12 -12 16 -18 4 -6 8 -2 8 8 0 9 -7 17 -17 17 -9
0 -12 -3 -7 -7z"/>
<path d="M12085 11839 c4 -6 4 -27 0 -47 -4 -20 -10 -31 -12 -24 -3 6 -11 12
-19 12 -8 0 -23 -6 -35 -12 -17 -11 -22 -10 -33 5 -16 21 -26 22 -26 3 0 -8
-6 -17 -12 -20 -7 -3 1 -2 17 1 27 6 29 5 16 -10 -17 -22 -7 -22 30 0 22 13
32 15 37 6 9 -14 92 -35 92 -23 0 4 -7 13 -15 20 -8 6 -14 27 -13 44 1 35 -7
56 -23 56 -6 0 -7 -5 -4 -11z"/>
<path d="M12140 11834 c0 -8 5 -12 10 -9 6 3 10 10 10 16 0 5 -4 9 -10 9 -5 0
-10 -7 -10 -16z"/>
<path d="M8188 11833 c7 -3 16 -2 19 1 4 3 -2 6 -13 5 -11 0 -14 -3 -6 -6z"/>
<path d="M12262 11820 c0 -14 2 -19 5 -12 2 6 2 18 0 25 -3 6 -5 1 -5 -13z"/>
<path d="M8160 11791 c0 -12 5 -21 10 -21 6 0 10 6 10 14 0 8 -4 18 -10 21 -5
3 -10 -3 -10 -14z"/>
<path d="M12000 11795 c0 -8 5 -15 10 -15 6 0 10 7 10 15 0 8 -4 15 -10 15 -5
0 -10 -7 -10 -15z"/>
<path d="M12132 11785 c0 -16 2 -22 5 -12 2 9 2 23 0 30 -3 6 -5 -1 -5 -18z"/>
<path d="M12192 11770 c0 -14 2 -19 5 -12 2 6 2 18 0 25 -3 6 -5 1 -5 -13z"/>
<path d="M13300 11770 c0 -5 5 -10 10 -10 6 0 10 5 10 10 0 6 -4 10 -10 10 -5
0 -10 -4 -10 -10z"/>
<path d="M11835 11750 c-3 -5 -1 -10 4 -10 6 0 11 5 11 10 0 6 -2 10 -4 10 -3
0 -8 -4 -11 -10z"/>
<path d="M13356 11745 c4 -8 11 -15 16 -15 6 0 5 6 -2 15 -7 8 -14 15 -16 15
-2 0 -1 -7 2 -15z"/>
<path d="M11915 11720 c3 -5 8 -10 11 -10 2 0 4 5 4 10 0 6 -5 10 -11 10 -5 0
-7 -4 -4 -10z"/>
<path d="M8520 11710 c0 -5 5 -10 10 -10 6 0 10 5 10 10 0 6 -4 10 -10 10 -5
0 -10 -4 -10 -10z"/>
<path d="M11978 11698 c7 -7 12 -16 12 -20 0 -13 -28 -9 -33 5 -4 9 -7 9 -17
0 -11 -10 -10 -14 3 -19 9 -3 17 -12 17 -20 0 -16 16 -19 25 -4 3 6 13 10 21
10 12 0 12 -3 -1 -24 -15 -23 -15 -23 12 -20 16 2 20 1 11 -2 -10 -3 -18 -10
-18 -15 0 -5 -11 -9 -25 -9 -14 0 -28 -7 -31 -15 -7 -18 -41 -20 -47 -2 -3 9
-8 9 -18 -2 -11 -10 -11 -15 -1 -18 6 -3 12 -12 12 -22 0 -26 24 -71 38 -71 6
0 12 -4 12 -8 0 -4 -17 -7 -37 -5 -21 1 -30 0 -20 -3 22 -7 57 -35 57 -46 0
-5 -9 -8 -20 -8 -10 0 -28 -9 -38 -20 -10 -11 -27 -20 -38 -19 -10 1 -34 1
-53 1 -28 -2 -33 -5 -28 -22 3 -11 1 -23 -4 -26 -5 -3 -9 0 -9 7 0 10 -3 10
-12 1 -10 -10 -10 -15 1 -21 11 -7 10 -13 -8 -32 -21 -23 -23 -23 -35 -6 -17
22 -26 22 -26 -1 0 -9 -13 -29 -29 -44 -29 -28 -44 -28 -34 0 5 12 2 14 -11 9
-10 -4 -22 -7 -27 -7 -16 0 1 -43 25 -62 l21 -18 -22 0 c-13 0 -23 5 -23 10 0
6 -7 10 -16 10 -11 0 -14 -6 -9 -21 6 -19 4 -21 -14 -16 -14 3 -21 0 -21 -10
0 -15 24 -12 66 9 15 7 28 7 40 0 16 -9 13 -12 -21 -28 -22 -9 -47 -17 -55
-18 -10 -1 -14 -10 -12 -29 2 -21 -3 -29 -23 -37 -15 -6 -23 -15 -19 -21 4 -7
-1 -9 -15 -5 -11 3 -30 9 -41 12 -11 3 -20 1 -20 -4 0 -13 -78 -32 -98 -25
-12 5 -14 1 -8 -23 5 -22 4 -25 -4 -14 -9 13 -12 12 -25 -4 -12 -16 -15 -17
-15 -4 0 9 5 18 12 20 7 3 8 10 3 17 -6 11 -10 10 -17 -3 -5 -9 -22 -16 -39
-16 -27 0 -30 -3 -23 -22 7 -23 6 -23 -13 1 -22 27 -48 20 -40 -10 3 -11 0
-19 -6 -19 -7 0 -23 -3 -37 -5 -24 -5 -24 -5 -2 4 13 7 22 19 22 33 0 14 -3
18 -8 11 -5 -8 -21 -9 -50 -3 -33 6 -42 4 -42 -6 0 -9 12 -15 33 -15 30 -2 30
-2 5 -6 -30 -5 -39 -23 -11 -23 9 0 14 -2 11 -5 -3 -4 -18 -3 -33 1 -20 5 -23
9 -13 15 9 6 7 9 -9 9 -16 0 -23 6 -23 19 0 10 -7 21 -15 25 -9 3 -15 0 -15
-9 0 -11 -11 -15 -40 -15 -51 0 -53 -20 -2 -21 20 0 46 -4 57 -9 13 -5 0 -7
-35 -3 -36 3 -50 1 -42 -5 11 -7 11 -10 -2 -15 -11 -5 -17 4 -23 35 -10 49
-30 61 -35 21 -2 -22 -9 -29 -30 -31 -22 -3 -26 0 -21 17 7 26 -4 26 -42 1
-34 -23 -59 -27 -29 -6 14 11 16 18 7 26 -8 9 -20 9 -47 -1 -37 -13 -45 -24
-24 -31 26 -9 -9 -13 -57 -7 -45 5 -46 6 -12 7 36 2 49 15 24 25 -18 7 -67 -3
-67 -14 0 -5 -6 -9 -14 -9 -8 0 -16 -6 -19 -12 -2 -7 -7 -10 -11 -7 -12 11 6
39 26 39 13 0 18 6 16 17 -5 24 -29 28 -35 5 -2 -11 -21 -27 -41 -36 -30 -13
-32 -15 -9 -11 22 4 27 2 27 -15 0 -15 -7 -20 -24 -20 -14 0 -28 5 -31 10 -10
16 -65 12 -65 -5 0 -18 -5 -18 -30 -5 -16 8 -22 6 -36 -16 l-17 -25 -24 27
-23 27 6 -31 c7 -35 -2 -41 -21 -15 -15 21 -38 8 -30 -18 4 -11 2 -19 -5 -19
-7 0 -9 -7 -6 -16 5 -14 0 -15 -36 -12 -24 3 -70 1 -103 -3 -158 -20 -177 -20
-191 -2 -11 15 -16 16 -33 6 -29 -18 -58 -16 -70 5 -9 15 -12 15 -21 2 -17
-26 -12 -29 48 -33 31 -2 2 -4 -64 -5 -67 -1 -137 -4 -155 -7 -26 -4 -30 -3
-14 4 14 7 15 10 5 10 -8 1 -28 -6 -44 -14 -33 -17 -72 -22 -46 -5 9 6 10 10
3 10 -6 0 -14 -4 -17 -9 -3 -4 -88 -11 -188 -15 -101 -4 -214 -10 -253 -13
-123 -11 -1271 -7 -1525 5 -1172 58 -2002 175 -2540 359 -57 19 -64 22 -189
77 -58 25 -106 44 -108 42 -3 -2 47 -29 109 -60 355 -175 1043 -320 1868 -395
681 -62 963 -74 1790 -77 737 -2 931 2 1460 31 586 33 850 56 1483 131 138 16
473 68 542 84 22 5 92 18 155 30 158 29 223 42 238 46 17 5 16 171 -2 204 -72
134 -110 221 -110 257 0 22 -5 33 -14 33 -12 0 -12 3 -2 15 7 9 9 26 5 46 -4
18 -7 49 -7 70 1 21 -4 41 -9 45 -5 3 -7 21 -3 39 7 41 -2 61 -21 45 -9 -8
-15 -8 -20 0 -4 7 -11 5 -21 -5 -16 -15 -59 -12 -78 6 -15 14 -32 11 -18 -3z
m106 -31 c-7 -19 -42 -38 -49 -27 -3 5 7 16 22 24 35 19 33 19 27 3z m29 -30
c6 -15 -29 -41 -43 -32 -5 3 -2 14 8 25 21 22 28 24 35 7z m17 -56 c0 -11 -4
-23 -10 -26 -6 -4 -10 5 -10 19 0 14 5 26 10 26 6 0 10 -9 10 -19z m-130 -61
c0 -5 -8 -10 -19 -10 -10 0 -24 -7 -31 -15 -17 -20 -32 -19 -28 2 3 15 24 24
71 32 4 0 7 -3 7 -9z m80 -5 c0 -8 -4 -15 -10 -15 -5 0 -7 7 -4 15 4 8 8 15
10 15 2 0 4 -7 4 -15z m-47 -72 c-7 -2 -19 -2 -25 0 -7 3 -2 5 12 5 14 0 19
-2 13 -5z m-31 -35 c-6 -6 -15 -8 -19 -4 -4 4 -1 11 7 16 19 12 27 3 12 -12z
m-182 -98 c0 -5 -5 -10 -11 -10 -5 0 -7 5 -4 10 3 6 8 10 11 10 2 0 4 -4 4
-10z m-20 -42 c0 -7 -5 -20 -10 -28 -8 -12 -10 -9 -10 13 0 15 5 27 10 27 6 0
10 -6 10 -12z m170 8 c0 -2 -7 -6 -15 -10 -8 -3 -15 -1 -15 4 0 6 7 10 15 10
8 0 15 -2 15 -4z m-385 -257 c9 -27 -8 -45 -24 -26 -12 15 -5 47 9 47 5 0 12
-9 15 -21z m-722 -166 c-7 -2 -19 -2 -25 0 -7 3 -2 5 12 5 14 0 19 -2 13 -5z
m-454 -39 c-9 -11 -15 -12 -26 -2 -13 10 -12 13 4 19 25 9 36 0 22 -17z m-126
-31 c-7 -2 -19 -2 -25 0 -7 3 -2 5 12 5 14 0 19 -2 13 -5z"/>
<path d="M8825 11690 c-3 -5 1 -10 10 -10 9 0 13 5 10 10 -3 6 -8 10 -10 10
-2 0 -7 -4 -10 -10z"/>
<path d="M8740 11679 c0 -5 5 -7 10 -4 6 3 10 8 10 11 0 2 -4 4 -10 4 -5 0
-10 -5 -10 -11z"/>
<path d="M11768 11683 c7 -3 16 -2 19 1 4 3 -2 6 -13 5 -11 0 -14 -3 -6 -6z"/>
<path d="M9743 11669 c9 -5 17 -17 17 -24 0 -8 5 -15 10 -15 14 0 13 23 -2 38
-7 7 -19 12 -27 12 -13 -1 -13 -2 2 -11z"/>
<path d="M10568 11673 c7 -3 16 -2 19 1 4 3 -2 6 -13 5 -11 0 -14 -3 -6 -6z"/>
<path d="M11702 11660 c0 -14 2 -19 5 -12 2 6 2 18 0 25 -3 6 -5 1 -5 -13z"/>
<path d="M11840 11669 c0 -5 5 -7 10 -4 6 3 10 8 10 11 0 2 -4 4 -10 4 -5 0
-10 -5 -10 -11z"/>
<path d="M9368 11659 c-28 -16 -21 -27 12 -20 17 3 31 11 31 16 0 14 -23 16
-43 4z"/>
<path d="M10440 11632 c0 -35 -3 -42 -20 -42 -11 0 -20 -4 -20 -8 0 -13 74 -8
88 6 11 10 9 12 -9 10 -20 -3 -23 2 -24 29 0 17 -3 35 -7 39 -5 4 -8 -11 -8
-34z"/>
<path d="M10650 11660 c-8 -5 -34 -10 -56 -10 -29 0 -44 -5 -48 -16 -9 -23 -7
-31 7 -37 10 -4 13 2 9 20 -5 25 -4 25 37 18 24 -4 41 -3 41 3 0 5 12 7 26 4
19 -3 25 -1 22 8 -6 18 -20 22 -38 10z"/>
<path d="M9310 11640 c0 -5 5 -10 10 -10 6 0 10 5 10 10 0 6 -4 10 -10 10 -5
0 -10 -4 -10 -10z"/>
<path d="M9450 11640 c0 -5 7 -10 15 -10 8 0 15 5 15 10 0 6 -7 10 -15 10 -8
0 -15 -4 -15 -10z"/>
<path d="M10492 11641 c4 -13 18 -16 19 -4 0 4 -5 9 -11 12 -7 2 -11 -2 -8 -8z"/>
<path d="M11795 11640 c-3 -5 -2 -10 4 -10 5 0 13 5 16 10 3 6 2 10 -4 10 -5
0 -13 -4 -16 -10z"/>
<path d="M11914 11625 c-6 -13 -8 -28 -4 -35 4 -7 10 2 14 21 8 40 4 45 -10
14z"/>
<path d="M10745 11630 c3 -5 8 -10 11 -10 2 0 4 5 4 10 0 6 -5 10 -11 10 -5 0
-7 -4 -4 -10z"/>
<path d="M9415 11610 c-3 -5 3 -10 15 -10 12 0 18 5 15 10 -3 6 -10 10 -15 10
-5 0 -12 -4 -15 -10z"/>
<path d="M11820 11610 c0 -5 5 -10 10 -10 6 0 10 5 10 10 0 6 -4 10 -10 10 -5
0 -10 -4 -10 -10z"/>
<path d="M9347 11604 c-10 -10 20 -34 40 -33 14 0 14 2 3 6 -8 3 -20 11 -26
19 -6 8 -14 11 -17 8z"/>
<path d="M9488 11603 c7 -3 16 -2 19 1 4 3 -2 6 -13 5 -11 0 -14 -3 -6 -6z"/>
<path d="M10640 11599 c0 -5 5 -7 10 -4 6 3 10 8 10 11 0 2 -4 4 -10 4 -5 0
-10 -5 -10 -11z"/>
<path d="M10716 11595 c-9 -26 -7 -32 5 -12 6 10 9 21 6 23 -2 3 -7 -2 -11
-11z"/>
<path d="M9520 11585 c0 -8 5 -15 10 -15 6 0 10 7 10 15 0 8 -4 15 -10 15 -5
0 -10 -7 -10 -15z"/>
<path d="M9591 11595 c-1 -21 14 -34 29 -25 13 8 13 10 -2 10 -9 0 -19 6 -21
13 -3 6 -6 8 -6 2z"/>
<path d="M11840 11581 c-5 -11 -7 -22 -2 -25 4 -2 12 7 19 20 13 28 -2 33 -17
5z"/>
<path d="M11757 11583 c-13 -13 -7 -21 13 -16 11 3 20 9 20 14 0 10 -24 12
-33 2z"/>
<path d="M9440 11570 c0 -5 6 -10 14 -10 8 0 18 5 21 10 3 6 -3 10 -14 10 -12
0 -21 -4 -21 -10z"/>
<path d="M9680 11569 c0 -5 5 -7 10 -4 6 3 10 8 10 11 0 2 -4 4 -10 4 -5 0
-10 -5 -10 -11z"/>
<path d="M13550 11570 c0 -5 5 -10 10 -10 6 0 10 5 10 10 0 6 -4 10 -10 10 -5
0 -10 -4 -10 -10z"/>
<path d="M9280 11559 c0 -5 5 -7 10 -4 6 3 10 8 10 11 0 2 -4 4 -10 4 -5 0
-10 -5 -10 -11z"/>
<path d="M10428 11543 c6 -2 18 -2 25 0 6 3 1 5 -13 5 -14 0 -19 -2 -12 -5z"/>
<path d="M10787 11542 c-3 -4 1 -13 9 -19 7 -7 15 -9 17 -5 3 4 -1 13 -9 19
-7 7 -15 9 -17 5z"/>
<path d="M10546 11524 c-17 -12 -17 -14 -4 -14 9 0 20 5 23 11 11 17 2 18 -19
3z"/>
<path d="M9968 11523 c6 -2 18 -2 25 0 6 3 1 5 -13 5 -14 0 -19 -2 -12 -5z"/>
<path d="M10465 11520 c3 -5 8 -10 11 -10 2 0 4 5 4 10 0 6 -5 10 -11 10 -5 0
-7 -4 -4 -10z"/>
<path d="M10638 11523 c7 -3 16 -2 19 1 4 3 -2 6 -13 5 -11 0 -14 -3 -6 -6z"/>
<path d="M10738 11523 c6 -2 18 -2 25 0 6 3 1 5 -13 5 -14 0 -19 -2 -12 -5z"/>
<path d="M11820 11522 c-15 -5 -12 -31 5 -48 8 -9 15 -11 15 -5 0 6 7 11 15
11 8 0 15 4 15 9 0 5 3 16 6 24 4 11 -1 15 -20 13 -14 0 -30 -2 -36 -4z"/>
<path d="M10385 11510 c3 -5 8 -10 11 -10 2 0 4 5 4 10 0 6 -5 10 -11 10 -5 0
-7 -4 -4 -10z"/>
<path d="M11780 11450 c0 -14 6 -20 23 -19 12 0 16 3 10 6 -7 2 -13 11 -13 19
0 8 -4 14 -10 14 -5 0 -10 -9 -10 -20z"/>
<path d="M10355 11450 c-3 -5 3 -10 15 -10 12 0 18 5 15 10 -3 6 -10 10 -15
10 -5 0 -12 -4 -15 -10z"/>
<path d="M9588 11443 c7 -3 16 -2 19 1 4 3 -2 6 -13 5 -11 0 -14 -3 -6 -6z"/>
<path d="M10460 11440 c-20 -6 -21 -8 -5 -8 11 0 34 4 50 8 27 7 27 8 5 8 -14
0 -36 -4 -50 -8z"/>
<path d="M11848 11433 c7 -3 16 -2 19 1 4 3 -2 6 -13 5 -11 0 -14 -3 -6 -6z"/>
<path d="M11835 11411 l-30 -7 25 -7 c35 -10 90 -9 90 2 0 8 -37 22 -50 20 -3
-1 -18 -4 -35 -8z"/>
<path d="M11746 11397 c-17 -12 -17 -14 -2 -20 10 -4 16 -1 16 7 0 8 6 17 13
19 6 3 7 6 1 6 -5 1 -18 -5 -28 -12z"/>
<path d="M11793 11373 c9 -2 25 -2 35 0 9 3 1 5 -18 5 -19 0 -27 -2 -17 -5z"/>
<path d="M10700 11360 c-13 -8 -12 -10 3 -10 9 0 17 5 17 10 0 12 -1 12 -20 0z"/>
<path d="M10880 11330 c0 -5 5 -10 11 -10 5 0 7 5 4 10 -3 6 -8 10 -11 10 -2
0 -4 -4 -4 -10z"/>
<path d="M11587 11323 c-8 -12 30 -29 40 -19 4 3 -1 6 -9 6 -9 0 -18 5 -20 12
-3 9 -6 9 -11 1z"/>
<path d="M11702 11288 c2 -6 10 -14 16 -16 7 -2 10 2 6 12 -7 18 -28 22 -22 4z"/>
<path d="M11591 11234 c0 -11 3 -14 6 -6 3 7 2 16 -1 19 -3 4 -6 -2 -5 -13z"/>
<path d="M11540 11216 c0 -9 5 -16 10 -16 6 0 10 4 10 9 0 6 -4 13 -10 16 -5
3 -10 -1 -10 -9z"/>
<path d="M10538 10963 c7 -3 16 -2 19 1 4 3 -2 6 -13 5 -11 0 -14 -3 -6 -6z"/>
<path d="M10640 10960 c-42 -10 -5 -22 46 -14 37 5 47 3 59 -12 16 -21 20 -8
5 16 -10 16 -65 21 -110 10z"/>
<path d="M9650 10829 c0 -5 5 -7 10 -4 6 3 10 8 10 11 0 2 -4 4 -10 4 -5 0
-10 -5 -10 -11z"/>
<path d="M9725 10799 c-4 -11 -4 -23 -1 -27 8 -7 36 30 30 40 -9 14 -23 8 -29
-13z"/>
<path d="M10140 10800 c-13 -8 -12 -10 3 -10 9 0 17 5 17 10 0 12 -1 12 -20 0z"/>
<path d="M9550 10790 c0 -5 5 -10 10 -10 6 0 10 5 10 10 0 6 -4 10 -10 10 -5
0 -10 -4 -10 -10z"/>
<path d="M9495 10770 c3 -5 10 -10 16 -10 5 0 9 5 9 10 0 6 -7 10 -16 10 -8 0
-12 -4 -9 -10z"/>
<path d="M9600 10761 c0 -25 6 -27 13 -6 4 8 2 17 -3 20 -6 4 -10 -3 -10 -14z"/>
<path d="M10090 10773 c14 -3 29 -9 35 -14 14 -14 35 -11 35 6 0 11 -11 15
-47 14 -28 -1 -37 -4 -23 -6z"/>
<path d="M9436 10754 c-9 -24 -8 -26 14 -14 11 6 18 15 15 21 -9 14 -22 11
-29 -7z"/>
<path d="M9760 10760 c0 -5 5 -10 10 -10 6 0 10 5 10 10 0 6 -4 10 -10 10 -5
0 -10 -4 -10 -10z"/>
<path d="M9910 10752 c0 -4 17 -6 38 -4 58 5 62 10 10 11 -27 1 -48 -3 -48 -7z"/>
<path d="M9390 10740 c0 -5 5 -10 10 -10 6 0 10 5 10 10 0 6 -4 10 -10 10 -5
0 -10 -4 -10 -10z"/>
<path d="M9575 10730 c-3 -5 -1 -10 4 -10 6 0 11 5 11 10 0 6 -2 10 -4 10 -3
0 -8 -4 -11 -10z"/>
<path d="M23980 10125 c7 -8 17 -15 22 -15 6 0 5 7 -2 15 -7 8 -17 15 -22 15
-6 0 -5 -7 2 -15z"/>
<path d="M24030 10087 c0 -3 12 -12 26 -22 15 -9 23 -12 20 -6 -7 11 -46 35
-46 28z"/>
<path d="M24320 9460 c0 -5 -10 -10 -22 -11 -22 0 -22 -1 -3 -10 15 -7 11 -8
-17 -5 -21 3 -38 2 -38 -2 0 -8 -48 -32 -64 -32 -6 -1 -29 -9 -51 -20 -22 -10
-43 -16 -48 -13 -5 3 -19 -5 -32 -17 -13 -12 -31 -20 -39 -17 -8 3 -20 -1 -26
-9 -17 -19 -64 -19 -57 1 5 12 2 12 -26 0 -18 -7 -47 -19 -65 -26 -24 -9 -30
-14 -20 -21 8 -5 3 -6 -15 -2 -17 4 -34 1 -45 -7 -36 -29 -66 -42 -70 -30 -2
6 -9 8 -15 4 -18 -12 -80 -33 -97 -33 -9 0 -22 -6 -29 -12 -6 -7 -15 -13 -19
-14 -4 0 -21 -3 -38 -7 -17 -5 -62 -12 -100 -17 -38 -4 -109 -18 -159 -30
-105 -25 -219 -49 -255 -55 -147 -22 -179 -29 -175 -35 3 -5 -4 -6 -16 -3 -11
3 -44 1 -72 -5 -29 -6 -69 -14 -90 -17 -20 -3 -43 -12 -49 -19 -9 -10 -17 -10
-29 -3 -12 8 -47 6 -121 -6 -56 -9 -157 -22 -223 -28 -84 -9 -124 -17 -132
-28 -8 -9 -13 -10 -13 -3 0 7 -12 12 -27 11 -21 0 -23 -2 -11 -7 10 -4 -20 -7
-65 -7 -45 0 -210 -10 -367 -23 -309 -25 -336 -27 -635 -41 -295 -14 -427 -16
-997 -14 -394 1 -516 -2 -512 -11 5 -12 96 -13 127 -1 10 4 17 3 17 -5 0 -8
14 -9 48 -5 34 5 43 4 32 -4 -13 -9 -13 -11 2 -11 9 0 20 5 23 10 3 6 18 10
33 10 22 0 24 -2 12 -11 -12 -8 -9 -9 10 -4 57 14 95 17 80 6 -13 -9 -13 -11
3 -11 9 0 17 5 17 11 0 5 5 7 11 3 15 -9 150 -11 156 -2 2 5 14 8 26 7 21 0
21 -1 2 -9 -17 -7 -15 -9 12 -9 17 -1 33 4 35 11 3 7 9 8 18 3 25 -15 123 -17
132 -3 6 10 8 10 8 -1 0 -10 9 -12 34 -7 20 4 37 2 41 -3 7 -13 67 -2 77 13 5
7 8 3 9 -9 0 -11 2 -15 5 -10 3 8 119 12 144 5 16 -5 107 3 127 11 13 5 23 5
23 0 0 -5 -7 -12 -16 -15 -9 -4 -14 -9 -11 -13 4 -3 12 -1 19 4 19 15 68 25
68 14 0 -6 12 -6 31 1 36 13 52 2 25 -18 -19 -14 -19 -14 2 -14 11 0 25 6 29
14 4 8 20 17 35 21 23 6 26 4 21 -14 -4 -15 -1 -21 11 -21 9 0 16 8 16 19 0
22 22 29 73 23 23 -2 37 -9 37 -18 0 -20 15 -17 31 6 14 19 37 24 96 22 25 -2
31 -6 28 -19 -2 -13 4 -18 24 -19 14 -1 20 1 14 3 -18 6 -16 33 1 33 8 0 23 3
33 6 15 6 16 4 6 -7 -7 -7 -13 -15 -13 -19 0 -4 113 -6 179 -1 20 1 21 3 11
16 -10 12 -10 15 4 15 25 0 31 -4 28 -17 -2 -8 6 -12 21 -11 16 1 23 7 20 15
-3 7 0 13 6 13 6 0 11 -4 11 -10 0 -16 47 -12 54 5 3 8 13 15 22 15 14 0 14
-2 3 -16 -12 -14 -8 -15 41 -10 30 3 91 8 135 11 44 3 103 8 130 12 28 3 58 7
68 8 9 1 24 10 33 21 15 18 15 18 10 0 -7 -21 -3 -21 208 4 49 6 107 13 130
15 146 17 176 26 176 52 0 7 4 13 10 13 5 0 7 -7 4 -15 -4 -10 0 -15 15 -15
12 0 24 6 27 14 3 8 13 17 21 20 12 5 13 4 5 -7 -7 -8 -10 -16 -7 -19 5 -5
180 19 205 28 8 3 38 8 65 10 66 6 279 42 330 56 22 5 51 12 65 14 88 14 88
14 83 34 -4 15 0 20 14 20 10 0 24 5 30 11 6 6 37 16 69 23 95 21 157 38 194
52 19 8 49 16 65 17 17 2 45 11 64 19 30 13 37 14 49 2 16 -16 28 -18 37 -4 4
6 -1 7 -11 3 -11 -4 -15 -2 -12 7 2 8 24 14 58 15 89 3 219 53 228 87 3 13 7
16 12 8 8 -13 60 -3 60 11 0 5 7 9 16 9 29 0 79 51 80 81 1 16 0 29 -2 29 -2
0 -4 -4 -4 -10z m-320 -190 c0 -5 -4 -10 -10 -10 -5 0 -10 5 -10 10 0 6 5 10
10 10 6 0 10 -4 10 -10z m-730 -184 c0 -3 -4 -8 -10 -11 -5 -3 -10 -1 -10 4 0
6 5 11 10 11 6 0 10 -2 10 -4z m-35 -16 c-3 -5 -13 -10 -21 -10 -8 0 -14 5
-14 10 0 6 9 10 21 10 11 0 17 -4 14 -10z m-58 -16 c-3 -3 -12 -4 -19 -1 -8 3
-5 6 6 6 11 1 17 -2 13 -5z m-90 -10 c-3 -3 -12 -4 -19 -1 -8 3 -5 6 6 6 11 1
17 -2 13 -5z m-321 -59 c-11 -8 -22 -12 -25 -9 -6 6 19 24 34 24 6 -1 1 -7 -9
-15z m-66 -9 c0 -3 -4 -8 -10 -11 -5 -3 -10 -1 -10 4 0 6 5 11 10 11 6 0 10
-2 10 -4z m-196 -31 c-4 -8 -13 -15 -21 -15 -13 0 -13 3 -3 15 7 8 16 15 21
15 5 0 6 -7 3 -15z m-404 -15 c0 -5 -4 -10 -10 -10 -5 0 -10 5 -10 10 0 6 5
10 10 10 6 0 10 -4 10 -10z m350 1 c0 -10 -30 -24 -37 -17 -3 3 -2 9 2 15 8
13 35 15 35 2z m-140 -15 c0 -11 -19 -15 -25 -6 -3 5 1 10 9 10 9 0 16 -2 16
-4z m-330 -40 c0 -11 -19 -15 -25 -6 -3 5 1 10 9 10 9 0 16 -2 16 -4z m-85
-16 c-3 -5 -10 -10 -16 -10 -5 0 -9 5 -9 10 0 6 7 10 16 10 8 0 12 -4 9 -10z
m-555 -30 c0 -5 -6 -10 -14 -10 -8 0 -18 5 -21 10 -3 6 3 10 14 10 12 0 21 -4
21 -10z m74 -5 c-25 -19 -34 -19 -34 0 0 10 10 15 27 15 26 0 26 -1 7 -15z
m-1064 1 c0 -2 -7 -6 -15 -10 -8 -3 -15 -1 -15 4 0 6 7 10 15 10 8 0 15 -2 15
-4z"/>
<path d="M24174 9446 c-10 -8 -17 -16 -14 -19 3 -2 14 4 24 14 23 22 18 25
-10 5z"/>
<path d="M24127 9434 c-8 -8 3 -34 14 -34 5 0 9 9 9 20 0 19 -11 26 -23 14z"/>
<path d="M24060 9390 c0 -5 5 -10 10 -10 6 0 10 5 10 10 0 6 -4 10 -10 10 -5
0 -10 -4 -10 -10z"/>
<path d="M23795 9180 c-3 -5 -2 -10 4 -10 5 0 13 5 16 10 3 6 2 10 -4 10 -5 0
-13 -4 -16 -10z"/>
<path d="M23508 9113 c6 -2 18 -2 25 0 6 3 1 5 -13 5 -14 0 -19 -2 -12 -5z"/>
<path d="M23445 9090 c-3 -5 1 -10 9 -10 9 0 16 5 16 10 0 6 -4 10 -9 10 -6 0
-13 -4 -16 -10z"/>
<path d="M23395 9080 c-3 -5 1 -10 10 -10 9 0 13 5 10 10 -3 6 -8 10 -10 10
-2 0 -7 -4 -10 -10z"/>
<path d="M23555 8960 c-19 -8 -19 -9 2 -9 12 -1 25 4 28 9 7 12 -2 12 -30 0z"/>
<path d="M23338 8922 c-76 -14 -138 -29 -138 -33 0 -9 51 -3 125 15 33 9 71
16 85 16 14 1 39 7 55 15 40 18 33 17 -127 -13z"/>
<path d="M17888 8913 c6 -2 18 -2 25 0 6 3 1 5 -13 5 -14 0 -19 -2 -12 -5z"/>
<path d="M17948 8913 c7 -3 16 -2 19 1 4 3 -2 6 -13 5 -11 0 -14 -3 -6 -6z"/>
<path d="M18028 8903 c7 -3 16 -2 19 1 4 3 -2 6 -13 5 -11 0 -14 -3 -6 -6z"/>
<path d="M18108 8903 c7 -3 16 -2 19 1 4 3 -2 6 -13 5 -11 0 -14 -3 -6 -6z"/>
<path d="M18168 8893 c6 -2 18 -2 25 0 6 3 1 5 -13 5 -14 0 -19 -2 -12 -5z"/>
<path d="M18248 8893 c6 -2 18 -2 25 0 6 3 1 5 -13 5 -14 0 -19 -2 -12 -5z"/>
<path d="M18400 8881 c0 -4 11 -6 25 -3 14 2 25 6 25 8 0 2 -11 4 -25 4 -14 0
-25 -4 -25 -9z"/>
<path d="M23140 8880 c0 -5 6 -10 14 -10 8 0 18 5 21 10 3 6 -3 10 -14 10 -12
0 -21 -4 -21 -10z"/>
<path d="M18620 8870 c-12 -8 -10 -9 7 -7 12 2 26 6 29 10 11 11 -19 8 -36 -3z"/>
<path d="M23095 8870 c-3 -5 1 -10 9 -10 9 0 16 5 16 10 0 6 -4 10 -9 10 -6 0
-13 -4 -16 -10z"/>
<path d="M18680 8860 c0 -6 11 -8 28 -4 39 10 40 14 4 14 -18 0 -32 -5 -32
-10z"/>
<path d="M18756 8860 c6 -6 21 -6 39 -1 30 9 30 9 -9 10 -26 1 -37 -2 -30 -9z"/>
<path d="M18837 8863 c-13 -13 -7 -21 13 -16 11 3 20 9 20 14 0 10 -24 12 -33
2z"/>
<path d="M23020 8863 c-48 -7 -57 -13 -37 -24 12 -7 22 -7 30 -1 7 5 21 12 32
14 28 5 5 15 -25 11z"/>
<path d="M18916 8851 c-3 -4 6 -6 19 -3 14 2 25 6 25 8 0 8 -39 4 -44 -5z"/>
<path d="M18993 8853 c9 -2 23 -2 30 0 6 3 -1 5 -18 5 -16 0 -22 -2 -12 -5z"/>
<path d="M19130 8849 c28 -5 48 -5 54 1 7 7 -9 10 -44 9 l-55 -1 45 -9z"/>
<path d="M19204 8852 c4 -7 23 -12 42 -12 19 0 34 -5 34 -11 0 -8 4 -8 14 0 7
6 34 10 60 10 25 -1 49 1 53 4 3 4 -28 7 -69 7 -42 0 -90 3 -108 7 -24 4 -31
3 -26 -5z"/>
<path d="M23223 8853 c-21 -8 -15 -22 7 -16 11 3 20 9 20 14 0 10 -8 10 -27 2z"/>
<path d="M22893 8843 c-18 -2 -33 -8 -33 -13 0 -7 22 -8 78 -1 7 0 10 6 7 11
-3 6 -9 9 -13 8 -4 0 -22 -3 -39 -5z"/>
<path d="M23125 8833 c-44 -4 -149 -33 -142 -39 2 -3 30 2 63 11 32 8 70 15
84 15 14 0 32 5 40 10 8 5 11 9 5 8 -5 -1 -28 -3 -50 -5z"/>
<path d="M22808 8823 c7 -3 16 -2 19 1 4 3 -2 6 -13 5 -11 0 -14 -3 -6 -6z"/>
<path d="M21125 8810 c-3 -5 3 -10 14 -10 12 0 21 5 21 10 0 6 -6 10 -14 10
-8 0 -18 -4 -21 -10z"/>
<path d="M22655 8809 c-22 -5 -69 -12 -105 -15 -36 -3 -67 -9 -70 -12 -3 -4
-32 -9 -65 -10 -33 -2 -66 -9 -74 -15 -10 -9 -15 -9 -18 -1 -3 8 -18 9 -51 2
-26 -5 -65 -10 -87 -12 -106 -11 -171 -19 -178 -23 -4 -3 -49 -7 -100 -10 -93
-5 -148 -9 -157 -11 -3 -1 -55 -4 -114 -7 -67 -3 -112 -9 -117 -16 -3 -6 -8
-7 -10 -2 -3 6 -75 5 -194 -3 -526 -35 -1566 -47 -2230 -25 -165 5 -302 8
-304 5 -2 -2 19 -4 47 -4 29 0 52 -4 52 -9 0 -4 12 -6 26 -3 19 3 25 1 20 -7
-6 -9 0 -10 21 -4 15 4 44 7 63 7 19 -1 110 -3 203 -4 92 -2 167 -7 167 -12 0
-4 7 -8 15 -8 8 0 15 5 15 10 0 6 14 10 31 10 20 0 28 -4 23 -11 -7 -12 20 -8
62 8 12 4 15 3 10 -5 -10 -16 18 -15 45 1 16 9 23 9 26 0 3 -7 27 -10 75 -7
38 3 95 0 125 -5 39 -8 59 -7 73 1 14 9 22 9 33 0 11 -9 22 -10 42 -2 17 6 31
7 34 2 6 -10 103 -8 120 2 6 4 20 1 31 -6 18 -11 23 -10 34 5 13 17 51 14 40
-4 -7 -12 10 -11 41 3 21 10 28 9 35 -2 7 -11 14 -12 35 -2 33 15 56 16 35 1
-12 -8 -8 -9 15 -6 17 3 41 8 55 12 17 5 21 4 11 -3 -9 -7 -10 -11 -2 -17 7
-4 18 -1 26 5 15 13 78 15 173 5 41 -4 68 -3 77 5 9 8 15 8 20 0 4 -6 16 -8
28 -4 12 4 35 7 50 6 16 0 39 3 52 8 12 5 26 5 31 0 5 -4 38 -4 73 0 35 5 70
6 77 3 7 -3 19 -1 26 3 6 4 62 9 123 10 60 2 144 5 185 8 190 14 277 11 228
-7 -28 -10 0 -14 51 -7 34 4 57 13 63 23 10 20 40 23 33 5 -3 -8 5 -14 21 -15
20 -1 23 1 13 8 -12 8 -12 10 1 19 20 13 50 13 50 0 0 -5 -7 -10 -16 -10 -8 0
-12 -4 -9 -10 10 -15 25 -12 32 8 13 35 59 47 48 12 -3 -11 -4 -20 -2 -20 2 0
14 9 27 20 13 11 30 20 39 20 14 -1 14 -2 -1 -14 -10 -7 -16 -15 -13 -18 4 -4
171 11 290 26 86 11 198 26 240 31 22 3 51 7 66 8 14 2 30 6 36 10 6 4 17 5
25 2 16 -6 29 3 44 30 7 11 20 19 31 18 10 -1 24 7 31 17 14 23 11 23 -53 9z
m-30 -49 c-3 -5 -13 -10 -21 -10 -8 0 -14 5 -14 10 0 6 9 10 21 10 11 0 17 -4
14 -10z m-60 -10 c-3 -5 -10 -10 -16 -10 -5 0 -9 5 -9 10 0 6 7 10 16 10 8 0
12 -4 9 -10z m-382 -27 c-7 -2 -19 -2 -25 0 -7 3 -2 5 12 5 14 0 19 -2 13 -5z
m112 -12 c-3 -6 -11 -11 -17 -11 -6 0 -6 6 2 15 14 17 26 13 15 -4z m-197 -9
c-10 -2 -18 -8 -18 -13 0 -5 -5 -9 -11 -9 -8 0 -9 4 0 13 6 8 8 16 5 20 -3 3
5 3 18 -1 18 -5 19 -7 6 -10z m122 3 c-7 -8 -17 -15 -22 -15 -6 0 -5 7 2 15 7
8 17 15 22 15 6 0 5 -7 -2 -15z m-189 -28 c-5 -5 -19 -7 -32 -4 l-24 4 23 8
c12 4 22 12 22 19 0 6 5 4 10 -4 5 -8 5 -19 1 -23z m-346 -17 c-3 -5 -16 -10
-28 -9 -20 1 -20 2 3 9 14 4 26 8 28 9 2 1 0 -3 -3 -9z"/>
<path d="M22730 8810 c0 -13 11 -13 30 0 12 8 11 10 -7 10 -13 0 -23 -4 -23
-10z"/>
<path d="M20970 8800 c-12 -8 -11 -10 8 -10 12 0 22 5 22 10 0 13 -11 13 -30
0z"/>
<path d="M22864 8797 c-9 -5 -21 -6 -29 -3 -7 2 -19 -2 -26 -10 -6 -8 -23 -14
-38 -14 -62 -1 -71 -2 -76 -11 -8 -12 41 -11 90 2 22 6 56 13 75 14 19 2 37 4
40 5 3 1 14 1 26 1 11 -1 26 5 33 13 10 12 6 14 -34 13 -26 -1 -53 -6 -61 -10z"/>
<path d="M20438 8773 c7 -3 16 -2 19 1 4 3 -2 6 -13 5 -11 0 -14 -3 -6 -6z"/>
<path d="M18328 8673 c7 -3 16 -2 19 1 4 3 -2 6 -13 5 -11 0 -14 -3 -6 -6z"/>
<path d="M18488 8663 c7 -3 16 -2 19 1 4 3 -2 6 -13 5 -11 0 -14 -3 -6 -6z"/>
<path d="M18522 8665 c3 -3 38 -7 79 -9 47 -2 63 -1 44 4 -34 9 -131 13 -123
5z"/>
<path d="M18708 8653 c12 -2 32 -2 45 0 12 2 2 4 -23 4 -25 0 -35 -2 -22 -4z"/>
<path d="M22697 8639 c7 -7 15 -10 18 -7 3 3 -2 9 -12 12 -14 6 -15 5 -6 -5z"/>
<path d="M21538 8633 c7 -3 16 -2 19 1 4 3 -2 6 -13 5 -11 0 -14 -3 -6 -6z"/>
<path d="M21468 8623 c6 -2 18 -2 25 0 6 3 1 5 -13 5 -14 0 -19 -2 -12 -5z"/>
<path d="M22495 8620 c-15 -7 -10 -9 23 -9 23 -1 42 4 42 9 0 12 -37 12 -65 0z"/>
<path d="M22618 8623 c7 -3 16 -2 19 1 4 3 -2 6 -13 5 -11 0 -14 -3 -6 -6z"/>
<path d="M22305 8602 c-2 -2 -36 -7 -76 -10 -40 -4 -74 -12 -76 -19 -3 -8 7
-9 34 -3 21 5 82 12 136 15 107 8 149 28 47 23 -34 -2 -63 -5 -65 -6z"/>
<path d="M20580 8580 c-12 -8 -11 -10 8 -10 12 0 22 5 22 10 0 13 -11 13 -30
0z"/>
<path d="M20803 8583 c9 -2 25 -2 35 0 9 3 1 5 -18 5 -19 0 -27 -2 -17 -5z"/>
<path d="M20250 8570 c-34 -7 -34 -7 12 -9 26 0 50 4 53 9 7 11 -12 11 -65 0z"/>
<path d="M20408 8573 c7 -3 16 -2 19 1 4 3 -2 6 -13 5 -11 0 -14 -3 -6 -6z"/>
<path d="M22046 8572 c-4 -3 -51 -8 -104 -10 -172 -5 -190 -7 -185 -14 6 -11
-5 -10 -26 2 -12 6 -29 6 -47 0 -16 -5 -42 -12 -58 -15 -65 -13 -10 -15 125
-4 79 6 154 11 166 11 13 0 20 4 17 10 -4 6 10 7 37 3 46 -6 111 6 92 18 -5 3
-13 3 -17 -1z"/>
<path d="M21440 8521 c0 -6 28 -10 71 -10 39 0 69 3 66 6 -11 11 -137 15 -137
4z"/>
<path d="M20995 8501 c-7 -12 12 -24 25 -16 11 7 4 25 -10 25 -5 0 -11 -4 -15
-9z"/>
<path d="M21368 8503 c6 -2 18 -2 25 0 6 3 1 5 -13 5 -14 0 -19 -2 -12 -5z"/>
<path d="M21138 8493 c12 -2 32 -2 45 0 12 2 2 4 -23 4 -25 0 -35 -2 -22 -4z"/>
<path d="M20557 8478 c2 -5 32 -8 65 -8 34 0 59 3 56 6 -9 8 -127 10 -121 2z"/>
<path d="M20820 8480 c-12 -8 -10 -10 8 -10 13 0 20 4 17 10 -7 12 -6 12 -25
0z"/>
<path d="M20260 8470 l-195 -6 200 -1 c110 -1 218 2 240 6 l40 9 -45 -1 c-25
-1 -133 -4 -240 -7z"/>
<path d="M20713 8473 c9 -2 23 -2 30 0 6 3 -1 5 -18 5 -16 0 -22 -2 -12 -5z"/>
<path d="M19928 8463 c7 -3 16 -2 19 1 4 3 -2 6 -13 5 -11 0 -14 -3 -6 -6z"/>
</g>
</svg>
