<svg width="181" height="88" viewBox="0 0 181 88" fill="none" xmlns="http://www.w3.org/2000/svg">
<g clip-path="url(#clip0_385_339)">
<path d="M45.7666 41.1328C47.3382 40.7825 49.5251 51.6011 50.4463 53.4834C50.7373 54.895 51.4717 55.2542 52.2949 53.9053C55.4821 49.3282 53.9168 50.9415 59.418 53.1143C64.6364 55.4872 69.8738 57.8192 75.1172 60.1338C75.1843 60.1636 75.2468 60.1922 75.3057 60.2188V79.2383C71.0044 78.761 66.7052 78.2942 62.4141 77.8496L62.4199 77.8389C59.6652 77.5136 56.8481 77.5433 54.2285 76.4883C51.5757 75.2518 48.869 74.1354 46.1787 72.9844C44.7152 72.6862 45.8124 70.039 44 70.6807C37.7545 72.6554 31.5437 74.7388 25.3252 76.7969C24.7391 77.0011 24.1509 77.0966 23.5586 76.8633C16.0803 74.4799 8.39366 72.5076 1.07129 69.751C14.8221 65.0321 28.6935 60.6321 42.4609 55.957C43.6709 55.2585 49.521 54.593 48.7871 52.8623C47.8578 48.938 46.5795 45.0717 45.7666 41.1328ZM159.285 3.30078C161.99 3.47802 165.059 4.38109 167.88 4.83984C180.071 7.68195 177.886 4.26857 178.312 12.9404H178.311C178.312 29.0773 178.31 45.2133 178.32 61.3496H159.229C159.197 42.004 159.336 22.6394 159.285 3.30078ZM140.975 22.4932C142.088 35.4353 142.194 48.3883 142.331 61.3496H133.647C136.098 48.4062 138.745 35.4781 140.86 22.4854C140.898 22.4874 140.937 22.4911 140.975 22.4932ZM107.398 7.47949C107.047 6.53308 111.281 7.49386 111.968 7.40234C112.388 7.43779 112.835 7.47529 113.264 7.51074C113.684 7.54618 114.13 7.5837 114.559 7.61914C120.349 8.21968 126.264 8.71392 132.022 9.16016C131.785 10.4843 131.559 11.8107 131.312 13.1348H131.31C128.159 29.1616 125.568 45.3087 122.509 61.3496H119.579C116.494 48.1757 113.769 34.9094 110.583 21.7588C109.5 17.0047 108.419 12.2482 107.398 7.47949ZM100.178 25.1475C103.137 37.11 105.569 49.2518 108.146 61.3496H101.6L100.964 61.2891L100.178 25.1475ZM100.767 54.6973C100.835 56.6073 100.829 58.5382 100.945 60.4336L100.943 60.4326C100.944 60.4337 100.945 60.4345 100.945 60.4355C100.918 60.4251 100.893 60.4167 100.866 60.4062V60.4043L100.767 54.6973ZM74.3057 0C63.7524 13.6227 53.1183 27.202 42.459 40.7393C38.0181 43.0497 32.7825 43.8772 28.0859 45.708C22.3396 47.5242 16.7575 49.9474 10.9404 51.4717C8.23973 39.2836 5.66768 27.114 3.06055 14.9092V14.9072C2.02102 10.1342 1.12684 5.32544 0 0.573242C0.0290544 0.544102 0.0588362 0.515469 0.0878906 0.486328C6.37691 5.07376 12.1094 10.5262 18.1572 15.4639C19.5438 16.6773 21.3833 17.6222 21.8408 19.5527C23.134 23.6919 23.3672 28.4485 26.0596 31.9746C30.7664 28.0523 34.1868 22.5576 38.3428 18.0098C40.6546 15.247 42.9765 12.4944 45.2842 9.72949C45.7186 9.21036 46.2529 8.88059 46.8848 8.68457C56.0429 5.96129 65.0768 2.19366 74.3057 0ZM77.626 18.1934C77.549 23.9819 77.1838 30.0918 76.9551 35.8721C76.9489 35.8555 76.9447 35.8407 76.9385 35.8262C76.7243 39.1854 76.6237 42.5529 76.4199 45.9268C71.7569 44.6255 67.5323 41.738 63.0459 39.8447C62.522 39.5924 62.4827 39.4792 62.8174 38.9912C67.6115 32.2395 72.3328 25.4314 77.1104 18.665V18.667C77.2392 18.4856 77.3911 18.3206 77.626 18.1934Z" fill="#CD2E37"/>
<path d="M84.4549 70.4766V79.09H80.1618V70.4766H78.6191V66.8844H80.1618V65.0535C80.1618 64.0388 80.2573 63.2295 80.4464 62.6273C80.6043 62.1191 80.8577 61.6474 81.2065 61.2106C81.5535 60.7755 81.9613 60.3978 82.4281 60.081C82.8949 59.7643 83.3964 59.5189 83.9343 59.3431C84.4723 59.1691 85.0015 59.082 85.5238 59.082C85.8883 59.082 86.2232 59.1221 86.532 59.2004C86.8409 59.2787 87.1515 59.3901 87.4691 59.5328V63.2921C87.1845 63.1494 86.919 63.0415 86.6743 62.9719C86.4297 62.9005 86.1728 62.864 85.9039 62.864C85.7303 62.864 85.5516 62.8918 85.3694 62.9475C85.1872 63.0032 85.0171 63.1181 84.8592 63.2921C84.7013 63.4662 84.5937 63.7168 84.5382 64.0405C84.4827 64.366 84.4549 64.8063 84.4549 65.3615V66.8844H87.4674V70.4766H84.4549Z" fill="#C0C5D8"/>
<path d="M92.1876 66.8848V73.7612C92.1876 75.2684 92.9147 76.022 94.3706 76.022C95.8265 76.022 96.5536 75.2684 96.5536 73.7612V66.8848H100.847V74.5931C100.847 76.2431 100.305 77.4805 99.2225 78.3055C98.1397 79.1304 96.5224 79.5429 94.3706 79.5429C92.2189 79.5429 90.6033 79.1304 89.5188 78.3055C88.4359 77.4805 87.8945 76.2431 87.8945 74.5931V66.8848H92.1876Z" fill="#C0C5D8"/>
<path d="M102.578 66.8839H106.871V68.8819C107.329 68.1527 107.892 67.594 108.556 67.2041C109.221 66.816 109.995 66.6211 110.881 66.6211H111.249C111.383 66.6211 111.537 66.6368 111.713 66.6681V70.7842C111.143 70.4988 110.527 70.3561 109.863 70.3561C108.867 70.3561 108.119 70.6537 107.621 71.2489C107.123 71.8441 106.873 72.7126 106.873 73.8543V79.0895H102.58V66.8839H102.578Z" fill="#C0C5D8"/>
<path d="M112.445 66.8841H116.738V68.4314C117.323 67.7178 117.917 67.2374 118.517 66.992C119.117 66.7466 119.822 66.623 120.629 66.623C121.483 66.623 122.215 66.7623 122.824 67.039C123.433 67.3157 123.95 67.7091 124.377 68.2155C124.724 68.628 124.962 69.0875 125.089 69.5957C125.215 70.1039 125.278 70.6817 125.278 71.3327V79.0898H120.985V72.9269C120.985 72.3247 120.941 71.8374 120.855 71.4632C120.768 71.0907 120.613 70.7931 120.391 70.5721C120.202 70.3806 119.989 70.2466 119.751 70.1683C119.513 70.09 119.26 70.05 118.993 70.05C118.265 70.05 117.707 70.2675 117.32 70.7044C116.933 71.1412 116.738 71.7625 116.738 72.5718V79.0915H112.445V66.8859V66.8841Z" fill="#C0C5D8"/>
<path d="M126.727 62.1976C126.727 61.8635 126.789 61.5519 126.916 61.2578C127.042 60.9637 127.216 60.7061 127.438 60.4851C127.66 60.2623 127.917 60.0882 128.208 59.9612C128.502 59.8341 128.814 59.7715 129.146 59.7715C129.477 59.7715 129.789 59.8359 130.083 59.9612C130.376 60.0882 130.633 60.2623 130.853 60.4851C131.075 60.7078 131.249 60.9654 131.375 61.2578C131.502 61.5519 131.565 61.8635 131.565 62.1976C131.565 62.5318 131.5 62.8433 131.375 63.1375C131.249 63.4316 131.075 63.6892 130.853 63.9102C130.631 64.1313 130.374 64.3071 130.083 64.4341C129.789 64.5612 129.477 64.6256 129.146 64.6256C128.814 64.6256 128.502 64.5612 128.208 64.4341C127.915 64.3071 127.658 64.133 127.438 63.9102C127.216 63.6875 127.042 63.4316 126.916 63.1375C126.789 62.8433 126.727 62.5301 126.727 62.1976ZM131.304 66.8846V79.0903H127.011V66.8846H131.304Z" fill="#C0C5D8"/>
<path d="M137.851 70.4766V79.09H133.558V70.4766H132.135V66.8843H133.558V63.2207H137.851V66.8843H140.294V70.4766H137.851Z" fill="#C0C5D8"/>
<path d="M145.014 66.8848V73.7612C145.014 75.2684 145.741 76.022 147.197 76.022C148.653 76.022 149.38 75.2684 149.38 73.7612V66.8848H153.673V74.5931C153.673 76.2431 153.131 77.4805 152.049 78.3055C150.966 79.1304 149.349 79.5429 147.197 79.5429C145.045 79.5429 143.429 79.1304 142.345 78.3055C141.262 77.4805 140.721 76.2431 140.721 74.5931V66.8848H145.014Z" fill="#C0C5D8"/>
<path d="M155.404 66.8839H159.697V68.8819C160.156 68.1527 160.718 67.594 161.382 67.2041C162.047 66.816 162.821 66.6211 163.708 66.6211H164.076C164.209 66.6211 164.364 66.6368 164.539 66.6681V70.7842C163.97 70.4988 163.354 70.3561 162.689 70.3561C161.693 70.3561 160.945 70.6537 160.447 71.2489C159.949 71.8441 159.699 72.7126 159.699 73.8543V79.0895H155.406V66.8839H155.404Z" fill="#C0C5D8"/>
<path d="M169.281 73.7121C169.281 75.5674 170.151 76.4968 171.891 76.4968C172.825 76.4968 173.527 76.1156 174.003 75.355H178.154C177.316 78.1467 175.219 79.5425 171.867 79.5425C170.838 79.5425 169.897 79.3876 169.043 79.0796C168.19 78.7698 167.457 78.3294 166.848 77.7586C166.239 77.1877 165.769 76.5055 165.437 75.7118C165.106 74.9182 164.939 74.0306 164.939 73.0472C164.939 72.0639 165.097 71.1171 165.413 70.2991C165.729 69.4828 166.18 68.7884 166.765 68.2175C167.35 67.6467 168.058 67.2063 168.887 66.8983C169.718 66.5885 170.655 66.4336 171.698 66.4336C172.741 66.4336 173.651 66.5885 174.473 66.8983C175.296 67.2081 175.991 67.6554 176.561 68.2419C177.13 68.8284 177.565 69.5472 177.866 70.3948C178.166 71.2441 178.317 72.1996 178.317 73.2613V73.7138H169.279L169.281 73.7121ZM174.312 71.2146C174.169 70.6124 173.876 70.1285 173.434 69.763C172.991 69.3975 172.453 69.2165 171.82 69.2165C171.155 69.2165 170.614 69.3906 170.196 69.7404C169.776 70.0902 169.512 70.581 169.401 71.2146H174.312Z" fill="#C0C5D8"/>
</g>
<defs>
<clipPath id="clip0_385_339">
<rect width="180.622" height="87.4667" fill="white"/>
</clipPath>
</defs>
</svg>
