<?xml version="1.0" standalone="no"?>
<!DOCTYPE svg PUBLIC "-//W3C//DTD SVG 20010904//EN"
 "http://www.w3.org/TR/2001/REC-SVG-20010904/DTD/svg10.dtd">
<svg version="1.0" xmlns="http://www.w3.org/2000/svg"
 width="2832.000000pt" height="4240.000000pt" viewBox="0 0 2832.000000 4240.000000"
 preserveAspectRatio="xMidYMid meet">

<g transform="translate(0.000000,4240.000000) scale(0.100000,-0.100000)"
fill="#000000" stroke="none">
<path d="M16808 40543 c-8 -19 -12 -120 -13 -294 -1 -146 -6 -272 -11 -280
-14 -23 -16 -700 -1 -728 9 -19 9 -25 0 -28 -9 -3 -12 -116 -13 -470 0 -255
-3 -476 -6 -490 -4 -15 -3 -24 3 -20 7 4 8 -780 2 -988 -2 -58 -1 -732 2 -910
1 -99 2 -193 1 -210 -2 -77 -1 -1583 3 -2410 3 -506 7 -1485 10 -2175 8 -1728
16 -3560 19 -4077 2 -237 0 -436 -3 -441 -7 -12 -154 -32 -233 -32 -32 0 -58
-4 -58 -10 0 -5 6 -7 14 -4 19 7 27 -8 30 -61 3 -51 1 -47 42 -68 l31 -16 6
-283 c3 -156 6 -474 6 -708 1 -233 5 -428 9 -431 4 -4 21 -5 39 -2 l32 5 0
357 c0 196 -4 397 -9 446 -5 50 -13 202 -16 339 -6 215 -5 250 8 260 8 6 20
21 27 34 15 27 36 28 59 2 14 -18 18 -47 20 -198 2 -97 3 -197 2 -222 -7 -184
1 -1015 10 -1018 25 -9 -6 -22 -53 -24 -35 -1 -42 -3 -20 -5 23 -3 30 -8 26
-19 -3 -8 -15 -14 -27 -14 -17 0 -18 2 -6 10 13 8 12 10 -2 10 -10 0 -18 -7
-18 -15 0 -17 -16 -20 -25 -5 -3 5 -12 7 -19 4 -8 -3 -16 3 -18 14 -5 18 -19
18 -361 14 -196 -2 -386 -1 -422 3 -58 6 -67 10 -79 34 -20 38 -35 475 -16
486 7 4 16 2 20 -5 4 -7 15 -10 25 -7 9 4 14 10 11 15 -2 4 4 8 14 9 11 1 22
-2 25 -8 16 -25 75 10 75 46 0 7 5 17 10 20 5 3 10 1 10 -6 0 -7 6 -4 14 7 14
19 16 18 86 -6 63 -22 81 -34 152 -107 99 -100 190 -226 259 -356 28 -54 53
-96 56 -94 6 7 -115 232 -154 285 -13 17 -20 32 -16 32 13 0 97 -132 144 -226
53 -107 48 -98 54 -92 11 11 -131 275 -186 347 -26 32 -24 50 1 23 12 -12 23
-22 26 -22 8 0 -46 71 -90 118 -45 47 -202 145 -272 169 -24 8 -44 19 -44 24
0 14 38 11 63 -5 12 -8 33 -17 47 -21 45 -14 7 18 -60 50 -55 26 -60 31 -60
61 0 18 -5 36 -11 39 -6 4 -15 17 -20 29 -8 17 -9 15 -5 -11 4 -24 2 -31 -8
-27 -16 6 -27 62 -14 70 4 3 8 16 8 30 0 17 -6 24 -19 24 -11 0 -26 3 -34 6
-8 3 -24 -5 -36 -17 -15 -16 -21 -18 -21 -8 0 9 -11 14 -31 14 -39 0 -38 -7
-39 207 -1 93 -5 170 -10 173 -5 3 -11 40 -15 83 -8 88 -14 119 -24 106 -3 -5
-20 -10 -38 -11 -27 -2 -32 2 -38 25 -3 15 1 47 10 71 19 54 19 54 -3 42 -10
-5 -62 -12 -116 -15 -54 -2 -103 -9 -109 -15 -6 -6 -7 -11 -2 -11 4 0 1 -8 -7
-17 -34 -41 -65 -241 -38 -244 43 -6 71 -2 75 10 3 8 16 12 35 9 22 -3 31 0
36 14 3 10 10 16 15 13 5 -4 8 11 7 33 -2 50 31 92 52 67 9 -10 9 -19 2 -27
-10 -13 -16 -63 -27 -233 -7 -108 -25 -226 -37 -241 -10 -14 -115 -9 -134 7
-8 7 -14 7 -14 1 0 -5 -7 -12 -14 -15 -10 -4 -13 -1 -9 9 3 8 -1 14 -11 14
-20 0 -20 -14 0 -34 13 -14 14 -16 0 -16 -22 0 -30 -74 -22 -230 7 -144 21
-252 37 -282 8 -15 23 -18 87 -20 42 -1 86 -2 97 -2 29 -2 40 -33 65 -186 22
-133 22 -194 0 -160 -6 9 -10 10 -10 3 0 -6 -9 -14 -20 -16 -15 -4 -14 -4 4
-3 30 1 76 -40 76 -67 0 -11 7 -37 17 -58 15 -35 18 -37 52 -32 23 3 47 16 65
36 16 17 37 32 45 34 35 5 213 12 329 12 81 1 121 5 117 11 -4 6 -11 7 -17 4
-7 -4 -8 -2 -4 4 10 16 35 15 41 0 4 -9 26 -12 78 -9 56 3 65 6 42 11 -27 7
-25 8 15 9 32 0 41 -2 30 -9 -11 -7 0 -10 38 -10 31 0 51 4 47 10 -3 5 6 3 21
-5 15 -7 34 -11 43 -7 13 5 11 8 -9 13 -27 8 -26 9 7 13 12 1 20 -1 17 -6 -3
-4 -1 -8 5 -8 5 0 -2 -26 -16 -58 -23 -55 -24 -60 -9 -93 l16 -34 -5 45 c-4
31 -3 42 4 35 7 -7 13 -102 16 -240 5 -217 15 -1524 15 -1979 0 -115 3 -207 6
-204 3 4 8 217 11 475 3 257 7 470 9 472 2 2 5 -99 6 -225 0 -126 2 -247 4
-269 1 -22 2 -166 3 -319 1 -154 4 -276 7 -273 10 9 12 59 19 355 4 189 3 268
-6 278 -6 7 -7 19 -3 25 10 17 15 431 5 443 -11 13 -19 106 -9 106 3 0 9 -6
11 -12 3 -7 6 51 6 129 0 78 -4 143 -9 145 -5 2 -11 28 -14 58 -3 30 -3 47 0
38 19 -61 23 30 23 455 0 482 3 527 37 527 8 0 21 -15 30 -32 15 -29 17 -69
15 -333 -2 -165 -4 -339 -4 -388 -1 -48 2 -87 7 -87 4 0 5 -8 1 -17 -7 -17 -6
-673 1 -763 2 -25 4 -52 4 -60 1 -8 1 -105 0 -215 -1 -110 -2 -292 -1 -405 0
-113 0 -421 -1 -685 -1 -264 0 -496 1 -515 1 -19 2 -141 1 -270 -1 -454 17
-3794 25 -4440 2 -184 6 -684 10 -1110 6 -826 12 -1461 20 -2180 2 -245 7
-674 10 -955 6 -528 12 -921 20 -1300 3 -121 6 -319 6 -440 1 -121 4 -224 6
-228 3 -5 7 -74 9 -155 9 -381 12 -435 26 -443 9 -7 10 -11 2 -16 -9 -6 -9
-32 -1 -102 7 -71 7 -96 -1 -99 -7 -2 -9 -10 -4 -20 4 -9 7 -63 7 -119 0 -57
3 -103 6 -103 4 0 6 -68 5 -150 0 -92 3 -152 9 -154 6 -3 5 -8 -2 -13 -16 -12
-16 -202 0 -222 8 -9 8 -16 2 -18 -11 -3 -12 -154 0 -172 4 -7 1 -25 -5 -42
-9 -21 -9 -33 -1 -42 6 -8 10 -29 9 -48 0 -19 2 -44 6 -56 5 -15 2 -25 -11
-32 -10 -6 -13 -11 -7 -11 15 0 18 -194 4 -221 -8 -14 -7 -19 2 -19 8 0 13
-12 13 -32 0 -35 18 -46 45 -28 13 8 15 46 14 251 -1 181 -4 243 -14 249 -8 5
-9 9 -1 11 16 6 26 142 12 165 -10 18 -11 18 -17 -3 -6 -20 -24 -33 -24 -17 0
15 22 44 35 44 11 0 14 24 14 120 1 77 -3 120 -10 120 -6 0 -7 6 -1 16 5 10 8
47 6 83 -3 50 -1 60 6 41 9 -23 9 -23 4 5 -3 17 -6 45 -6 62 0 18 -4 33 -9 33
-5 0 -9 43 -9 96 0 61 4 93 10 89 17 -10 23 22 12 62 l-10 38 -1 -39 c-1 -22
-4 -36 -8 -33 -13 14 -3 110 14 122 11 8 14 19 9 31 -6 16 -9 16 -16 4 -6 -8
-10 -13 -10 -10 -5 78 1 592 8 609 11 31 25 11 14 -21 -7 -21 -8 -301 -1 -478
l2 -75 6 90 c4 50 6 152 6 228 0 75 3 137 8 137 4 0 7 7 7 16 0 8 -5 12 -11 8
-8 -5 -8 -1 0 14 6 11 11 60 11 108 0 48 2 85 4 83 2 -2 7 -267 11 -589 4
-322 11 -666 16 -765 7 -163 7 -155 3 80 -2 143 -6 818 -9 1500 -3 682 -7
1389 -10 1570 l-6 330 68 14 c37 7 76 14 85 15 26 3 29 10 22 53 -10 63 -11
64 -88 51 -56 -9 -69 -9 -77 3 -5 8 -9 91 -9 184 -1 94 -5 188 -10 210 -5 26
-8 -41 -8 -195 0 -129 -3 -243 -7 -253 -4 -9 -3 -23 1 -30 5 -6 7 -91 4 -187
-3 -96 -7 -163 -8 -148 -3 44 -22 44 -22 0 0 -23 5 -42 13 -45 13 -5 13 -6 2
-452 -5 -215 -4 -317 6 -395 15 -122 16 -174 6 -445 -5 -110 -9 -282 -11 -383
-1 -100 -5 -185 -8 -187 -16 -16 -28 105 -28 286 -1 112 -3 371 -5 574 -18
1799 -18 2125 -2 2125 11 0 14 -5 10 -16 -3 -9 0 -20 8 -25 12 -8 12 -11 -1
-20 -11 -8 -12 -12 -2 -16 6 -2 12 -11 12 -19 0 -9 -4 -12 -10 -9 -17 10 -12
-81 5 -95 18 -15 20 -31 3 -28 -9 2 -13 -15 -14 -60 -2 -71 11 -92 20 -32 3
22 9 58 12 80 3 22 10 38 15 34 5 -3 9 22 9 56 0 34 -4 59 -9 56 -12 -8 -23
22 -14 37 4 7 9 5 12 -6 9 -26 1 2230 -15 3923 -3 322 -12 1791 -20 3265 -26
4759 -23 4529 -45 4537 -24 9 -24 22 -2 44 16 16 17 66 14 751 -3 629 -1 733
11 733 8 0 24 10 36 23 31 33 32 131 2 147 -21 11 -40 6 -40 -10 0 -5 8 -11
18 -13 9 -3 -4 -5 -30 -6 -27 0 -48 3 -48 8 0 5 -3 16 -6 25 -5 13 1 16 26 16
l33 0 -7 678 c-3 372 -8 1271 -11 1997 -3 726 -10 2308 -15 3515 -5 1207 -9
3332 -8 4721 0 1911 -3 2532 -12 2549 -13 24 -66 50 -105 50 -18 0 -29 -8 -37
-27z m-8 -648 c0 -8 -4 -15 -10 -15 -5 0 -10 7 -10 15 0 8 5 15 10 15 6 0 10
-7 10 -15z m1 -3860 c-7 -35 -8 -126 -4 -236 4 -120 3 -179 -4 -179 -15 0 -17
327 -2 419 7 41 14 70 16 64 2 -6 0 -37 -6 -68z m-4 -732 c-2 -27 -3 -5 -3 47
0 52 1 74 3 48 2 -27 2 -69 0 -95z m8 -398 c0 -84 -3 -148 -7 -141 -10 15 -10
312 0 302 4 -4 7 -77 7 -161z m4 -520 c-1 -137 3 -263 7 -279 5 -21 4 -27 -5
-22 -6 4 -11 23 -11 42 0 19 -5 34 -11 34 -7 0 -8 7 -4 18 4 9 7 125 7 257 0
143 3 232 8 220 5 -11 9 -132 9 -270z m-2 -512 c-2 -32 -3 -6 -3 57 0 63 1 89
3 58 2 -32 2 -84 0 -115z m10 -250 c-2 -16 -4 -5 -4 22 0 28 2 40 4 28 2 -13
2 -35 0 -50z m102 -3637 c-5 -6 -9 7 -8 35 l1 44 8 -35 c5 -20 5 -39 -1 -44z
m7 -193 c-4 -59 -9 -109 -11 -112 -3 -2 -5 43 -5 101 0 94 4 118 18 118 2 0 1
-48 -2 -107z m1 -185 c-3 -8 -6 -5 -6 6 -1 11 2 17 5 13 3 -3 4 -12 1 -19z m0
-210 c-2 -24 -4 -5 -4 42 0 47 2 66 4 43 2 -24 2 -62 0 -85z m4 -536 c-8 -12
-10 3 -9 58 l0 75 10 -58 c6 -37 5 -63 -1 -75z m9 -58 c0 -21 -4 -33 -10 -29
-5 3 -10 19 -10 36 0 16 5 29 10 29 6 0 10 -16 10 -36z m-7 -146 c3 -21 2 -38
-2 -38 -10 0 -21 61 -14 73 7 12 9 7 16 -35z m-4 -193 c0 -5 -4 -3 -9 5 -5 8
-9 22 -9 30 0 16 17 -16 18 -35z m9 -338 c1 -165 -2 -305 -7 -322 -10 -30 -10
-30 -10 10 -3 520 -1 605 12 605 1 0 3 -132 5 -293z m2 -528 c0 -86 -4 -139
-10 -139 -6 0 -10 55 -10 146 0 94 4 143 10 139 6 -4 10 -63 10 -146z m-2
-326 c0 -116 -3 -156 -8 -128 -12 54 -12 295 -1 295 5 0 9 -75 9 -167z m0
-468 c1 -52 -2 -85 -8 -85 -6 0 -10 34 -10 85 0 47 3 85 8 85 4 0 8 -38 10
-85z m-1290 -278 l3 -227 -24 0 c-22 0 -26 -6 -35 -57 -9 -51 -10 -39 -9 92 0
256 21 432 50 422 9 -3 13 -66 15 -230z m1301 -396 c1 -367 -2 -562 -9 -566
-6 -4 -10 34 -11 107 0 62 -2 311 -4 553 -4 406 -1 465 20 465 2 0 4 -252 4
-559z m-1031 91 c2 -8 -8 -12 -27 -12 -36 0 -50 17 -19 23 31 6 41 3 46 -11z
m19 -84 c-3 -7 -5 -2 -5 12 0 14 2 19 5 13 2 -7 2 -19 0 -25z m3 -123 c0 -10
-10 -15 -32 -15 -34 0 -29 14 7 23 11 3 21 5 23 6 1 0 2 -6 2 -14z m-299 -133
c10 2 14 -17 16 -77 1 -44 4 -145 7 -225 5 -179 -7 -157 -34 59 -31 255 -32
279 -16 258 8 -10 20 -16 27 -15z m718 -136 c-3 -3 -11 5 -18 17 -13 21 -12
21 5 5 10 -10 16 -20 13 -22z m18 -382 c-3 -3 -12 -4 -19 -1 -8 3 -5 6 6 6 11
1 17 -2 13 -5z m573 -110 c0 -13 -4 -24 -10 -24 -5 0 -10 14 -10 31 0 17 4 28
10 24 6 -3 10 -17 10 -31z m10 -149 c0 -37 -4 -65 -10 -65 -11 0 -14 88 -4
114 11 28 14 17 14 -49z m-6 -187 c-2 -62 -7 -114 -9 -117 -3 -2 -5 48 -5 112
0 68 4 117 10 117 5 0 7 -44 4 -112z m3 -170 c-3 -7 -5 -2 -5 12 0 14 2 19 5
13 2 -7 2 -19 0 -25z m0 -90 c-2 -13 -4 -3 -4 22 0 25 2 35 4 23 2 -13 2 -33
0 -45z m-20 -275 c-2 -38 -3 -7 -3 67 0 74 1 105 3 68 2 -38 2 -98 0 -135z
m20 75 c-3 -8 -6 -5 -6 6 -1 11 2 17 5 13 3 -3 4 -12 1 -19z m-20 -370 c-3 -7
-5 -2 -5 12 0 14 2 19 5 13 2 -7 2 -19 0 -25z m0 -55 c-3 -10 -5 -4 -5 12 0
17 2 24 5 18 2 -7 2 -21 0 -30z m24 -76 c-8 -8 -11 -5 -11 9 0 27 14 41 18 19
2 -9 -1 -22 -7 -28z m-6 -37 c-4 -11 -2 -20 4 -20 6 0 11 -4 11 -8 0 -5 -7 -9
-15 -9 -16 0 -19 15 -9 41 9 23 16 20 9 -4z m11 -210 c-1 -71 -4 -130 -8 -130
-4 0 -7 -31 -5 -70 1 -38 4 -70 7 -70 7 0 4 -285 -3 -297 -4 -6 -2 -25 3 -44
6 -19 10 -59 11 -89 1 -50 2 -52 10 -25 5 17 8 122 6 235 -2 113 -1 232 3 265
3 33 8 -174 12 -460 8 -690 7 -2170 -2 -2075 -3 41 -7 58 -8 37 -1 -21 -6 -36
-11 -33 -10 7 -7 -76 4 -93 3 -6 11 -9 16 -6 5 4 9 -9 9 -27 0 -25 -3 -29 -10
-18 -9 13 -10 13 -10 0 0 -13 -1 -13 -10 0 -7 12 -10 8 -11 -15 -2 -60 -10
-149 -13 -153 -2 -2 -5 313 -5 699 -1 485 2 700 9 693 12 -12 16 -336 5 -354
-4 -6 -1 -18 6 -26 9 -11 9 -20 0 -41 -15 -33 -4 -443 11 -421 6 8 7 -1 3 -27
-3 -22 -7 -58 -9 -80 l-3 -40 5 40 6 40 7 -45 c3 -25 5 206 3 512 -1 307 -5
562 -8 567 -3 5 -16 7 -29 3 -19 -5 -20 -3 -9 10 9 11 10 18 2 23 -6 3 -8 11
-4 16 3 6 11 3 19 -7 11 -16 13 -12 19 32 7 51 1 272 -7 280 -3 3 -8 -11 -11
-32 -4 -20 -10 -33 -13 -30 -5 5 -10 409 -13 1090 -1 151 3 253 9 259 5 5 7
16 4 23 -3 8 -1 14 4 14 6 0 10 -54 9 -130z m-6 -1360 c0 -44 -15 -43 -17 1
-2 24 1 38 7 34 6 -3 10 -19 10 -35z m10 -105 c0 -5 -5 -3 -10 5 -5 8 -10 20
-10 25 0 6 5 3 10 -5 5 -8 10 -19 10 -25z m0 -140 c0 -14 -4 -25 -9 -25 -4 0
-6 11 -3 25 2 14 6 25 8 25 2 0 4 -11 4 -25z m37 -1367 c-2 -13 -4 -5 -4 17
-1 22 1 32 4 23 2 -10 2 -28 0 -40z m-20 -40 c-3 -7 -5 -2 -5 12 0 14 2 19 5
13 2 -7 2 -19 0 -25z m20 -25 c-3 -10 -5 -4 -5 12 0 17 2 24 5 18 2 -7 2 -21
0 -30z m-45 -135 c-9 -9 -12 1 -11 43 l1 54 11 -43 c7 -31 7 -46 -1 -54z m55
-20 c-2 -13 -4 -3 -4 22 0 25 2 35 4 23 2 -13 2 -33 0 -45z m-35 -143 c3 -60
2 -153 -1 -207 -3 -53 -3 -94 2 -91 4 2 7 -12 7 -32 0 -22 -4 -34 -10 -30 -5
3 -10 2 -10 -4 0 -5 5 -13 10 -16 14 -9 12 -37 -4 -58 -12 -15 -14 5 -16 135
-1 84 -3 207 -5 273 -2 66 -1 131 2 144 11 44 20 0 25 -114z m35 43 c-2 -13
-4 -5 -4 17 -1 22 1 32 4 23 2 -10 2 -28 0 -40z m-6 -245 c-8 -15 -10 -15 -11
-2 0 17 10 32 18 25 2 -3 -1 -13 -7 -23z m6 -155 c-2 -13 -4 -3 -4 22 0 25 2
35 4 23 2 -13 2 -33 0 -45z m-42 -208 c-3 -10 1 -36 8 -58 9 -27 12 -66 9
-116 -5 -84 6 -133 18 -81 l8 30 1 -32 c0 -17 -4 -33 -10 -35 -15 -5 -16 -167
-2 -193 9 -16 11 2 8 80 -4 84 -3 93 6 55 9 -42 6 -210 -7 -357 -4 -45 -2 -63
6 -63 9 0 11 -112 8 -460 -1 -253 -6 -460 -9 -460 -12 0 -19 -65 -10 -95 8
-27 9 -25 10 23 1 29 5 51 10 48 4 -3 8 -180 8 -393 0 -213 -3 -368 -7 -343
l-7 45 -1 -41 c-1 -22 2 -44 8 -50 5 -5 9 -107 9 -244 1 -129 1 -282 2 -340 9
-930 9 -1210 0 -1210 -6 0 -11 -5 -11 -11 0 -5 5 -7 10 -4 16 10 11 -920 -5
-982 l-13 -48 -7 40 c-5 24 -4 40 2 42 6 2 9 23 7 46 -2 23 -7 96 -10 162 -4
76 -10 113 -15 100 -4 -12 -7 16 -7 70 l2 90 5 -70 c7 -81 19 -62 19 30 1 36
-5 66 -13 75 -10 12 -14 104 -20 403 -7 369 -6 389 11 408 20 22 28 116 13
141 -6 8 -9 -1 -10 -27 -3 -58 -4 -63 -12 -71 -4 -4 -7 136 -7 312 0 175 -2
594 -5 929 -2 349 -1 599 4 585 7 -19 9 -6 10 50 0 52 -2 70 -9 60 -7 -10 -10
41 -11 155 0 94 -1 181 -2 195 0 14 2 78 6 142 4 64 3 119 -2 122 -10 7 -12
398 -1 411 4 5 5 33 0 60 -12 79 -12 485 0 485 5 0 10 7 10 16 0 8 -4 12 -10
9 -7 -4 -10 69 -9 212 0 150 3 210 10 194 5 -13 7 -32 4 -41z m42 -32 c-2 -13
-4 -5 -4 17 -1 22 1 32 4 23 2 -10 2 -28 0 -40z m0 -145 c-3 -10 -5 -2 -5 17
0 19 2 27 5 18 2 -10 2 -26 0 -35z m-40 -1835 c-3 -7 -5 -2 -5 12 0 14 2 19 5
13 2 -7 2 -19 0 -25z m61 -3419 c2 -52 -1 -78 -8 -74 -5 3 -10 -1 -10 -10 0
-9 4 -14 9 -11 5 3 12 -1 15 -10 10 -25 7 -37 -8 -31 -11 4 -12 -2 -4 -35 6
-27 5 -45 -2 -52 -7 -7 -10 -2 -10 16 0 15 -4 30 -10 33 -15 9 -13 196 3 228
6 15 14 27 17 27 3 0 7 -36 8 -81z m-3 -268 c3 -5 1 -12 -5 -16 -5 -3 -10 1
-10 9 0 18 6 21 15 7z m-7 -153 c-1 -68 -3 -104 -5 -80 -3 29 -8 40 -16 35 -8
-4 -8 -2 1 9 8 11 12 39 9 87 -2 39 1 71 5 71 4 0 7 -55 6 -122z m-8 -189 c0
-24 -4 -38 -10 -34 -5 3 -10 24 -10 46 0 24 4 38 10 34 6 -3 10 -24 10 -46z
m47 -231 c-3 -8 -6 -5 -6 6 -1 11 2 17 5 13 3 -3 4 -12 1 -19z m3 -34 c0 -8
-5 -12 -10 -9 -6 4 -8 11 -5 16 9 14 15 11 15 -7z m17 -2696 c-3 -7 -5 -2 -5
12 0 14 2 19 5 13 2 -7 2 -19 0 -25z m-57 -1692 c0 -3 -4 -8 -10 -11 -5 -3
-10 -1 -10 4 0 6 5 11 10 11 6 0 10 -2 10 -4z m0 -271 c0 -19 -4 -35 -10 -35
-5 0 -10 16 -10 35 0 19 5 35 10 35 6 0 10 -16 10 -35z m0 -135 c0 -5 -4 -10
-10 -10 -5 0 -10 5 -10 10 0 6 5 10 10 10 6 0 10 -4 10 -10z m5 -71 c4 -11 4
-23 1 -26 -3 -4 -6 1 -6 10 0 10 -4 17 -10 17 -5 0 -10 5 -10 10 0 18 19 10
25 -11z"/>
<path d="M16973 22915 c0 -22 2 -30 4 -17 2 12 2 30 0 40 -3 9 -5 -1 -4 -23z"/>
<path d="M16972 22830 c0 -19 2 -27 5 -17 2 9 2 25 0 35 -3 9 -5 1 -5 -18z"/>
<path d="M16972 22700 c0 -14 2 -19 5 -12 2 6 2 18 0 25 -3 6 -5 1 -5 -13z"/>
<path d="M16973 22600 c0 -25 2 -35 4 -22 2 12 2 32 0 45 -2 12 -4 2 -4 -23z"/>
<path d="M17002 19245 c0 -16 2 -22 5 -12 2 9 2 23 0 30 -3 6 -5 -1 -5 -18z"/>
<path d="M16996 18663 c-11 -11 -6 -23 9 -23 8 0 15 4 15 9 0 13 -16 22 -24
14z"/>
<path d="M16981 17634 c0 -11 3 -14 6 -6 3 7 2 16 -1 19 -3 4 -6 -2 -5 -13z"/>
<path d="M17022 17580 c0 -14 2 -19 5 -12 2 6 2 18 0 25 -3 6 -5 1 -5 -13z"/>
<path d="M17002 16750 c0 -19 2 -27 5 -17 2 9 2 25 0 35 -3 9 -5 1 -5 -18z"/>
<path d="M17001 16134 c0 -11 3 -14 6 -6 3 7 2 16 -1 19 -3 4 -6 -2 -5 -13z"/>
<path d="M17002 15630 c0 -19 2 -27 5 -17 2 9 2 25 0 35 -3 9 -5 1 -5 -18z"/>
<path d="M17002 15400 c0 -14 2 -19 5 -12 2 6 2 18 0 25 -3 6 -5 1 -5 -13z"/>
<path d="M17000 15095 c0 -8 5 -15 10 -15 6 0 10 7 10 15 0 8 -4 15 -10 15 -5
0 -10 -7 -10 -15z"/>
<path d="M17017 14363 c8 -52 13 -54 13 -5 0 23 -4 42 -9 42 -6 0 -7 -17 -4
-37z"/>
<path d="M16604 37310 c0 -151 2 -213 3 -137 2 75 2 199 0 275 -1 75 -3 13 -3
-138z"/>
<path d="M16604 36755 c0 -115 2 -161 3 -102 2 59 2 154 0 210 -1 56 -3 8 -3
-108z"/>
<path d="M16604 34265 c0 -60 1 -84 3 -52 2 32 2 81 0 110 -2 29 -3 3 -3 -58z"/>
<path d="M16604 33945 c0 -104 2 -146 3 -92 2 54 2 139 0 190 -1 51 -3 7 -3
-98z"/>
<path d="M16613 33640 c0 -25 2 -35 4 -22 2 12 2 32 0 45 -2 12 -4 2 -4 -23z"/>
<path d="M16600 33480 c0 -16 5 -30 10 -30 6 0 10 14 10 30 0 17 -4 30 -10 30
-5 0 -10 -13 -10 -30z"/>
<path d="M16613 33375 c0 -38 2 -53 4 -32 2 20 2 52 0 70 -2 17 -4 1 -4 -38z"/>
<path d="M16614 33135 c0 -71 1 -99 3 -62 2 37 2 96 0 130 -2 34 -3 4 -3 -68z"/>
<path d="M16613 32360 c0 -47 2 -66 4 -42 2 23 2 61 0 85 -2 23 -4 4 -4 -43z"/>
<path d="M16610 31689 c1 -321 5 -551 11 -559 6 -10 7 193 3 540 -4 305 -9
557 -11 559 -2 3 -3 -240 -3 -540z"/>
<path d="M16624 30920 c0 -69 1 -97 3 -62 2 34 2 90 0 125 -2 34 -3 6 -3 -63z"/>
<path d="M16634 29010 c0 -52 1 -74 3 -47 2 26 2 68 0 95 -2 26 -3 4 -3 -48z"/>
<path d="M16634 28675 c0 -66 1 -92 3 -57 2 34 2 88 0 120 -2 31 -3 3 -3 -63z"/>
<path d="M16636 28095 c0 -36 4 -68 7 -72 4 -3 7 26 7 65 0 40 -3 72 -7 72 -5
0 -8 -29 -7 -65z"/>
<path d="M16630 27840 c0 -296 14 -790 23 -790 6 0 7 40 3 103 -3 56 -6 253
-6 438 -1 184 -6 342 -11 350 -5 9 -9 -28 -9 -101z"/>
<path d="M16355 26970 c-38 -5 -126 -13 -195 -19 -69 -6 -141 -16 -160 -21
-39 -11 -51 -11 195 10 66 6 144 12 172 15 29 2 55 0 58 -6 6 -9 35 12 35 25
0 7 -4 6 -105 -4z"/>
<path d="M15878 26913 c12 -2 32 -2 45 0 12 2 2 4 -23 4 -25 0 -35 -2 -22 -4z"/>
<path d="M15767 26853 c-4 -3 -6 -22 -6 -42 l1 -36 8 40 c8 42 8 49 -3 38z"/>
<path d="M15550 26805 c0 -8 5 -15 10 -15 6 0 10 7 10 15 0 8 -4 15 -10 15 -5
0 -10 -7 -10 -15z"/>
<path d="M15448 25413 c7 -3 16 -2 19 1 4 3 -2 6 -13 5 -11 0 -14 -3 -6 -6z"/>
<path d="M16721 24184 c0 -11 3 -14 6 -6 3 7 2 16 -1 19 -3 4 -6 -2 -5 -13z"/>
<path d="M16663 22645 c0 -44 2 -61 4 -37 2 23 2 59 0 80 -2 20 -4 1 -4 -43z"/>
<path d="M16672 22245 c0 -16 2 -22 5 -12 2 9 2 23 0 30 -3 6 -5 -1 -5 -18z"/>
<path d="M16667 22183 c-9 -8 -7 -142 3 -213 6 -43 7 -26 9 83 0 75 0 137 -2
137 -2 0 -7 -3 -10 -7z"/>
<path d="M16670 21695 c0 -76 3 -136 6 -132 8 8 8 257 0 265 -3 3 -6 -57 -6
-133z"/>
<path d="M16670 20603 c1 -516 5 -1125 8 -1353 6 -389 7 -403 13 -220 4 107 5
337 3 510 -1 173 -4 692 -5 1153 -2 461 -7 841 -11 843 -5 3 -8 -417 -8 -933z"/>
<path d="M16686 17925 c10 -2288 16 -3191 20 -3203 2 -7 4 -337 4 -735 1 -397
4 -761 7 -809 11 -156 22 -94 18 95 -3 100 -7 785 -10 1522 -8 2310 -19 3485
-35 3840 -5 107 -7 -180 -4 -710z"/>
<path d="M16751 16954 c0 -11 3 -14 6 -6 3 7 2 16 -1 19 -3 4 -6 -2 -5 -13z"/>
<path d="M16770 16490 c0 -5 5 -10 11 -10 5 0 7 5 4 10 -3 6 -8 10 -11 10 -2
0 -4 -4 -4 -10z"/>
<path d="M16752 16423 c-2 -50 1 -63 13 -63 17 0 20 11 6 26 -6 5 -11 29 -14
54 -3 38 -4 36 -5 -17z"/>
<path d="M16750 16318 c0 -11 12 -10 30 2 12 7 10 9 -8 7 -12 0 -22 -5 -22 -9z"/>
<path d="M16764 16255 c8 -8 20 -15 27 -15 9 0 8 4 -1 15 -7 8 -19 15 -27 15
-12 0 -12 -2 1 -15z"/>
<path d="M16770 16220 c0 -5 5 -10 10 -10 6 0 10 5 10 10 0 6 -4 10 -10 10 -5
0 -10 -4 -10 -10z"/>
<path d="M16766 16143 c1 -16 3 -31 3 -35 1 -5 6 -8 11 -8 11 0 13 30 4 54
-10 25 -20 19 -18 -11z"/>
<path d="M16761 16035 c-7 -25 -11 -48 -8 -52 3 -3 9 7 13 22 5 19 9 23 15 14
12 -20 17 -8 12 29 -7 44 -16 40 -32 -13z"/>
<path d="M16777 15958 c-2 -24 -3 -67 -2 -95 2 -30 -1 -51 -6 -47 -5 3 -9 -5
-9 -18 0 -13 -3 -34 -5 -48 -5 -21 -4 -22 4 -5 11 26 26 -99 18 -151 -4 -25
-2 -34 6 -31 14 4 21 437 8 437 -5 0 -11 -19 -14 -42z"/>
<path d="M16751 15914 c0 -11 3 -14 6 -6 3 7 2 16 -1 19 -3 4 -6 -2 -5 -13z"/>
<path d="M16759 15504 c-5 -15 -7 -29 -4 -32 3 -3 5 0 5 6 0 21 17 13 23 -10
8 -27 -1 -38 -13 -18 -6 9 -10 10 -10 3 0 -6 8 -19 17 -29 13 -13 14 -19 5
-22 -20 -6 -14 -38 8 -39 24 -2 26 24 9 110 -13 62 -24 71 -40 31z"/>
<path d="M16772 15325 c0 -16 2 -22 5 -12 2 9 2 23 0 30 -3 6 -5 -1 -5 -18z"/>
<path d="M16780 15260 c0 -11 5 -20 10 -20 6 0 10 9 10 20 0 11 -4 20 -10 20
-5 0 -10 -9 -10 -20z"/>
<path d="M16780 15163 c0 -23 4 -33 9 -27 17 17 17 64 1 64 -5 0 -10 -17 -10
-37z"/>
<path d="M16762 15150 c0 -19 2 -27 5 -17 2 9 2 25 0 35 -3 9 -5 1 -5 -18z"/>
<path d="M16784 15053 c2 -16 5 -61 5 -100 1 -40 4 -73 9 -73 4 0 7 45 7 100
0 75 -3 100 -13 100 -8 0 -11 -9 -8 -27z"/>
<path d="M17110 14948 c0 -35 -2 -99 -4 -143 -10 -210 -14 -426 -6 -355 11
103 24 560 16 560 -3 0 -6 -28 -6 -62z"/>
<path d="M16801 14854 c0 -11 3 -14 6 -6 3 7 2 16 -1 19 -3 4 -6 -2 -5 -13z"/>
<path d="M16784 14799 c-3 -6 -2 -15 4 -21 6 -6 11 -2 15 11 5 22 -7 29 -19
10z"/>
<path d="M16792 14740 c-7 -11 -8 -20 -3 -20 5 0 12 -10 14 -22 2 -13 5 -4 6
20 0 23 0 42 -2 42 -1 0 -8 -9 -15 -20z"/>
<path d="M16802 14630 c0 -19 2 -27 5 -17 2 9 2 25 0 35 -3 9 -5 1 -5 -18z"/>
<path d="M16798 14515 c-10 -55 -10 -113 1 -119 12 -8 17 38 11 104 l-5 55 -7
-40z"/>
<path d="M16796 14365 c-3 -8 -1 -25 4 -37 9 -20 10 -20 8 -3 -2 11 1 25 5 32
4 6 3 14 -2 17 -5 3 -11 -1 -15 -9z"/>
<path d="M16811 13934 c0 -11 3 -14 6 -6 3 7 2 16 -1 19 -3 4 -6 -2 -5 -13z"/>
<path d="M16806 13835 c4 -8 8 -15 10 -15 2 0 4 7 4 15 0 8 -4 15 -10 15 -5 0
-7 -7 -4 -15z"/>
<path d="M16811 13784 c0 -11 3 -14 6 -6 3 7 2 16 -1 19 -3 4 -6 -2 -5 -13z"/>
<path d="M16800 13645 c0 -8 5 -15 10 -15 6 0 10 7 10 15 0 8 -4 15 -10 15 -5
0 -10 -7 -10 -15z"/>
<path d="M16811 13384 c0 -11 3 -14 6 -6 3 7 2 16 -1 19 -3 4 -6 -2 -5 -13z"/>
<path d="M16812 13340 c0 -14 2 -19 5 -12 2 6 2 18 0 25 -3 6 -5 1 -5 -13z"/>
<path d="M17300 13343 c0 -13 5 -23 10 -23 13 0 13 11 0 30 -8 12 -10 11 -10
-7z"/>
<path d="M16812 13220 c0 -14 2 -19 5 -12 2 6 2 18 0 25 -3 6 -5 1 -5 -13z"/>
<path d="M17050 13138 c-5 -26 -3 -148 3 -148 4 0 7 34 7 75 0 41 -2 75 -5 75
-3 0 -5 -1 -5 -2z"/>
<path d="M16721 13033 c0 -25 1 -26 9 -8 12 27 12 35 0 35 -5 0 -10 -12 -9
-27z"/>
<path d="M16722 12935 c0 -56 1 -58 8 -20 4 22 4 49 -1 60 -5 13 -8 0 -7 -40z"/>
<path d="M17294 12979 c-3 -6 -1 -16 5 -22 8 -8 11 -5 11 11 0 24 -5 28 -16
11z"/>
<path d="M16810 12939 c0 -5 5 -7 10 -4 6 3 10 8 10 11 0 2 -4 4 -10 4 -5 0
-10 -5 -10 -11z"/>
<path d="M17052 12835 c0 -16 2 -22 5 -12 2 9 2 23 0 30 -3 6 -5 -1 -5 -18z"/>
<path d="M16720 12820 c0 -16 4 -30 8 -30 5 0 7 14 4 30 -2 17 -6 30 -8 30 -2
0 -4 -13 -4 -30z"/>
<path d="M17053 12725 c0 -27 2 -38 4 -22 2 15 2 37 0 50 -2 12 -4 0 -4 -28z"/>
<path d="M17121 12728 c-1 -16 4 -28 9 -28 12 0 12 8 0 35 -8 18 -9 17 -9 -7z"/>
<path d="M16723 12660 c0 -36 2 -50 4 -32 2 17 2 47 0 65 -2 17 -4 3 -4 -33z"/>
<path d="M17164 12620 c3 -19 13 -84 21 -145 15 -104 25 -143 25 -98 0 49 -33
259 -42 268 -6 7 -8 -2 -4 -25z"/>
<path d="M17121 12494 c0 -11 3 -14 6 -6 3 7 2 16 -1 19 -3 4 -6 -2 -5 -13z"/>
<path d="M16722 12430 c0 -19 2 -27 5 -17 2 9 2 25 0 35 -3 9 -5 1 -5 -18z"/>
<path d="M17178 12294 c-7 -7 3 -53 13 -60 5 -3 9 8 9 25 0 28 -11 46 -22 35z"/>
<path d="M17260 12150 c-13 -9 -13 -10 0 -9 8 0 24 4 35 9 l20 9 -20 0 c-11 0
-27 -4 -35 -9z"/>
<path d="M17295 12113 c-66 -8 -77 -13 -72 -33 3 -12 -1 -24 -11 -30 -16 -9
-16 -9 1 -10 10 0 17 -8 17 -21 0 -18 4 -20 38 -15 20 3 59 8 86 12 l48 7 -6
40 c-10 61 -11 62 -101 50z"/>
<path d="M16726 12075 c4 -8 8 -15 10 -15 2 0 4 7 4 15 0 8 -4 15 -10 15 -5 0
-7 -7 -4 -15z"/>
<path d="M17162 12069 c-10 -15 -11 -24 -3 -32 15 -15 23 -3 19 27 -3 27 -3
27 -16 5z"/>
<path d="M17180 12005 c0 -8 4 -15 10 -15 5 0 7 7 4 15 -4 8 -8 15 -10 15 -2
0 -4 -7 -4 -15z"/>
<path d="M17266 11880 c8 -56 14 -64 14 -19 0 19 -5 41 -10 49 -7 10 -8 1 -4
-30z"/>
<path d="M16731 11854 c0 -11 3 -14 6 -6 3 7 2 16 -1 19 -3 4 -6 -2 -5 -13z"/>
<path d="M17355 11518 c18 -66 70 -232 92 -293 13 -38 33 -99 43 -135 28 -98
97 -305 114 -342 8 -18 23 -62 34 -98 21 -68 36 -109 122 -325 86 -216 240
-545 331 -705 17 -30 41 -73 54 -95 12 -22 33 -58 45 -80 12 -22 37 -65 55
-95 18 -30 75 -125 126 -210 111 -187 320 -506 364 -557 6 -6 35 -46 65 -88
278 -388 901 -1077 1308 -1447 139 -126 219 -197 673 -587 118 -102 282 -244
364 -316 83 -72 186 -162 230 -200 44 -38 89 -79 101 -90 11 -11 54 -49 94
-85 41 -36 95 -83 120 -105 25 -22 92 -83 150 -136 58 -52 121 -109 140 -126
77 -66 360 -321 430 -388 41 -39 122 -116 180 -170 58 -54 249 -242 424 -417
176 -175 321 -316 324 -313 6 5 -215 236 -359 376 -485 472 -731 704 -933 879
-114 98 -193 169 -481 425 -93 83 -235 207 -315 276 -155 132 -520 449 -915
794 -365 319 -722 683 -1119 1139 -204 235 -522 657 -662 879 -27 43 -58 93
-69 110 -24 37 -170 277 -240 392 -79 132 -261 483 -311 600 -25 61 -50 115
-54 120 -5 6 -22 46 -39 90 -18 44 -36 89 -41 100 -5 11 -12 31 -16 45 -3 14
-22 56 -40 95 -19 38 -34 75 -34 81 0 6 -18 55 -40 110 -22 54 -42 112 -45
129 -6 29 -6 29 14 -7 11 -20 30 -65 42 -100 41 -118 59 -163 54 -133 -4 17
-32 104 -64 195 -32 91 -80 232 -105 315 -44 141 -66 196 -51 130 7 -34 49
-177 71 -243 18 -56 17 -76 -2 -32 -16 36 -114 345 -140 440 -43 160 -65 220
-80 220 -11 0 -14 -6 -9 -22z"/>
<path d="M17491 11000 c0 -8 4 -24 9 -35 5 -13 9 -14 9 -5 0 8 -4 24 -9 35 -5
13 -9 14 -9 5z"/>
<path d="M17521 10894 c0 -11 3 -14 6 -6 3 7 2 16 -1 19 -3 4 -6 -2 -5 -13z"/>
<path d="M17581 10725 c1 -19 18 -51 18 -35 0 8 -4 22 -9 30 -5 8 -9 11 -9 5z"/>
<path d="M17610 10635 c0 -5 5 -17 10 -25 5 -8 10 -10 10 -5 0 6 -5 17 -10 25
-5 8 -10 11 -10 5z"/>
<path d="M17051 9984 c0 -11 3 -14 6 -6 3 7 2 16 -1 19 -3 4 -6 -2 -5 -13z"/>
<path d="M16742 9870 c0 -19 2 -27 5 -17 2 9 2 25 0 35 -3 9 -5 1 -5 -18z"/>
<path d="M17042 9810 c0 -19 2 -27 5 -17 2 9 2 25 0 35 -3 9 -5 1 -5 -18z"/>
<path d="M17114 9105 c0 -55 1 -76 3 -47 2 29 2 74 0 100 -2 26 -3 2 -3 -53z"/>
<path d="M17112 8950 c0 -19 2 -27 5 -17 2 9 2 25 0 35 -3 9 -5 1 -5 -18z"/>
<path d="M17113 8840 c0 -25 2 -35 4 -22 2 12 2 32 0 45 -2 12 -4 2 -4 -23z"/>
<path d="M17113 8710 c0 -41 2 -58 4 -37 2 20 2 54 0 75 -2 20 -4 3 -4 -38z"/>
<path d="M17113 8505 c0 -33 2 -45 4 -27 2 18 2 45 0 60 -2 15 -4 0 -4 -33z"/>
<path d="M18860 8506 c0 -2 8 -10 18 -17 15 -13 16 -12 3 4 -13 16 -21 21 -21
13z"/>
<path d="M16998 8455 c-13 -16 -18 -42 -18 -84 0 -33 -4 -63 -10 -66 -6 -4 -5
-13 2 -25 9 -14 9 -22 -1 -34 -9 -11 -10 -20 -1 -36 11 -20 31 -327 23 -343
-2 -4 -6 -116 -7 -250 -2 -133 -5 -246 -6 -252 -2 -5 1 -19 5 -29 6 -13 3 -23
-8 -31 -22 -16 -22 -61 -1 -69 15 -6 15 -8 -2 -28 -14 -15 -16 -22 -6 -25 14
-5 16 -33 2 -33 -13 0 -13 -61 0 -94 5 -14 6 -26 2 -26 -5 0 -9 -48 -11 -107
-1 -60 -4 -189 -7 -288 -2 -99 -6 -410 -7 -692 -2 -483 -10 -636 -21 -388 -2
61 -5 112 -5 115 -2 10 -13 247 -14 280 0 19 4 46 8 59 6 17 5 22 -3 17 -8 -5
-12 2 -13 21 0 15 -2 111 -4 213 -4 162 -15 588 -17 615 -1 6 2 20 6 33 4 12
3 22 -1 22 -5 0 -9 51 -9 113 0 151 -9 296 -29 447 -16 118 -25 159 -25 112 0
-11 -9 -41 -20 -67 -12 -29 -21 -73 -22 -113 l-2 -67 -6 75 c-4 41 -8 -222 -9
-585 -4 -902 -10 -1447 -16 -1453 -3 -3 -5 86 -5 197 0 118 -4 200 -9 197 -5
-3 -8 -23 -6 -44 1 -20 0 -25 -2 -9 -2 15 -11 27 -19 27 -18 0 -57 -19 -65
-33 -8 -11 -39 -2 -39 12 0 5 16 12 35 15 34 7 51 36 20 36 -8 0 -15 -6 -15
-14 0 -10 -16 -17 -46 -22 -47 -7 -66 -26 -45 -47 8 -8 11 -8 11 1 0 7 7 12
15 12 8 0 15 -7 15 -15 0 -8 -7 -15 -15 -15 -8 0 -15 -4 -15 -10 0 -5 -19 -9
-42 -9 -24 1 -35 3 -25 6 9 2 17 9 17 15 0 6 -8 17 -17 24 -14 10 -15 15 -6
25 18 18 -9 39 -51 39 -32 0 -36 3 -36 25 0 23 4 25 40 25 33 0 40 3 40 20 0
24 -22 26 -44 5 -18 -19 -36 -19 -36 -2 0 8 -8 21 -19 31 -20 18 -31 11 -45
-29 -5 -13 -9 -16 -14 -8 -6 9 -29 10 -87 4 -53 -5 -65 -9 -37 -10 53 -1 56
-21 2 -21 -22 0 -40 -4 -40 -10 0 -5 -18 -10 -40 -10 -38 0 -40 2 -40 30 0 22
-5 30 -17 30 -10 0 -28 3 -40 6 -17 5 -23 2 -23 -10 0 -9 7 -16 15 -16 20 0
19 -36 -1 -44 -9 -3 -31 -6 -49 -6 -19 0 -46 -5 -62 -12 -27 -11 -27 -12 -5
-15 12 -3 22 -9 22 -14 0 -12 25 -11 71 3 27 8 39 17 39 30 0 10 5 18 10 18 6
0 10 -9 10 -20 0 -11 -4 -20 -10 -20 -5 0 -14 -17 -20 -39 l-10 -38 -42 11
c-32 9 -42 8 -45 -1 -3 -7 -16 -13 -29 -13 -21 0 -24 4 -24 39 l0 38 -61 2
c-33 1 -69 6 -79 11 -30 16 -50 12 -50 -10 0 -11 5 -20 10 -20 6 0 10 5 10 10
0 18 40 10 52 -10 7 -11 19 -20 26 -20 9 0 12 -11 10 -32 -4 -39 -28 -51 -28
-13 0 37 -17 65 -40 65 -25 0 -27 -35 -2 -50 16 -10 15 -10 -3 -8 -11 2 -24
12 -30 23 -12 25 -41 21 -48 -6 -4 -14 -14 -19 -36 -19 -29 0 -31 -2 -31 -40
0 -22 -4 -40 -10 -40 -5 0 -10 -9 -10 -20 0 -11 -6 -20 -13 -20 -17 0 -42 -40
-25 -40 7 0 4 -6 -7 -12 -11 -6 -27 -20 -36 -31 -15 -19 -17 -19 -41 -3 -26
17 -45 46 -30 46 4 0 13 9 20 20 10 16 10 24 0 40 -7 11 -18 20 -24 20 -6 0
-15 15 -19 33 l-8 32 -4 -28 c-3 -17 2 -36 11 -46 20 -22 20 -45 2 -60 -11 -9
-15 -9 -18 1 -3 9 -6 9 -12 0 -4 -7 -2 -12 3 -12 6 0 11 -11 11 -25 0 -22 -4
-25 -40 -25 -22 0 -40 5 -40 10 0 16 -27 11 -34 -6 -10 -26 -7 -34 14 -34 15
0 20 -7 20 -25 0 -30 -14 -32 -32 -6 -17 24 -79 37 -107 22 -42 -23 -16 -71
38 -71 26 0 27 15 4 29 -16 9 -16 12 -3 21 11 7 16 5 19 -8 2 -9 10 -22 19
-28 8 -6 13 -17 10 -24 -3 -11 -25 -13 -96 -11 -78 2 -92 0 -92 -13 0 -12 -10
-16 -40 -16 -29 0 -40 -4 -40 -15 0 -11 11 -15 40 -15 22 0 40 -4 40 -10 0 -5
-18 -10 -40 -10 -29 0 -40 -4 -40 -15 0 -12 -21 -15 -122 -17 -68 -1 -140 -1
-160 0 -28 2 -38 -2 -38 -13 0 -8 -9 -15 -20 -15 -26 0 -60 -34 -60 -60 0 -24
45 -28 54 -5 8 22 26 18 26 -5 0 -18 4 -20 40 -14 42 7 58 -9 19 -19 -24 -6
-21 -30 4 -35 10 -2 17 3 17 12 0 12 10 16 39 16 34 0 39 -3 44 -26 l5 -26
-81 4 c-52 2 -82 8 -85 16 -2 8 -29 12 -83 12 -64 0 -79 -3 -79 -15 0 -11 11
-15 40 -15 22 0 40 -4 40 -10 0 -13 -80 -13 -100 0 -10 6 -11 10 -2 10 20 0
14 30 -10 52 -15 12 -19 21 -12 24 18 7 5 41 -17 47 -10 3 -19 1 -19 -4 0 -5
-15 -9 -32 -9 -18 0 -55 -9 -83 -19 l-50 -20 83 6 c93 7 113 -9 34 -26 -26 -5
-61 -15 -77 -22 -28 -10 -28 -12 -10 -19 12 -5 -4 -7 -42 -5 -56 2 -63 1 -63
-16 0 -10 -4 -21 -10 -24 -13 -8 -13 -45 -1 -45 5 0 11 12 13 28 l3 27 23 -23
c12 -12 20 -27 16 -33 -3 -6 3 -13 15 -16 12 -3 21 -13 21 -24 0 -15 7 -19 40
-19 71 0 43 -18 -40 -25 -58 -5 -80 -11 -80 -21 0 -10 12 -14 40 -14 23 0 40
-5 40 -11 0 -8 -18 -10 -61 -5 -34 3 -70 6 -80 6 -11 0 -19 7 -19 16 0 9 -7
14 -17 12 -25 -5 -28 -29 -4 -35 14 -3 21 -13 21 -29 0 -29 -10 -30 -32 -5
-21 24 -85 38 -101 22 -21 -21 -27 -11 -27 39 0 37 -4 50 -14 50 -8 0 -18 -4
-21 -10 -8 -12 -45 -13 -45 -1 0 5 9 11 21 14 24 6 21 30 -4 35 -10 2 -17 -3
-17 -12 0 -9 -7 -16 -15 -16 -8 0 -15 -6 -15 -14 0 -21 -54 -40 -77 -27 -17
10 -16 10 5 11 17 0 22 6 22 25 0 16 6 25 15 25 8 0 15 7 15 15 0 8 -7 15 -15
15 -8 0 -15 7 -15 15 0 11 -11 15 -39 15 -22 0 -41 5 -43 11 -3 9 -9 9 -25 0
-12 -6 -47 -11 -77 -11 -43 0 -56 -3 -56 -15 0 -10 -10 -15 -30 -15 -28 0 -30
-2 -30 -40 0 -22 5 -40 11 -40 5 0 7 -4 4 -10 -3 -5 -31 -10 -61 -10 -30 0
-54 5 -54 10 0 6 18 10 40 10 l40 0 0 40 c0 47 -13 51 -46 14 -13 -14 -29 -22
-35 -19 -6 4 -13 -2 -16 -14 -7 -28 -39 -27 -48 2 l-8 22 -4 -22 c-4 -19 -11
-23 -44 -23 -21 0 -39 5 -39 10 0 17 -122 11 -145 -6 -15 -13 -17 -17 -6 -21
18 -7 51 -41 51 -53 0 -13 -37 -13 -45 0 -8 12 -35 -12 -35 -32 0 -8 -4 -7
-11 5 -12 20 -35 23 -42 5 -4 -10 -6 -10 -6 0 -1 7 -16 12 -41 12 -29 0 -40 4
-40 15 0 11 -11 15 -40 15 -46 0 -58 -26 -14 -32 23 -3 24 -5 11 -22 -12 -16
-25 -19 -66 -17 -46 2 -51 0 -51 -19 0 -17 -6 -20 -40 -20 -22 0 -40 -4 -40
-10 0 -5 18 -10 40 -10 22 0 40 5 40 10 0 6 9 10 21 10 14 0 19 -5 17 -17 -2
-14 -15 -19 -61 -21 -40 -2 -57 -7 -57 -16 0 -10 23 -16 80 -21 44 -4 80 -12
80 -17 0 -6 -7 -8 -15 -4 -8 3 -44 8 -80 12 -51 5 -65 4 -65 -7 0 -10 -3 -10
-12 -1 -16 16 -38 15 -59 -4 -10 -9 -23 -13 -28 -9 -16 9 -13 25 4 25 12 0 15
16 15 80 0 64 -3 80 -15 80 -11 0 -15 -11 -15 -40 0 -36 -2 -40 -25 -40 -22 0
-25 -4 -25 -40 l0 -40 -40 0 c-22 0 -40 -4 -40 -10 0 -5 -18 -10 -40 -10 l-40
0 0 40 0 40 -40 0 c-22 0 -40 5 -40 10 0 6 -18 10 -40 10 -29 0 -40 -4 -40
-15 0 -11 11 -15 40 -15 36 0 40 -2 40 -25 0 -16 -6 -25 -15 -25 -8 0 -15 -7
-15 -15 0 -8 -5 -15 -10 -15 -6 0 -13 7 -16 15 -12 31 -24 13 -24 -35 l0 -50
-40 0 c-38 0 -40 -2 -40 -30 0 -20 -5 -30 -15 -30 -8 0 -15 -7 -15 -15 0 -8 7
-15 15 -15 8 0 15 7 15 15 0 9 9 15 25 15 23 0 25 -4 25 -40 l0 -40 -50 0
c-38 0 -50 4 -50 15 0 8 -7 15 -15 15 -12 0 -15 -13 -15 -55 l0 -55 40 0 c22
0 40 -4 40 -10 0 -5 -18 -10 -40 -10 -38 0 -40 -2 -40 -30 l0 -30 -21 21 c-16
16 -29 20 -51 15 -17 -3 -43 -6 -59 -6 -19 0 -29 -5 -29 -15 0 -11 11 -15 40
-15 22 0 40 -4 40 -10 0 -15 -69 -12 -84 3 -7 7 -16 29 -20 50 -9 48 -24 47
-32 -3 -4 -22 -10 -40 -15 -40 -5 0 -9 5 -9 10 0 6 -18 10 -40 10 -33 0 -40
-3 -40 -20 0 -17 -7 -20 -40 -20 -33 0 -40 -3 -40 -20 0 -16 7 -20 36 -20 23
0 43 -7 53 -18 9 -10 24 -21 34 -25 21 -8 23 -37 2 -37 -9 0 -19 8 -22 18 -9
22 -29 42 -42 42 -16 0 -13 -20 4 -26 8 -4 15 -15 15 -25 0 -16 -3 -18 -19
-10 -14 8 -24 6 -41 -9 l-22 -19 39 6 c21 3 40 7 42 9 2 2 12 -3 22 -12 19
-17 39 -11 39 12 0 8 5 14 10 14 6 0 10 7 10 15 0 11 11 15 40 15 28 0 40 -4
40 -14 0 -8 7 -17 16 -20 8 -3 12 -10 9 -16 -4 -6 18 -10 60 -10 60 0 68 -3
95 -30 17 -17 30 -32 30 -34 0 -2 -13 -6 -29 -8 -17 -2 -28 -2 -26 2 2 3 -27
6 -66 7 -53 1 -69 -2 -69 -13 0 -8 9 -14 20 -14 11 0 20 5 20 10 0 6 5 10 10
10 6 0 10 -9 10 -20 0 -11 7 -20 15 -20 8 0 15 -9 15 -20 0 -11 -7 -20 -15
-20 -8 0 -15 -5 -15 -12 0 -9 -3 -8 -12 1 -10 11 -10 14 0 18 6 3 12 10 12 17
0 15 -89 27 -133 19 -49 -9 -32 -33 23 -33 47 0 63 -11 40 -25 -12 -8 -13 -55
-1 -55 5 0 11 9 14 20 6 25 25 26 34 3 4 -10 11 -22 17 -26 6 -4 0 -7 -14 -6
-14 1 -41 1 -59 1 -54 -3 -24 -21 39 -25 57 -3 80 -11 80 -28 0 -6 -5 -7 -11
-4 -6 4 -31 -1 -56 -10 -35 -14 -47 -15 -53 -5 -8 13 -30 6 -30 -9 0 -4 54
-11 121 -14 124 -6 149 -14 149 -49 0 -21 -19 -22 -62 -3 -15 6 -18 2 -18 -19
0 -24 4 -26 40 -26 29 0 40 -4 40 -15 0 -11 11 -15 40 -15 22 0 40 -4 40 -10
0 -5 10 -10 23 -10 22 -1 22 -1 -3 -14 -21 -12 -30 -12 -60 0 -23 10 -36 11
-38 4 -2 -6 -38 -11 -85 -11 l-82 -1 65 -9 c74 -10 177 -28 203 -35 23 -7 22
-20 -3 -27 -35 -9 -23 -35 23 -48 l42 -12 -30 -7 c-29 -6 -28 -6 15 -14 25 -4
55 -7 68 -7 12 1 22 -5 22 -12 0 -7 -12 -12 -27 -12 -16 0 -28 -4 -28 -10 0
-5 12 -10 28 -10 15 0 27 -3 27 -7 0 -5 19 -9 43 -10 32 -1 27 -3 -23 -7 l-65
-6 80 -12 c44 -7 106 -15 138 -19 93 -10 58 -17 -85 -15 -72 1 -129 -2 -124
-6 4 -4 83 -11 174 -15 92 -4 188 -10 215 -13 39 -6 47 -4 47 9 0 12 10 16 43
15 l42 -2 -35 -6 -35 -6 28 -28 c15 -15 32 -25 38 -21 17 10 25 -10 21 -59 -3
-40 -7 -44 -28 -44 -14 0 -28 -4 -32 -7 -9 -10 18 -26 44 -26 11 0 33 -13 48
-29 l27 -28 -28 3 c-15 2 -20 1 -10 -2 9 -3 17 -10 17 -16 0 -5 7 -7 16 -4 8
3 31 -1 51 -9 35 -15 35 -16 17 -30 -10 -8 -26 -15 -34 -15 -8 -1 8 -9 35 -19
36 -13 51 -24 53 -38 2 -14 -3 -23 -15 -26 -12 -3 -10 -5 8 -6 15 0 29 -7 32
-15 3 -7 21 -16 41 -19 19 -3 47 -14 63 -25 18 -13 65 -26 128 -36 163 -25
406 -58 465 -62 30 -2 78 -7 105 -12 l50 -8 -34 -8 c-18 -4 -35 -16 -38 -25
-3 -12 -29 -22 -91 -36 -80 -17 -101 -27 -102 -47 0 -5 21 -8 48 -8 30 0 42
-3 33 -9 -23 -15 84 -44 135 -37 26 3 44 2 44 -4 0 -6 -7 -10 -15 -10 -8 0
-15 -5 -15 -11 0 -7 7 -8 18 -4 50 20 76 22 144 11 42 -7 76 -9 79 -4 3 5 17
6 31 3 13 -3 31 -8 39 -9 8 -2 22 -7 33 -11 11 -5 26 -4 35 2 11 7 31 6 65 -3
28 -7 52 -11 55 -9 2 3 -1 5 -7 5 -7 0 -12 3 -12 8 0 4 42 7 93 8 116 1 244
12 277 23 14 5 72 12 130 15 120 7 141 10 155 18 12 7 57 11 100 8 26 -1 27
-3 10 -10 -11 -5 -36 -9 -56 -9 -19 -1 -39 -5 -45 -10 -9 -9 -85 -18 -223 -25
-38 -3 -67 -9 -72 -17 -8 -14 -237 -30 -477 -33 -72 0 -132 -4 -132 -8 0 -4
-17 -10 -37 -14 -21 -4 -40 -10 -43 -13 -3 -3 -22 -15 -42 -25 -23 -12 -38
-26 -38 -38 0 -11 -7 -18 -20 -18 -11 0 -20 -5 -20 -11 0 -7 -10 -9 -25 -7
-42 8 -16 -11 30 -23 29 -7 47 -18 51 -31 6 -21 -6 -41 -13 -22 -2 7 -13 10
-24 7 -34 -9 75 -53 132 -53 42 0 49 -3 49 -20 0 -17 7 -20 40 -20 22 0 40 4
40 9 0 18 55 -5 58 -25 3 -18 2 -18 -11 -1 -18 21 -47 22 -47 1 0 -12 -10 -15
-45 -13 -30 2 -50 -2 -63 -14 -15 -13 -21 -14 -31 -4 -11 9 -14 9 -18 0 -3 -7
-10 -13 -16 -13 -6 0 -21 -10 -34 -22 -29 -28 -37 -19 -35 40 l2 47 -20 -38
c-16 -29 -18 -42 -10 -57 6 -11 8 -35 5 -53 -5 -24 -2 -37 9 -46 14 -12 16 -9
16 21 0 37 -10 31 128 68 23 6 32 5 32 -4 0 -7 -23 -18 -51 -24 -49 -12 -79
-31 -79 -50 0 -13 -36 -52 -48 -52 -6 0 -22 16 -36 36 -14 21 -27 31 -31 25
-3 -6 -22 -11 -41 -11 -19 0 -34 -4 -34 -10 0 -5 13 -10 29 -10 31 0 65 -25
56 -41 -4 -5 -8 -9 -11 -9 -3 0 -2 5 2 11 5 9 -4 10 -32 5 -21 -4 -40 -12 -42
-17 -2 -5 -11 -9 -19 -9 -9 0 -33 -5 -54 -12 -29 -8 -36 -14 -29 -24 6 -6 18
-10 28 -7 9 2 26 -3 37 -11 18 -13 10 -14 -85 -11 -58 3 -179 7 -270 10 -91 3
-242 14 -337 25 -164 18 -212 25 -348 50 -33 6 -87 15 -120 21 -91 15 -490
109 -545 128 -14 5 -52 16 -85 26 -33 9 -78 22 -100 30 -122 41 -226 79 -273
101 -29 13 -59 24 -67 24 -7 0 -16 4 -19 9 -3 4 -27 16 -53 26 -97 36 -390
187 -450 231 -17 13 -36 24 -40 24 -5 0 -24 13 -43 30 -19 16 -39 29 -43 30
-10 0 -85 52 -112 77 -11 10 -47 39 -80 64 -33 26 -79 67 -103 93 -23 25 -46
46 -51 46 -5 0 -11 9 -14 20 -3 11 -10 20 -17 20 -16 0 2 -24 76 -101 330
-349 803 -604 1424 -769 280 -75 376 -97 560 -130 63 -12 138 -26 165 -32 172
-35 508 -73 830 -94 321 -20 731 -14 1041 17 115 11 238 23 273 26 36 3 76 12
89 19 13 7 30 10 37 7 13 -4 212 28 285 47 19 5 57 12 85 16 61 7 277 61 485
119 975 275 1687 751 2072 1386 25 41 49 85 53 99 4 14 13 39 20 55 21 49 28
70 27 76 -1 4 3 22 9 40 26 89 50 372 29 339 -5 -8 -10 -25 -10 -37 0 -46 -15
-21 -16 26 0 51 -22 131 -34 131 -14 0 -29 55 -33 118 -2 34 -7 65 -11 69 -3
3 -6 0 -6 -8 0 -8 -5 -77 -10 -154 -14 -190 -38 -305 -77 -378 -8 -15 -17 -40
-19 -55 -3 -15 -9 -31 -15 -37 -5 -5 -9 -19 -9 -32 0 -13 -6 -23 -14 -23 -8 0
-17 -14 -21 -30 -8 -36 -18 -38 -33 -7 -21 42 -24 83 -7 97 18 15 20 40 3 40
-6 0 -4 8 6 19 10 11 16 30 14 43 -3 21 -5 21 -22 -12 -11 -19 -19 -44 -20
-55 -1 -15 -10 -21 -36 -25 -28 -4 -38 -12 -49 -37 -8 -18 -21 -33 -28 -33 -8
0 -22 -13 -31 -30 -9 -16 -20 -30 -24 -30 -5 0 -8 -8 -8 -18 0 -33 -24 -72
-41 -67 -10 4 -20 -6 -30 -32 -8 -20 -13 -41 -11 -46 1 -5 -2 -5 -9 -2 -6 4
-23 -4 -37 -18 -20 -19 -31 -24 -42 -16 -13 8 -13 11 3 20 15 9 25 49 12 49
-3 0 -23 -17 -45 -38 -37 -35 -53 -72 -30 -72 6 0 10 7 10 15 0 8 6 15 14 15
29 0 13 -67 -23 -103 l-34 -33 -24 22 c-12 12 -23 28 -23 35 0 12 -2 12 -9 1
-7 -11 -10 -10 -15 3 -9 25 -7 65 3 65 5 0 13 9 16 20 6 19 62 56 78 52 4 -1
4 10 1 25 -7 25 -6 27 9 15 9 -8 21 -11 28 -7 8 6 7 10 -2 16 -10 6 -11 11 -3
17 6 4 14 17 18 30 9 26 21 28 36 5 9 -15 12 -15 17 -4 3 8 17 26 31 40 20 20
25 34 23 65 l-2 39 19 -23 19 -23 32 34 c18 18 37 53 44 76 6 24 14 43 18 43
4 0 5 9 2 20 -8 30 14 24 25 -7 l10 -28 0 30 c1 61 7 80 29 90 15 6 21 16 18
26 -3 9 1 29 10 45 8 16 15 34 15 40 0 7 7 15 16 18 10 4 13 13 9 28 -4 16 -4
19 3 9 16 -22 29 -5 37 46 3 27 13 58 21 70 8 12 14 29 14 37 0 7 7 17 16 20
11 4 14 13 10 30 -3 12 -2 26 2 30 18 19 55 276 49 346 -10 122 -47 282 -90
390 -8 19 -20 49 -26 67 -7 18 -18 31 -24 30 -7 -1 -11 4 -9 12 5 24 -8 49
-30 54 -14 4 -19 11 -14 22 3 9 -1 26 -10 38 -15 22 -15 22 -8 -5 3 -17 2 -28
-4 -28 -5 0 -13 12 -17 27 -5 22 -8 24 -16 12 -8 -11 -9 -10 -7 6 3 13 10 19
22 17 15 -3 16 0 5 20 -8 14 -14 18 -17 10 -6 -19 -30 -14 -37 8 -3 11 -4 28
-1 38 4 12 -3 27 -21 43 -20 17 -23 18 -10 3 21 -25 24 -52 4 -35 -8 6 -17 8
-21 4 -4 -4 -4 0 0 10 4 11 1 17 -8 17 -14 0 -49 35 -42 43 2 2 -5 12 -16 22
-22 20 -26 14 -10 -16 7 -13 7 -19 0 -19 -5 0 -10 7 -10 15 0 9 -9 15 -23 15
-28 0 -47 17 -47 42 0 17 -13 25 -67 42 -17 6 -22 2 -25 -16 -3 -18 -7 -14
-16 20 -8 24 -19 42 -27 42 -16 0 -48 -66 -40 -80 3 -5 1 -19 -5 -32 -6 -16
-8 13 -5 92 3 97 2 106 -5 55 -5 -33 -16 -87 -24 -120 l-14 -60 1 114 c2 84
-1 115 -10 118 -7 3 -13 14 -13 26 1 22 1 22 15 3 8 -11 15 -15 15 -9 0 7 -8
19 -17 29 -13 13 -14 19 -5 22 6 2 12 8 12 14 0 6 -6 5 -15 -2 -9 -7 -19 -10
-23 -6 -3 4 -8 62 -9 129 -1 67 -5 160 -8 205 -5 78 -4 84 15 89 23 6 37 40
22 55 -8 8 -9 4 -5 -12 5 -18 2 -21 -13 -18 -18 3 -25 24 -25 73 0 11 0 41 0
68 0 34 4 47 14 47 23 0 29 103 9 174 -12 43 -13 61 -5 63 8 3 8 13 -2 37 -8
18 -16 69 -18 113 -2 44 -7 85 -10 90 -4 6 0 29 8 52 15 43 12 64 -13 94 -9
10 -11 17 -4 17 7 0 11 34 12 98 0 53 2 130 3 170 1 39 -2 73 -6 75 -5 1 3 15
17 30 23 25 23 27 6 27 -25 0 -30 23 -28 130 0 47 -2 127 -7 178 -6 81 -5 92
9 92 19 0 21 11 4 28 -8 8 -8 15 1 25 6 8 9 21 7 28 -3 8 -7 74 -10 146 -2 73
-8 137 -11 144 -4 6 -9 56 -11 112 -1 56 -3 114 -4 130 -1 33 -19 34 -42 2z
m42 -161 c0 -8 -5 -12 -10 -9 -6 4 -8 11 -5 16 9 14 15 11 15 -7z m0 -544 c0
-5 -2 -10 -4 -10 -3 0 -8 5 -11 10 -3 6 -1 10 4 10 6 0 11 -4 11 -10z m-966
-1941 c8 -41 8 -94 -1 -86 -3 4 -6 23 -5 42 1 19 -3 35 -8 35 -6 0 -10 9 -10
20 0 31 17 23 24 -11z m166 -58 c0 -5 3 -17 7 -26 5 -16 4 -15 -15 1 -26 22
-28 34 -7 34 8 0 15 -4 15 -9z m160 -16 c0 -18 -5 -25 -20 -25 -11 0 -20 -7
-20 -15 0 -8 -9 -15 -20 -15 -11 0 -20 -4 -20 -10 0 -5 -11 -10 -24 -10 -14 0
-28 5 -31 10 -3 6 3 10 14 10 12 0 21 4 21 8 0 5 11 14 25 20 28 13 34 32 10
32 -8 0 -15 5 -15 10 0 6 18 10 40 10 36 0 40 -2 40 -25z m-215 -50 c0 -10 -6
-20 -12 -22 -8 -3 -13 5 -13 22 0 17 5 25 13 23 6 -3 12 -13 12 -23z m-505
-14 c0 -5 -9 -11 -20 -14 -11 -3 -20 -10 -20 -17 0 -7 9 -14 20 -17 21 -6 28
-23 9 -23 -7 0 -22 -12 -35 -26 -21 -22 -26 -24 -39 -10 -23 22 -18 36 13 37
16 1 20 3 10 6 -12 3 -18 14 -18 33 0 29 11 36 58 39 12 0 22 -3 22 -8z m182
-36 c2 -30 -1 -45 -9 -45 -6 0 -13 -6 -15 -12 -3 -8 -10 -3 -18 11 -11 21 -10
26 4 36 9 7 16 22 16 34 0 40 18 21 22 -24z m116 33 c-6 -18 -28 -21 -28 -4 0
9 7 16 16 16 9 0 14 -5 12 -12z m142 -7 c-5 -11 -19 -23 -31 -26 -14 -5 -19
-13 -16 -26 4 -16 0 -19 -35 -19 l-40 0 36 36 c20 20 36 40 36 45 0 5 14 9 30
9 27 0 30 -2 20 -19z m300 15 c0 -3 -4 -8 -10 -11 -5 -3 -10 -1 -10 4 0 6 5
11 10 11 6 0 10 -2 10 -4z m310 -88 c0 -98 -7 -118 -11 -28 -1 30 -6 61 -12
68 -6 8 -6 12 2 12 6 0 11 9 11 20 0 11 2 20 5 20 3 0 5 -41 5 -92z m-787 32
c3 -13 0 -20 -9 -20 -8 0 -14 9 -14 20 0 11 4 20 9 20 5 0 11 -9 14 -20z m457
-5 c0 -8 -9 -15 -20 -15 -22 0 -27 15 -7 23 21 9 27 7 27 -8z m-97 -12 c-7 -2
-19 -2 -25 0 -7 3 -2 5 12 5 14 0 19 -2 13 -5z m-303 -52 c0 -12 -3 -12 -12
-3 -18 18 -28 15 -38 -10 l-9 -23 0 23 c-1 12 3 22 8 22 5 0 13 10 17 22 6 21
7 21 20 3 8 -10 14 -26 14 -34z m149 20 c-6 -2 -18 4 -27 13 -15 15 -15 15 10
4 15 -7 23 -15 17 -17z m-229 -1 c0 -5 -4 -10 -9 -10 -6 0 -13 5 -16 10 -3 6
1 10 9 10 9 0 16 -4 16 -10z m180 -24 c0 -3 -4 -8 -10 -11 -5 -3 -10 -1 -10 4
0 6 5 11 10 11 6 0 10 -2 10 -4z m87 -22 c-3 -3 -12 -4 -19 -1 -8 3 -5 6 6 6
11 1 17 -2 13 -5z m158 -14 c-3 -5 -10 -10 -16 -10 -5 0 -9 5 -9 10 0 6 7 10
16 10 8 0 12 -4 9 -10z m-544 -51 c8 -16 6 -19 -13 -20 -13 -1 -27 -1 -32 0
-4 1 -15 -4 -22 -10 -10 -8 -18 -9 -25 -2 -7 7 0 12 20 16 22 5 31 12 31 26 0
25 26 18 41 -10z m116 25 c-3 -3 -12 -4 -19 -1 -8 3 -5 6 6 6 11 1 17 -2 13
-5z m-50 -10 c-3 -3 -12 -4 -19 -1 -8 3 -5 6 6 6 11 1 17 -2 13 -5z m51 -60
c-3 -3 -26 -7 -49 -9 -24 -2 -57 -10 -74 -19 -37 -20 -47 -10 -15 14 18 14 42
20 84 20 33 0 57 -3 54 -6z m145 -11 c-13 -2 -33 -2 -45 0 -13 2 -3 4 22 4 25
0 35 -2 23 -4z m884 -69 c0 -36 -4 -67 -9 -70 -9 -6 -11 60 -2 105 4 17 8 31
9 31 2 0 3 -29 2 -66z m-1267 26 c0 -21 -12 -24 -45 -10 -19 8 -19 8 5 18 36
15 40 14 40 -8z m55 10 c3 -5 -3 -10 -15 -10 -12 0 -18 5 -15 10 3 6 10 10 15
10 5 0 12 -4 15 -10z m-218 -6 c-3 -3 -12 -4 -19 -1 -8 3 -5 6 6 6 11 1 17 -2
13 -5z m396 -1 c-7 -2 -21 -2 -30 0 -10 3 -4 5 12 5 17 0 24 -2 18 -5z m87
-13 c0 -5 -4 -10 -9 -10 -6 0 -13 5 -16 10 -3 6 1 10 9 10 9 0 16 -4 16 -10z
m727 -22 c-3 -7 -5 -2 -5 12 0 14 2 19 5 13 2 -7 2 -19 0 -25z m29 -66 c-11
-10 -13 3 -7 48 l6 45 3 -44 c2 -23 1 -46 -2 -49z m-1476 23 c0 -22 -4 -25
-40 -25 -22 0 -40 5 -40 10 0 6 11 10 24 10 13 0 26 7 30 15 9 24 26 17 26
-10z m580 -5 c0 -10 -4 -22 -10 -25 -6 -4 -10 7 -10 25 0 18 4 29 10 25 6 -3
10 -15 10 -25z m-285 10 c3 -5 -3 -10 -15 -10 -12 0 -18 5 -15 10 3 6 10 10
15 10 5 0 12 -4 15 -10z m-455 -50 l0 -40 51 0 c31 0 48 -4 44 -10 -3 -5 -26
-10 -50 -10 -33 0 -44 -4 -47 -17 -3 -16 -6 -15 -28 7 l-25 25 23 3 c29 4 28
18 -3 38 -35 23 -32 44 5 44 28 0 30 -2 30 -40z m403 21 c2 -10 2 -31 0 -45
-5 -23 -10 -26 -43 -26 -21 0 -40 -5 -42 -12 -2 -6 -10 -8 -16 -4 -25 15 -11
26 33 26 l45 0 0 40 c0 41 14 54 23 21z m257 15 c0 -3 -4 -8 -10 -11 -5 -3
-10 -1 -10 4 0 6 5 11 10 11 6 0 10 -2 10 -4z m875 -6 c-3 -5 -12 -7 -20 -3
-21 7 -19 13 6 13 11 0 18 -4 14 -10z m-1334 -51 c8 -16 6 -19 -16 -19 -14 0
-25 -5 -25 -11 0 -5 -5 -7 -12 -3 -9 6 -9 9 0 12 7 2 12 14 12 28 0 27 24 23
41 -7z m359 21 c0 -5 -20 -10 -45 -10 -25 0 -45 5 -45 10 0 6 20 10 45 10 25
0 45 -4 45 -10z m585 0 c3 -5 -1 -10 -9 -10 -9 0 -16 5 -16 10 0 6 4 10 9 10
6 0 13 -4 16 -10z m-1205 -25 c0 -8 -4 -15 -10 -15 -5 0 -10 7 -10 15 0 8 5
15 10 15 6 0 10 -7 10 -15z m515 -5 c3 -5 -3 -10 -15 -10 -12 0 -18 5 -15 10
3 6 10 10 15 10 5 0 12 -4 15 -10z m1375 0 c0 -5 -4 -10 -10 -10 -5 0 -10 5
-10 10 0 6 5 10 10 10 6 0 10 -4 10 -10z m-923 -6 c-3 -3 -12 -4 -19 -1 -8 3
-5 6 6 6 11 1 17 -2 13 -5z m693 -14 c0 -5 -2 -10 -4 -10 -3 0 -8 5 -11 10 -3
6 -1 10 4 10 6 0 11 -4 11 -10z m240 -26 c0 -2 -7 -4 -15 -4 -8 0 -15 4 -15
10 0 5 7 7 15 4 8 -4 15 -8 15 -10z m-1710 -4 c0 -5 -4 -10 -10 -10 -5 0 -10
5 -10 10 0 6 5 10 10 10 6 0 10 -4 10 -10z m1317 -12 c-3 -8 -6 -5 -6 6 -1 11
2 17 5 13 3 -3 4 -12 1 -19z m-1179 -16 c2 -7 -3 -12 -12 -12 -9 0 -16 7 -16
16 0 17 22 14 28 -4z m1799 -4 c-3 -8 -6 -5 -6 6 -1 11 2 17 5 13 3 -3 4 -12
1 -19z m-547 2 c0 -5 -5 -10 -11 -10 -5 0 -7 5 -4 10 3 6 8 10 11 10 2 0 4 -4
4 -10z m-1697 -7 c-13 -2 -33 -2 -45 0 -13 2 -3 4 22 4 25 0 35 -2 23 -4z
m1317 3 c0 -2 -7 -7 -16 -10 -8 -3 -12 -2 -9 4 6 10 25 14 25 6z m240 -10 c0
-3 -4 -8 -10 -11 -5 -3 -10 -1 -10 4 0 6 5 11 10 11 6 0 10 -2 10 -4z m-890
-36 c0 -5 -4 -10 -10 -10 -5 0 -10 5 -10 10 0 6 5 10 10 10 6 0 10 -4 10 -10z
m390 0 c0 -5 -9 -10 -20 -10 -11 0 -20 5 -20 10 0 6 9 10 20 10 11 0 20 -4 20
-10z m210 0 c0 -5 -4 -10 -10 -10 -5 0 -10 5 -10 10 0 6 5 10 10 10 6 0 10 -4
10 -10z m1180 -5 c0 -8 -4 -15 -10 -15 -5 0 -7 7 -4 15 4 8 8 15 10 15 2 0 4
-7 4 -15z m-2991 -16 c7 10 10 10 16 1 4 -7 1 -16 -6 -21 -11 -8 -10 -12 6
-25 17 -13 18 -16 5 -24 -11 -7 -16 -5 -18 10 -3 16 -11 20 -43 20 -35 0 -39
3 -39 24 0 23 2 24 36 13 28 -8 37 -8 43 2z m721 -9 c0 -5 -4 -10 -10 -10 -5
0 -10 5 -10 10 0 6 5 10 10 10 6 0 10 -4 10 -10z m960 0 c0 -5 -4 -10 -10 -10
-5 0 -10 5 -10 10 0 6 5 10 10 10 6 0 10 -4 10 -10z m-1440 -29 c0 -12 -9 -21
-25 -25 -14 -4 -25 -13 -25 -21 0 -8 -7 -15 -15 -15 -18 0 -20 33 -3 60 17 27
68 28 68 1z m345 9 c-3 -5 -10 -10 -16 -10 -5 0 -9 5 -9 10 0 6 7 10 16 10 8
0 12 -4 9 -10z m1728 3 c-7 -2 -19 -2 -25 0 -7 3 -2 5 12 5 14 0 19 -2 13 -5z
m37 0 c0 -5 -5 -15 -10 -23 -8 -12 -10 -11 -10 8 0 12 5 22 10 22 6 0 10 -3
10 -7z m-3064 -67 c16 -16 19 -86 4 -86 -5 0 -10 18 -10 40 0 30 -4 40 -16 40
-8 0 -12 5 -9 10 8 13 14 13 31 -4z m820 -6 c21 0 24 -4 24 -40 l0 -40 -90 0
-90 0 0 40 0 40 48 0 c26 0 54 5 62 10 10 6 16 6 18 0 2 -6 15 -10 28 -10z
m2209 0 c-3 -5 -13 -10 -21 -10 -8 0 -14 5 -14 10 0 6 9 10 21 10 11 0 17 -4
14 -10z m-60 -60 c3 -5 1 -10 -4 -10 -6 0 -11 5 -11 10 0 6 2 10 4 10 3 0 8
-4 11 -10z m-225 -16 c0 -2 -7 -4 -15 -4 -8 0 -15 4 -15 10 0 5 7 7 15 4 8 -4
15 -8 15 -10z m-3310 -20 c0 -17 -22 -14 -28 4 -2 7 3 12 12 12 9 0 16 -7 16
-16z m718 -34 c-2 -6 -8 -6 -18 0 -13 9 -13 11 0 20 15 10 25 0 18 -20z m-478
10 c0 -5 -18 -10 -40 -10 -22 0 -40 5 -40 10 0 6 18 10 40 10 22 0 40 -4 40
-10z m160 -5 c0 -8 -7 -15 -15 -15 -8 0 -15 7 -15 15 0 8 7 15 15 15 8 0 15
-7 15 -15z m260 -25 c11 -7 7 -10 -17 -10 -17 0 -33 -6 -36 -12 -2 -7 -8 -9
-13 -5 -5 5 -1 15 10 23 23 16 35 17 56 4z m-506 -32 c8 -33 7 -58 -3 -58 -5
0 -11 9 -14 21 -7 28 -32 19 -32 -12 0 -13 -6 -24 -13 -24 -15 0 -16 6 -8 55
6 36 9 40 35 40 21 0 30 -6 35 -22z m86 12 c0 -5 -18 -10 -40 -10 -22 0 -40 5
-40 10 0 6 18 10 40 10 22 0 40 -4 40 -10z m480 0 c0 -5 -9 -10 -20 -10 -11 0
-23 -7 -26 -15 -4 -8 -13 -15 -21 -15 -11 0 -13 -7 -9 -26 6 -24 5 -25 -9 -11
-17 18 -20 37 -5 37 6 0 10 7 10 15 0 8 9 15 20 15 11 0 20 5 20 10 0 6 9 10
20 10 11 0 20 -4 20 -10z m590 -5 c-7 -8 -16 -15 -21 -15 -5 0 -9 7 -9 15 0 9
9 15 21 15 18 0 19 -2 9 -15z m-1415 -65 c8 0 15 6 16 13 0 10 2 10 6 0 3 -8
25 -14 51 -14 35 -2 24 -4 -40 -12 -63 -7 -88 -13 -88 -23 0 -8 -7 -14 -15
-14 -8 0 -15 7 -15 15 0 8 5 15 11 15 15 0 39 26 39 42 0 8 4 7 11 -4 5 -10
17 -18 24 -18z m685 15 c0 -8 -4 -15 -10 -15 -5 0 -10 7 -10 15 0 8 5 15 10
15 6 0 10 -7 10 -15z m164 -26 c-8 -13 -21 -11 -27 5 -4 10 0 12 14 9 10 -3
16 -9 13 -14z m-212 -1 c-9 -9 -15 -9 -24 0 -9 9 -7 12 12 12 19 0 21 -3 12
-12z m283 2 c-3 -5 -12 -10 -20 -10 -8 0 -17 5 -20 10 -4 6 5 10 20 10 15 0
24 -4 20 -10z m-235 -21 c0 -5 -4 -9 -10 -9 -5 0 -10 7 -10 16 0 8 5 12 10 9
6 -3 10 -10 10 -16z m36 -6 c-10 -10 -19 5 -10 18 6 11 8 11 12 0 2 -7 1 -15
-2 -18z m212 -14 c1 -8 -4 -23 -12 -34 -15 -19 -15 -18 -16 18 0 27 4 37 13
35 6 -3 13 -11 15 -19z m-1033 -19 c3 -5 -3 -10 -14 -10 -12 0 -21 5 -21 10 0
6 6 10 14 10 8 0 18 -4 21 -10z m822 -6 c-3 -3 -12 -4 -19 -1 -8 3 -5 6 6 6
11 1 17 -2 13 -5z m340 -10 c-3 -3 -12 -4 -19 -1 -8 3 -5 6 6 6 11 1 17 -2 13
-5z m183 0 c0 -7 -27 -34 -35 -34 -3 0 -1 9 5 20 10 18 30 28 30 14z m697 0
c-3 -3 -12 -4 -19 -1 -8 3 -5 6 6 6 11 1 17 -2 13 -5z m-783 -19 c3 -8 1 -15
-4 -15 -6 0 -10 7 -10 15 0 8 2 15 4 15 2 0 6 -7 10 -15z m-1558 -6 c10 -17
-13 -36 -27 -22 -12 12 -4 33 11 33 5 0 12 -5 16 -11z m-376 -29 c0 -11 -6
-20 -14 -20 -9 0 -12 7 -9 20 3 11 9 20 14 20 5 0 9 -9 9 -20z m268 -8 c2 -7
-3 -12 -12 -12 -9 0 -16 7 -16 16 0 17 22 14 28 -4z m353 -21 c-25 -25 -47
-27 -55 -6 -4 11 2 15 23 15 18 0 32 7 36 18 5 11 9 13 12 5 2 -6 -5 -21 -16
-32z m2092 32 c-7 -2 -19 -2 -25 0 -7 3 -2 5 12 5 14 0 19 -2 13 -5z m-2378
-13 c3 -5 1 -10 -4 -10 -6 0 -11 5 -11 10 0 6 2 10 4 10 3 0 8 -4 11 -10z m65
0 c0 -5 -5 -10 -11 -10 -5 0 -7 5 -4 10 3 6 8 10 11 10 2 0 4 -4 4 -10z m101
-3 c-1 -4 -1 -25 -1 -47 0 -35 -3 -40 -24 -40 -13 0 -29 -7 -36 -15 -7 -8 -18
-15 -24 -15 -6 0 -3 5 7 11 9 5 17 19 17 30 0 12 8 23 20 26 14 4 20 14 20 35
0 17 5 28 11 26 6 -2 10 -7 10 -11z m-367 -22 c-4 -8 -10 -15 -14 -15 -4 0
-10 7 -14 15 -4 10 1 15 14 15 13 0 18 -5 14 -15z m70 0 c-4 -9 -15 -20 -25
-26 -11 -5 -19 -16 -19 -24 0 -8 -5 -15 -10 -15 -7 0 -7 6 0 19 5 11 10 29 10
40 0 16 6 21 25 21 18 0 23 -4 19 -15z m1076 5 c0 -5 -2 -10 -4 -10 -3 0 -8 5
-11 10 -3 6 -1 10 4 10 6 0 11 -4 11 -10z m77 4 c-3 -3 -12 -4 -19 -1 -8 3 -5
6 6 6 11 1 17 -2 13 -5z m-1267 -72 c-14 -5 -12 -82 2 -82 6 0 9 -2 6 -5 -3
-3 -13 -3 -22 1 -18 7 -24 84 -6 84 6 0 10 8 10 18 0 14 2 15 10 2 6 -10 6
-16 0 -18z m550 13 c0 -8 -4 -15 -10 -15 -5 0 -10 7 -10 15 0 8 5 15 10 15 6
0 10 -7 10 -15z m-240 -31 c0 -23 6 -42 18 -50 16 -12 15 -13 -5 -14 -20 0
-23 5 -23 40 0 38 -2 40 -29 40 -28 0 -30 -3 -34 -42 -3 -41 -4 -41 -5 10 l-2
52 40 0 c39 0 40 -1 40 -36z m-461 -1 c0 -10 -4 -27 -9 -38 -7 -16 -9 -13 -9
18 -1 20 4 37 9 37 6 0 10 -8 9 -17z m60 -20 c0 -31 -2 -34 -9 -18 -12 28 -12
55 0 55 6 0 10 -17 9 -37z m481 -13 c0 -5 -4 -10 -10 -10 -5 0 -10 5 -10 10 0
6 5 10 10 10 6 0 10 -4 10 -10z m-510 -45 c0 -8 -7 -15 -15 -15 -8 0 -15 7
-15 15 0 8 7 15 15 15 8 0 15 -7 15 -15z m1241 4 c-16 -6 -28 -6 -35 1 -7 7 1
10 25 9 32 0 33 -1 10 -10z m-1213 -68 c-15 -5 -21 7 -13 26 7 17 8 17 15 -2
4 -11 3 -22 -2 -24z m140 30 c11 -7 11 -9 -2 -14 -9 -4 -23 -4 -32 0 -13 5
-13 7 -2 14 7 5 15 9 18 9 3 0 11 -4 18 -9z m117 -21 c3 -5 1 -10 -4 -10 -6 0
-11 5 -11 10 0 6 2 10 4 10 3 0 8 -4 11 -10z m1808 -7 c-13 -2 -33 -2 -45 0
-13 2 -3 4 22 4 25 0 35 -2 23 -4z m-2126 -160 c-4 -3 -13 2 -22 11 -9 9 -12
16 -6 16 6 0 11 8 12 18 0 10 5 6 11 -11 5 -16 8 -31 5 -34z m1343 37 c0 -5
-18 -10 -40 -10 -22 0 -40 5 -40 10 0 6 18 10 40 10 22 0 40 -4 40 -10z
m-1440 -19 c0 -5 10 -12 23 -14 12 -2 3 -5 -20 -6 -41 -1 -58 11 -30 22 19 8
27 8 27 -2z m-120 -31 c0 -5 -7 -10 -15 -10 -7 0 -19 -8 -25 -17 -9 -17 -11
-17 -28 3 -10 12 -27 24 -38 27 -10 2 9 5 44 6 35 1 62 -3 62 -9z m40 -36 c0
-9 -5 -14 -12 -12 -18 6 -21 28 -4 28 9 0 16 -7 16 -16z m415 -24 c3 -5 1 -10
-4 -10 -6 0 -11 5 -11 10 0 6 2 10 4 10 3 0 8 -4 11 -10z m-285 -24 c0 -8 -7
-16 -15 -20 -8 -3 -15 -15 -15 -26 0 -11 -4 -20 -10 -20 -5 0 -10 9 -10 20 0
11 5 20 10 20 6 0 10 9 10 20 0 11 7 20 15 20 8 0 15 -6 15 -14z m5860 -1 c0
-8 -4 -15 -10 -15 -5 0 -10 7 -10 15 0 8 5 15 10 15 6 0 10 -7 10 -15z m-5913
-217 c-3 -8 -6 -5 -6 6 -1 11 2 17 5 13 3 -3 4 -12 1 -19z m-67 -22 c0 -22 19
-29 36 -15 11 9 11 5 -3 -19 -15 -27 -19 -28 -29 -14 -16 24 -24 62 -13 62 5
0 9 -6 9 -14z m735 -16 c3 -5 -1 -10 -9 -10 -9 0 -16 5 -16 10 0 6 4 10 9 10
6 0 13 -4 16 -10z m4776 -53 c-10 -9 -11 -8 -5 6 3 10 9 15 12 12 3 -3 0 -11
-7 -18z m-4841 -107 c0 -5 -9 -10 -20 -10 -11 0 -20 5 -20 10 0 6 9 10 20 10
11 0 20 -4 20 -10z m4750 -17 c0 -24 -46 -67 -55 -53 -4 6 0 19 9 29 9 10 16
23 16 29 0 7 7 12 15 12 8 0 15 -8 15 -17z m280 -18 c0 -8 -4 -15 -10 -15 -5
0 -10 7 -10 15 0 8 5 15 10 15 6 0 10 -7 10 -15z m-5422 -32 c-4 -22 -22 -20
-26 1 -2 10 3 16 13 16 10 0 15 -7 13 -17z m59 11 c-3 -3 -12 -4 -19 -1 -8 3
-5 6 6 6 11 1 17 -2 13 -5z m4913 -114 c0 -5 -5 -10 -11 -10 -5 0 -7 5 -4 10
3 6 8 10 11 10 2 0 4 -4 4 -10z m-20 -30 c0 -5 -5 -10 -11 -10 -5 0 -7 5 -4
10 3 6 8 10 11 10 2 0 4 -4 4 -10z m-153 -185 c-71 -57 -84 -66 -104 -71 -27
-7 -29 -22 -5 -40 15 -12 15 -13 0 -14 -9 0 -19 -6 -21 -12 -3 -8 -6 -6 -6 5
-1 9 -8 17 -16 17 -18 0 -20 -26 -2 -33 8 -3 6 -7 -5 -12 -22 -9 -58 3 -41 13
8 5 9 13 3 22 -8 13 -10 12 -10 -2 0 -9 -10 -19 -22 -21 l-23 -4 23 -8 c27 -9
29 -41 2 -48 -14 -4 -18 -10 -13 -22 4 -11 0 -21 -10 -27 -10 -5 -17 -18 -17
-28 0 -15 -7 -20 -26 -20 -23 0 -25 -2 -14 -15 11 -13 15 -13 21 -3 7 10 12 9
26 -5 16 -15 16 -19 3 -28 -8 -5 -29 -7 -46 -4 -21 4 -35 0 -44 -10 -10 -12
-10 -15 5 -15 31 0 12 -35 -21 -38 -26 -3 -33 -8 -38 -32 -4 -22 -13 -31 -33
-36 -15 -4 -41 -14 -58 -22 -16 -9 -43 -15 -58 -14 -24 2 -57 -16 -57 -31 0
-3 16 -8 35 -11 19 -4 35 -11 35 -16 0 -11 -56 -23 -70 -15 -5 3 -10 0 -10 -8
0 -8 -19 -20 -42 -27 -24 -7 -52 -22 -64 -32 -11 -10 -31 -18 -45 -18 -14 0
-29 -4 -34 -9 -6 -5 -29 -11 -52 -14 -41 -5 -42 -4 -32 20 5 13 13 33 19 43 7
13 6 20 -2 22 -7 3 -6 7 5 11 13 5 17 1 17 -14 0 -14 5 -19 17 -17 14 3 17 12
14 52 l-3 49 44 -6 c23 -3 35 -3 26 0 -22 6 -24 33 -3 33 8 0 15 5 15 10 0 6
-7 10 -15 10 -8 0 -15 7 -15 15 0 10 -10 15 -31 15 -27 0 -30 2 -19 15 10 12
10 15 -1 17 -8 0 -18 2 -24 3 -5 2 -20 3 -32 4 -34 2 -28 20 11 36 19 8 37 19
41 24 6 11 63 41 77 41 4 0 8 -9 8 -20 0 -24 13 -26 30 -6 9 11 18 12 37 5 42
-16 61 10 21 28 -23 11 -23 11 6 24 23 11 30 11 34 1 3 -9 12 -6 33 9 16 11
45 25 64 30 19 6 35 14 35 19 0 6 7 10 15 10 8 0 15 5 15 10 0 6 10 8 24 4 17
-4 27 0 35 13 8 14 13 15 19 5 6 -9 14 -4 30 18 13 16 31 30 42 30 10 0 31 12
45 26 20 20 32 24 51 20 20 -5 27 -3 31 12 2 11 14 24 26 30 12 5 33 15 47 21
53 24 81 46 101 81 l14 25 3 -25 c3 -17 -4 -31 -21 -45z m-2207 45 c0 -5 -4
-10 -10 -10 -5 0 -10 5 -10 10 0 6 5 10 10 10 6 0 10 -4 10 -10z m-2220 -15
c11 -13 8 -15 -14 -15 -23 0 -25 2 -14 15 16 18 13 18 28 0z m4549 -42 c0 -25
-1 -26 -9 -8 -12 27 -12 35 0 35 6 0 10 -12 9 -27z m-89 -56 c-8 -9 -10 -8 -5
6 4 10 2 17 -5 17 -6 0 -8 5 -4 11 5 8 10 6 16 -6 7 -11 6 -21 -2 -28z m60 23
c0 -11 -4 -20 -10 -20 -5 0 -10 9 -10 20 0 11 5 20 10 20 6 0 10 -9 10 -20z
m-387 -17 c-7 -2 -19 -2 -25 0 -7 3 -2 5 12 5 14 0 19 -2 13 -5z m244 -29 c-3
-3 -12 -4 -19 -1 -8 3 -5 6 6 6 11 1 17 -2 13 -5z m-477 -84 c0 -5 -9 -10 -21
-10 -11 0 -17 5 -14 10 3 6 13 10 21 10 8 0 14 -4 14 -10z m-50 -19 c0 -5 -7
-11 -15 -15 -9 -3 -15 0 -15 9 0 8 7 15 15 15 8 0 15 -4 15 -9z m-3580 -16 c0
-8 -7 -15 -15 -15 -16 0 -20 12 -8 23 11 12 23 8 23 -8z m3535 -5 c3 -5 -3
-10 -15 -10 -12 0 -18 5 -15 10 3 6 10 10 15 10 5 0 12 -4 15 -10z m495 0 c0
-5 -5 -10 -11 -10 -5 0 -7 5 -4 10 3 6 8 10 11 10 2 0 4 -4 4 -10z m-484 -30
c8 0 14 -4 14 -10 0 -5 -20 -10 -45 -10 -35 0 -45 4 -45 16 0 13 7 15 31 10
17 -3 38 -6 45 -6z m424 -15 c0 -8 -4 -15 -10 -15 -5 0 -10 7 -10 15 0 8 5 15
10 15 6 0 10 -7 10 -15z m-5 -53 c-3 -3 -11 0 -18 7 -9 10 -8 11 6 5 10 -3 15
-9 12 -12z m-518 2 c-3 -3 -12 -4 -19 -1 -8 3 -5 6 6 6 11 1 17 -2 13 -5z
m-217 -129 c0 -17 -5 -18 -51 -8 l-34 7 35 7 c19 3 38 7 43 8 4 0 7 -6 7 -14z
m-83 -21 c-3 -3 -12 -4 -19 -1 -8 3 -5 6 6 6 11 1 17 -2 13 -5z m-107 -34 c0
-5 -8 -10 -17 -10 -15 0 -16 2 -3 10 19 12 20 12 20 0z m240 -10 c0 -5 -2 -10
-4 -10 -3 0 -8 5 -11 10 -3 6 -1 10 4 10 6 0 11 -4 11 -10z m510 0 c0 -5 -7
-7 -15 -4 -8 4 -15 8 -15 10 0 2 7 4 15 4 8 0 15 -4 15 -10z m-807 -17 c-7 -2
-21 -2 -30 0 -10 3 -4 5 12 5 17 0 24 -2 18 -5z m327 -29 c0 -14 -4 -23 -10
-19 -5 3 -10 15 -10 26 0 10 5 19 10 19 6 0 10 -12 10 -26z m415 17 c3 -5 1
-12 -5 -16 -5 -3 -10 1 -10 9 0 18 6 21 15 7z m-42 -26 c-6 -18 -34 -16 -41 3
-2 7 6 12 22 12 19 0 24 -4 19 -15z m137 -1 c0 -8 -4 -12 -10 -9 -5 3 -10 10
-10 16 0 5 5 9 10 9 6 0 10 -7 10 -16z m47 -16 c-3 -7 -5 -2 -5 12 0 14 2 19
5 13 2 -7 2 -19 0 -25z m-77 2 c0 -5 -7 -10 -15 -10 -8 0 -15 5 -15 10 0 6 7
10 15 10 8 0 15 -4 15 -10z m-50 -30 c0 -5 -7 -10 -15 -10 -8 0 -15 5 -15 10
0 6 7 10 15 10 8 0 15 -4 15 -10z m-125 -42 l7 -23 6 24 c7 22 9 21 30 -19 25
-48 26 -50 12 -50 -5 0 -10 6 -10 14 0 8 -7 16 -15 20 -9 3 -15 0 -15 -9 0
-23 -17 -18 -23 6 -6 24 -30 21 -35 -4 -2 -10 3 -17 13 -17 9 0 13 -5 9 -11
-4 -8 -9 -8 -17 0 -6 6 -20 11 -31 11 -19 -1 -19 -1 -3 -11 9 -5 17 -17 17
-25 0 -23 -29 -28 -50 -9 -22 20 -47 14 -57 -12 -9 -23 -22 -37 -52 -53 -21
-11 -23 -10 -18 5 4 9 7 30 7 46 0 27 2 29 26 23 20 -5 26 -2 31 15 4 14 19
25 47 33 46 13 76 34 76 55 0 22 37 15 45 -9z m-1115 2 c-20 -13 -40 -13 -40
0 0 6 12 10 28 10 21 0 24 -2 12 -10z m-71 -14 c-9 -9 -136 -32 -150 -27 -21
7 59 29 110 30 24 1 42 -1 40 -3z m-209 -36 c0 -5 -9 -10 -21 -10 -11 0 -17 5
-14 10 3 6 13 10 21 10 8 0 14 -4 14 -10z m1276 -81 c3 -6 -1 -18 -10 -27 -15
-15 -16 -14 -16 11 0 27 13 36 26 16z m-116 -14 c0 -19 -56 -21 -64 -2 -3 6
-3 1 0 -13 6 -24 6 -24 -12 -7 -17 15 -17 19 -4 27 25 16 80 12 80 -5z m-15
-65 c3 -5 -3 -10 -15 -10 -12 0 -18 5 -15 10 3 6 10 10 15 10 5 0 12 -4 15
-10z m-2316 -127 c0 -31 -2 -34 -9 -18 -12 28 -12 55 0 55 6 0 10 -17 9 -37z
m421 -182 c0 -20 6 -30 20 -34 11 -3 20 -10 20 -16 0 -17 -25 -13 -41 7 -18
21 -25 72 -10 72 6 0 11 -13 11 -29z m-347 -18 c-7 -2 -19 -2 -25 0 -7 3 -2 5
12 5 14 0 19 -2 13 -5z"/>
<path d="M16792 3088 c-6 -6 -12 -17 -12 -24 0 -7 -6 -15 -12 -17 -7 -3 -3 -6
10 -6 23 -1 31 -26 10 -34 -7 -2 -10 -7 -7 -11 3 -3 14 -4 23 0 17 7 23 44 6
44 -19 0 -10 18 11 23 12 3 19 12 17 19 -6 18 -31 21 -46 6z"/>
<path d="M16608 2963 c6 -2 18 -2 25 0 6 3 1 5 -13 5 -14 0 -19 -2 -12 -5z"/>
<path d="M16715 2959 c-4 -6 -5 -13 -2 -16 7 -7 27 6 27 18 0 12 -17 12 -25
-2z"/>
<path d="M16664 2925 c-3 -8 -3 -19 0 -24 10 -16 36 -1 36 20 0 22 -28 26 -36
4z"/>
<path d="M16470 2879 c0 -5 5 -7 10 -4 6 3 10 8 10 11 0 2 -4 4 -10 4 -5 0
-10 -5 -10 -11z"/>
<path d="M16670 2865 c0 -8 5 -15 10 -15 6 0 10 7 10 15 0 8 -4 15 -10 15 -5
0 -10 -7 -10 -15z"/>
<path d="M16360 2785 c0 -8 9 -15 20 -15 11 0 20 7 20 15 0 8 -9 15 -20 15
-11 0 -20 -7 -20 -15z"/>
<path d="M16545 2790 c3 -5 8 -10 11 -10 2 0 4 5 4 10 0 6 -5 10 -11 10 -5 0
-7 -4 -4 -10z"/>
<path d="M16400 2661 c0 -5 -8 -12 -17 -14 -11 -3 -7 -5 10 -6 27 -1 36 12 17
24 -5 3 -10 2 -10 -4z"/>
<path d="M17114 8290 c0 -74 1 -105 3 -67 2 37 2 97 0 135 -2 37 -3 6 -3 -68z"/>
<path d="M18949 8395 c5 -11 24 -36 41 -55 27 -30 29 -31 11 -5 -32 47 -64 84
-52 60z"/>
<path d="M19060 8246 c0 -2 8 -10 18 -17 15 -13 16 -12 3 4 -13 16 -21 21 -21
13z"/>
<path d="M19141 8153 c7 -12 15 -20 18 -17 3 2 -3 12 -13 22 -17 16 -18 16 -5
-5z"/>
<path d="M17123 8040 c0 -25 2 -35 4 -22 2 12 2 32 0 45 -2 12 -4 2 -4 -23z"/>
<path d="M19220 8063 c0 -4 21 -30 46 -58 26 -27 40 -41 33 -30 -8 11 -16 22
-19 25 -3 3 -18 20 -33 38 -15 19 -27 30 -27 25z"/>
<path d="M17123 7955 c0 -22 2 -30 4 -17 2 12 2 30 0 40 -3 9 -5 -1 -4 -23z"/>
<path d="M17124 7680 c0 -124 2 -174 3 -112 2 61 2 163 0 225 -1 61 -3 11 -3
-113z"/>
<path d="M19380 7877 c0 -2 15 -16 33 -33 l32 -29 -29 33 c-28 30 -36 37 -36
29z"/>
<path d="M16763 7720 c0 -47 2 -66 4 -42 2 23 2 61 0 85 -2 23 -4 4 -4 -43z"/>
<path d="M19540 7701 c0 -10 19 -25 25 -20 1 2 -3 10 -11 17 -8 7 -14 8 -14 3z"/>
<path d="M17091 7634 c0 -11 3 -14 6 -6 3 7 2 16 -1 19 -3 4 -6 -2 -5 -13z"/>
<path d="M19590 7646 c0 -2 8 -10 18 -17 15 -13 16 -12 3 4 -13 16 -21 21 -21
13z"/>
<path d="M16760 7585 c0 -8 2 -15 4 -15 2 0 6 7 10 15 3 8 1 15 -4 15 -6 0
-10 -7 -10 -15z"/>
<path d="M19640 7596 c0 -2 8 -10 18 -17 15 -13 16 -12 3 4 -13 16 -21 21 -21
13z"/>
<path d="M17090 7564 c0 -14 4 -23 10 -19 6 3 10 15 10 26 0 10 -4 19 -10 19
-5 0 -10 -12 -10 -26z"/>
<path d="M19690 7542 c0 -12 19 -26 26 -19 2 2 -2 10 -11 17 -9 8 -15 8 -15 2z"/>
<path d="M19852 7375 c15 -16 29 -27 31 -24 3 2 -10 15 -27 28 l-31 24 27 -28z"/>
<path d="M19915 7310 c3 -5 8 -10 11 -10 2 0 4 5 4 10 0 6 -5 10 -11 10 -5 0
-7 -4 -4 -10z"/>
<path d="M19985 7240 c27 -27 54 -50 60 -50 5 0 -15 23 -44 50 -71 64 -79 64
-16 0z"/>
<path d="M17120 7115 c0 -41 4 -75 8 -75 4 0 8 34 9 75 1 41 -3 75 -8 75 -5 0
-9 -34 -9 -75z"/>
<path d="M20076 7156 c3 -8 13 -17 22 -21 13 -5 13 -2 -3 15 -21 24 -26 25
-19 6z"/>
<path d="M20137 7099 c7 -7 15 -10 18 -7 3 3 -2 9 -12 12 -14 6 -15 5 -6 -5z"/>
<path d="M17130 7006 c0 -14 -8 -33 -17 -42 -14 -14 -15 -17 -3 -12 14 5 16
-28 18 -270 2 -152 5 -278 7 -281 3 -2 5 138 5 312 0 175 -2 317 -5 317 -3 0
-5 -11 -5 -24z"/>
<path d="M20230 7016 c0 -2 8 -10 18 -17 15 -13 16 -12 3 4 -13 16 -21 21 -21
13z"/>
<path d="M20360 6902 c0 -4 10 -13 23 -21 22 -14 22 -14 3 8 -20 22 -26 25
-26 13z"/>
<path d="M20410 6856 c0 -2 8 -10 18 -17 15 -13 16 -12 3 4 -13 16 -21 21 -21
13z"/>
<path d="M20460 6816 c0 -2 8 -10 18 -17 15 -13 16 -12 3 4 -13 16 -21 21 -21
13z"/>
<path d="M20510 6766 c0 -2 7 -7 16 -10 8 -3 12 -2 9 4 -6 10 -25 14 -25 6z"/>
<path d="M20595 6700 c10 -11 20 -20 23 -20 3 0 -3 9 -13 20 -10 11 -20 20
-23 20 -3 0 3 -9 13 -20z"/>
<path d="M20800 6527 c0 -2 15 -16 33 -33 l32 -29 -29 33 c-28 30 -36 37 -36
29z"/>
<path d="M20915 6420 c10 -11 20 -20 23 -20 3 0 -3 9 -13 20 -10 11 -20 20
-23 20 -3 0 3 -9 13 -20z"/>
<path d="M17143 6280 c0 -25 2 -35 4 -22 2 12 2 32 0 45 -2 12 -4 2 -4 -23z"/>
<path d="M21100 6266 c0 -2 8 -10 18 -17 15 -13 16 -12 3 4 -13 16 -21 21 -21
13z"/>
<path d="M17136 6173 c-7 -48 -6 -141 3 -213 5 -39 7 -12 8 98 1 83 0 152 -2
152 -1 0 -5 -17 -9 -37z"/>
<path d="M21165 6200 c3 -5 8 -10 11 -10 2 0 4 5 4 10 0 6 -5 10 -11 10 -5 0
-7 -4 -4 -10z"/>
<path d="M15665 6180 c3 -5 8 -10 11 -10 2 0 4 5 4 10 0 6 -5 10 -11 10 -5 0
-7 -4 -4 -10z"/>
<path d="M15425 6170 c-3 -5 -1 -10 4 -10 6 0 11 5 11 10 0 6 -2 10 -4 10 -3
0 -8 -4 -11 -10z"/>
<path d="M21245 6140 c10 -11 20 -20 23 -20 3 0 -3 9 -13 20 -10 11 -20 20
-23 20 -3 0 3 -9 13 -20z"/>
<path d="M15710 6040 c0 -5 5 -10 10 -10 6 0 10 5 10 10 0 6 -4 10 -10 10 -5
0 -10 -4 -10 -10z"/>
<path d="M16385 6020 c10 -11 19 -20 21 -20 1 0 0 9 -3 20 -3 11 -12 20 -21
20 -13 0 -12 -3 3 -20z"/>
<path d="M21395 6010 c10 -11 20 -20 23 -20 3 0 -3 9 -13 20 -10 11 -20 20
-23 20 -3 0 3 -9 13 -20z"/>
<path d="M15840 5990 c0 -5 5 -10 10 -10 6 0 10 5 10 10 0 6 -4 10 -10 10 -5
0 -10 -4 -10 -10z"/>
<path d="M16020 5985 c0 -8 5 -15 10 -15 6 0 10 7 10 15 0 8 -4 15 -10 15 -5
0 -10 -7 -10 -15z"/>
<path d="M16190 5960 c0 -31 -4 -40 -17 -41 -10 -1 18 -5 61 -10 44 -5 82 -7
84 -5 2 3 2 15 0 27 -3 21 -4 22 -20 6 -9 -10 -32 -17 -52 -17 -35 0 -36 1
-36 40 0 22 -4 40 -10 40 -5 0 -10 -18 -10 -40z"/>
<path d="M16480 5990 c0 -5 4 -10 9 -10 6 0 13 5 16 10 3 6 -1 10 -9 10 -9 0
-16 -4 -16 -10z"/>
<path d="M21447 5959 c12 -12 25 -20 28 -17 3 3 -7 13 -22 23 l-28 17 22 -23z"/>
<path d="M15870 5960 c0 -5 5 -10 10 -10 6 0 10 5 10 10 0 6 -4 10 -10 10 -5
0 -10 -4 -10 -10z"/>
<path d="M16001 5928 c-1 -31 11 -34 46 -15 16 9 20 16 13 27 -8 13 -10 12
-10 -2 0 -11 -8 -18 -19 -18 -11 0 -22 8 -24 18 -3 10 -5 6 -6 -10z"/>
<path d="M16380 5935 c-10 -12 -10 -15 4 -15 9 0 16 7 16 15 0 8 -2 15 -4 15
-2 0 -9 -7 -16 -15z"/>
<path d="M15900 5930 c0 -5 -9 -10 -21 -10 -15 0 -19 -4 -15 -16 3 -9 6 -20 6
-25 0 -20 18 -8 24 16 4 14 11 25 16 25 6 0 10 5 10 10 0 6 -4 10 -10 10 -5 0
-10 -4 -10 -10z"/>
<path d="M16728 5895 c3 -26 -1 -36 -17 -44 -24 -13 -28 -41 -6 -41 8 0 15 8
15 18 0 14 2 15 10 2 7 -11 10 0 10 37 0 28 -4 54 -8 57 -4 2 -6 -10 -4 -29z"/>
<path d="M21502 5914 c10 -10 20 -15 24 -12 3 4 -5 12 -18 18 -22 12 -22 12
-6 -6z"/>
<path d="M15810 5911 c0 -5 7 -11 15 -15 9 -3 15 0 15 9 0 8 -7 15 -15 15 -8
0 -15 -4 -15 -9z"/>
<path d="M16598 5887 c50 -12 53 -21 10 -35 l-33 -10 28 -1 c16 -1 37 4 49 10
l20 11 -21 19 c-13 12 -33 19 -58 18 l-38 -1 43 -11z"/>
<path d="M16705 5890 c3 -5 8 -10 11 -10 2 0 4 5 4 10 0 6 -5 10 -11 10 -5 0
-7 -4 -4 -10z"/>
<path d="M21546 5878 c5 -13 124 -114 124 -105 0 2 -29 30 -65 62 -36 31 -62
51 -59 43z"/>
<path d="M17140 5850 c0 -11 -4 -20 -10 -20 -5 0 -10 -9 -10 -20 0 -11 7 -20
15 -20 11 0 15 11 15 40 0 22 -2 40 -5 40 -3 0 -5 -9 -5 -20z"/>
<path d="M15738 5833 c7 -3 16 -2 19 1 4 3 -2 6 -13 5 -11 0 -14 -3 -6 -6z"/>
<path d="M15885 5830 c3 -5 13 -10 21 -10 8 0 14 5 14 10 0 6 -9 10 -21 10
-11 0 -17 -4 -14 -10z"/>
<path d="M16508 5813 c-35 -5 -36 -21 -2 -33 41 -16 54 -12 54 15 0 14 -5 24
-12 24 -7 -1 -25 -4 -40 -6z"/>
<path d="M15840 5800 c0 -5 7 -10 15 -10 8 0 15 5 15 10 0 6 -7 10 -15 10 -8
0 -15 -4 -15 -10z"/>
<path d="M14957 5771 c-4 -17 -3 -21 5 -13 5 5 8 16 6 23 -3 8 -7 3 -11 -10z"/>
<path d="M14990 5770 c0 -5 5 -10 11 -10 5 0 7 5 4 10 -3 6 -8 10 -11 10 -2 0
-4 -4 -4 -10z"/>
<path d="M15070 5750 c0 -5 5 -10 10 -10 6 0 10 5 10 10 0 6 -4 10 -10 10 -5
0 -10 -4 -10 -10z"/>
<path d="M21700 5736 c0 -2 7 -9 15 -16 9 -7 15 -8 15 -2 0 5 -7 12 -15 16 -8
3 -15 4 -15 2z"/>
<path d="M15360 5703 c0 -13 5 -23 10 -23 13 0 13 11 0 30 -8 12 -10 11 -10
-7z"/>
<path d="M15108 5687 c-11 -27 -10 -87 2 -87 6 0 10 -4 10 -10 0 -5 -18 -10
-40 -10 -38 0 -40 -2 -40 -30 l0 -30 60 0 c53 0 60 2 60 19 0 11 -4 23 -10 26
-5 3 -10 19 -10 34 0 15 -4 31 -9 37 -5 5 -11 23 -13 39 -2 24 -4 26 -10 12z"/>
<path d="M21770 5675 c13 -14 26 -25 28 -25 3 0 -5 11 -18 25 -13 14 -26 25
-28 25 -3 0 5 -11 18 -25z"/>
<path d="M14851 5664 c0 -11 3 -14 6 -6 3 7 2 16 -1 19 -3 4 -6 -2 -5 -13z"/>
<path d="M14990 5670 c0 -5 5 -10 10 -10 6 0 10 5 10 10 0 6 -4 10 -10 10 -5
0 -10 -4 -10 -10z"/>
<path d="M15220 5665 c0 -8 7 -15 15 -15 8 0 15 7 15 15 0 8 -7 15 -15 15 -8
0 -15 -7 -15 -15z"/>
<path d="M15194 5608 c3 -20 2 -46 -3 -59 -9 -26 10 -56 29 -44 13 8 13 95 0
95 -5 0 -10 6 -10 14 0 8 -5 18 -11 22 -9 5 -10 -3 -5 -28z"/>
<path d="M14870 5616 c0 -8 4 -17 9 -20 5 -4 7 3 4 14 -6 23 -13 26 -13 6z"/>
<path d="M14910 5615 c0 -8 5 -15 10 -15 6 0 10 7 10 15 0 8 -4 15 -10 15 -5
0 -10 -7 -10 -15z"/>
<path d="M15026 5621 c-4 -7 -5 -15 -2 -18 9 -9 19 4 14 18 -4 11 -6 11 -12 0z"/>
<path d="M15431 5620 c-1 -23 15 -45 23 -31 4 6 3 11 -3 11 -5 0 -12 8 -14 18
-3 12 -5 13 -6 2z"/>
<path d="M15500 5615 c-10 -12 -10 -15 4 -15 9 0 16 7 16 15 0 8 -2 15 -4 15
-2 0 -9 -7 -16 -15z"/>
<path d="M21871 5581 c30 -27 56 -47 58 -45 5 5 -92 93 -103 94 -6 0 15 -22
45 -49z"/>
<path d="M15171 5584 c0 -11 3 -14 6 -6 3 7 2 16 -1 19 -3 4 -6 -2 -5 -13z"/>
<path d="M15280 5589 c0 -5 5 -7 10 -4 6 3 10 8 10 11 0 2 -4 4 -10 4 -5 0
-10 -5 -10 -11z"/>
<path d="M14900 5560 c0 -11 7 -20 15 -20 8 0 15 9 15 20 0 11 -7 20 -15 20
-8 0 -15 -9 -15 -20z"/>
<path d="M12400 5530 c0 -5 5 -10 10 -10 6 0 10 5 10 10 0 6 -4 10 -10 10 -5
0 -10 -4 -10 -10z"/>
<path d="M14850 5520 c-22 -4 -29 -9 -20 -12 42 -16 48 -16 53 3 3 10 4 18 4
18 -1 -1 -18 -5 -37 -9z"/>
<path d="M15448 5513 c7 -3 16 -2 19 1 4 3 -2 6 -13 5 -11 0 -14 -3 -6 -6z"/>
<path d="M17490 5471 c0 -5 7 -15 17 -22 15 -13 15 -12 4 9 -12 23 -21 28 -21
13z"/>
<path d="M22021 5453 c0 -5 17 -21 37 -37 l37 -30 -34 37 c-36 38 -42 42 -40
30z"/>
<path d="M14828 5443 c7 -3 16 -2 19 1 4 3 -2 6 -13 5 -11 0 -14 -3 -6 -6z"/>
<path d="M14880 5430 c0 -5 18 -10 40 -10 22 0 40 5 40 10 0 6 -18 10 -40 10
-22 0 -40 -4 -40 -10z"/>
<path d="M12768 5353 c7 -3 16 -2 19 1 4 3 -2 6 -13 5 -11 0 -14 -3 -6 -6z"/>
<path d="M14455 5350 c3 -5 10 -10 16 -10 5 0 9 5 9 10 0 6 -7 10 -16 10 -8 0
-12 -4 -9 -10z"/>
<path d="M14690 5345 c0 -8 7 -15 15 -15 8 0 15 -4 15 -10 0 -20 72 -11 91 12
23 26 23 28 4 28 -8 0 -15 -7 -15 -15 0 -11 -11 -15 -40 -15 -29 0 -40 4 -40
15 0 8 -7 15 -15 15 -8 0 -15 -7 -15 -15z"/>
<path d="M13060 5313 c0 -25 1 -26 16 -11 9 9 13 21 10 27 -13 20 -26 11 -26
-16z"/>
<path d="M12510 5305 c0 -9 5 -15 11 -13 6 2 11 8 11 13 0 5 -5 11 -11 13 -6
2 -11 -4 -11 -13z"/>
<path d="M14640 5289 c0 -24 23 -21 28 4 2 10 -3 17 -12 17 -10 0 -16 -9 -16
-21z"/>
<path d="M14455 5290 c-3 -5 1 -10 9 -10 9 0 16 5 16 10 0 6 -4 10 -9 10 -6 0
-13 -4 -16 -10z"/>
<path d="M13738 5283 c7 -3 16 -2 19 1 4 3 -2 6 -13 5 -11 0 -14 -3 -6 -6z"/>
<path d="M13820 5280 c-22 -6 -23 -8 -6 -15 10 -5 21 -4 25 2 3 6 13 13 21 16
24 9 -9 7 -40 -3z"/>
<path d="M13906 5281 c-32 -13 -3 -22 89 -27 95 -5 116 10 28 19 -32 4 -67 9
-78 11 -11 3 -29 2 -39 -3z"/>
<path d="M13595 5255 c8 -37 10 -39 30 -32 20 8 19 26 -2 34 -10 4 -22 11 -26
17 -5 6 -6 -2 -2 -19z"/>
<path d="M13645 5270 c3 -5 13 -10 21 -10 8 0 14 5 14 10 0 6 -9 10 -21 10
-11 0 -17 -4 -14 -10z"/>
<path d="M14100 5270 c0 -5 4 -10 9 -10 6 0 13 5 16 10 3 6 -1 10 -9 10 -9 0
-16 -4 -16 -10z"/>
<path d="M14480 5240 c0 -6 -33 -10 -80 -10 -64 0 -80 -3 -80 -15 0 -10 -10
-15 -27 -16 l-28 0 24 -10 c17 -7 27 -6 31 2 5 7 36 10 94 8 47 -2 82 -2 76
-1 -25 9 -6 22 30 22 29 0 40 4 40 15 0 11 -11 15 -40 15 -22 0 -40 -4 -40
-10z"/>
<path d="M13566 5233 c-12 -12 -6 -33 9 -33 8 0 15 6 15 14 0 17 -14 28 -24
19z"/>
<path d="M14147 5223 c-14 -13 -6 -23 19 -23 22 0 25 2 14 15 -14 16 -23 19
-33 8z"/>
<path d="M13645 5210 c-3 -5 3 -10 14 -10 12 0 21 5 21 10 0 6 -6 10 -14 10
-8 0 -18 -4 -21 -10z"/>
<path d="M13760 5200 c0 -17 3 -19 19 -8 21 13 19 28 -5 28 -8 0 -14 -9 -14
-20z"/>
<path d="M12968 5193 c7 -3 16 -2 19 1 4 3 -2 6 -13 5 -11 0 -14 -3 -6 -6z"/>
<path d="M13358 5188 c16 -8 28 -8 45 0 19 9 17 11 -23 11 -40 0 -42 -2 -22
-11z"/>
<path d="M13600 5184 c0 -8 5 -12 10 -9 6 3 10 10 10 16 0 5 -4 9 -10 9 -5 0
-10 -7 -10 -16z"/>
<path d="M14050 5162 c-34 -35 -34 -36 -13 -42 17 -4 20 -9 13 -20 -8 -12 -13
-13 -30 -2 -18 11 -20 10 -20 -19 0 -30 2 -31 31 -25 17 3 35 6 40 6 5 0 9 21
9 46 0 37 4 47 19 51 11 3 21 13 24 24 9 32 -34 21 -73 -19z"/>
<path d="M14189 5155 c-6 -25 -15 -45 -20 -45 -5 0 -9 -7 -9 -15 0 -18 9 -19
47 -4 26 10 26 12 11 23 -14 11 -16 19 -8 47 12 41 12 39 0 39 -5 0 -15 -20
-21 -45z"/>
<path d="M14530 5190 c19 -13 30 -13 30 0 0 6 -10 10 -22 10 -19 0 -20 -2 -8
-10z"/>
<path d="M12935 5170 c3 -5 10 -10 16 -10 5 0 9 5 9 10 0 6 -7 10 -16 10 -8 0
-12 -4 -9 -10z"/>
<path d="M12902 5158 c-14 -14 -16 -28 -3 -28 9 0 24 30 18 36 -2 2 -9 -2 -15
-8z"/>
<path d="M13280 5160 c0 -5 5 -10 10 -10 6 0 10 5 10 10 0 6 -4 10 -10 10 -5
0 -10 -4 -10 -10z"/>
<path d="M14480 5150 c0 -15 7 -20 24 -20 35 0 42 18 11 30 -35 13 -35 13 -35
-10z"/>
<path d="M13643 5153 c-15 -6 -17 -33 -3 -33 6 0 10 -7 10 -15 0 -8 7 -15 15
-15 10 0 15 11 15 35 0 34 -8 40 -37 28z"/>
<path d="M13760 5135 c0 -8 7 -15 16 -15 14 0 14 3 4 15 -7 8 -14 15 -16 15
-2 0 -4 -7 -4 -15z"/>
<path d="M13893 5131 c-24 -20 -30 -41 -13 -41 6 0 10 7 10 15 0 8 7 15 15 15
8 0 15 7 15 15 0 19 0 19 -27 -4z"/>
<path d="M13825 5130 c-3 -5 -1 -10 4 -10 6 0 11 5 11 10 0 6 -2 10 -4 10 -3
0 -8 -4 -11 -10z"/>
<path d="M13000 5120 c-8 -5 -11 -12 -7 -17 5 -4 11 -2 15 4 4 7 32 13 62 16
l55 3 -55 2 c-30 1 -62 -2 -70 -8z"/>
<path d="M13353 5123 c13 -8 7 -31 -10 -37 -33 -13 -63 -31 -63 -38 0 -13 45
-9 59 5 11 10 14 10 18 0 3 -7 11 -13 19 -13 10 0 14 12 14 40 0 22 -4 40 -9
40 -5 0 -15 2 -23 3 -7 2 -10 2 -5 0z"/>
<path d="M13418 5123 c7 -3 16 -2 19 1 4 3 -2 6 -13 5 -11 0 -14 -3 -6 -6z"/>
<path d="M13570 5105 c0 -8 7 -15 15 -15 8 0 15 7 15 15 0 8 -7 15 -15 15 -8
0 -15 -7 -15 -15z"/>
<path d="M13840 5061 c0 -18 -6 -21 -40 -21 -29 0 -40 -4 -40 -15 0 -11 11
-15 40 -15 29 0 40 4 40 15 0 8 5 15 10 15 6 0 10 6 10 14 0 8 -4 18 -10 21
-5 3 -10 -3 -10 -14z"/>
<path d="M13905 5067 c-4 -10 -5 -21 -1 -24 10 -10 18 4 13 24 -4 17 -4 17
-12 0z"/>
<path d="M13520 5055 c0 -8 7 -15 15 -15 8 0 15 7 15 15 0 8 -7 15 -15 15 -8
0 -15 -7 -15 -15z"/>
<path d="M13600 5049 c0 -24 23 -21 28 4 2 10 -3 17 -12 17 -10 0 -16 -9 -16
-21z"/>
<path d="M13134 5021 c-15 -26 -25 -31 -56 -31 -34 0 -38 -3 -38 -25 0 -19 5
-25 23 -25 13 0 32 8 43 18 48 43 53 45 69 32 23 -19 31 -3 13 28 -23 37 -34
38 -54 3z"/>
<path d="M13200 5025 c0 -8 7 -15 15 -15 8 0 15 7 15 15 0 8 -7 15 -15 15 -8
0 -15 -7 -15 -15z"/>
<path d="M13425 5030 c3 -5 8 -10 11 -10 2 0 4 5 4 10 0 6 -5 10 -11 10 -5 0
-7 -4 -4 -10z"/>
<path d="M13970 5000 l0 -40 60 0 c41 0 60 4 60 13 0 6 7 24 14 40 14 25 13
27 -5 27 -14 0 -19 -7 -19 -25 0 -22 -4 -25 -40 -25 -36 0 -40 3 -40 25 0 16
-6 25 -15 25 -11 0 -15 -11 -15 -40z"/>
<path d="M12145 5010 c-3 -5 -1 -18 4 -27 9 -16 10 -14 11 10 0 28 -5 34 -15
17z"/>
<path d="M12270 5016 c0 -2 11 -6 25 -8 14 -3 25 -1 25 3 0 5 -11 9 -25 9 -14
0 -25 -2 -25 -4z"/>
<path d="M12861 4977 c-12 -15 -11 -17 3 -17 10 0 16 -9 16 -25 0 -22 -4 -25
-40 -25 -29 0 -40 -4 -40 -15 0 -11 11 -15 35 -15 28 0 44 8 73 38 l37 37 -32
3 c-19 2 -33 9 -35 19 -3 15 -4 15 -17 0z"/>
<path d="M13250 4975 c0 -8 7 -15 15 -15 8 0 15 7 15 15 0 8 -7 15 -15 15 -8
0 -15 -7 -15 -15z"/>
<path d="M13133 4965 c-20 -22 -16 -25 27 -25 43 0 47 4 26 26 -18 18 -37 17
-53 -1z"/>
<path d="M13360 4970 c0 -5 5 -10 11 -10 5 0 7 5 4 10 -3 6 -8 10 -11 10 -2 0
-4 -4 -4 -10z"/>
<path d="M12288 4963 c6 -2 18 -2 25 0 6 3 1 5 -13 5 -14 0 -19 -2 -12 -5z"/>
<path d="M12704 4963 c51 -3 73 -9 82 -21 12 -15 13 -15 14 6 0 21 -3 22 -82
20 l-83 -2 69 -3z"/>
<path d="M12960 4945 c0 -8 4 -15 9 -15 5 0 11 7 15 15 3 9 0 15 -9 15 -8 0
-15 -7 -15 -15z"/>
<path d="M13302 4943 c2 -10 10 -18 18 -18 8 0 16 8 18 18 2 12 -3 17 -18 17
-15 0 -20 -5 -18 -17z"/>
<path d="M13886 4951 c15 -15 47 -17 51 -3 3 8 -6 12 -28 12 -20 0 -29 -4 -23
-9z"/>
<path d="M11270 4930 c-13 -9 -13 -11 0 -19 17 -12 30 -5 30 15 0 16 -9 18
-30 4z"/>
<path d="M14040 4910 c-33 -35 -40 -37 -40 -10 0 32 -40 23 -53 -12 -10 -27
10 -31 74 -17 55 12 59 15 59 41 0 35 -5 35 -40 -2z"/>
<path d="M14123 4913 l-28 -28 29 -3 c16 -2 32 0 35 5 3 5 14 13 24 16 24 9
17 31 -11 35 -13 2 -32 -7 -49 -25z"/>
<path d="M12620 4920 c0 -5 5 -10 10 -10 6 0 10 5 10 10 0 6 -4 10 -10 10 -5
0 -10 -4 -10 -10z"/>
<path d="M12720 4900 c0 -15 7 -20 25 -20 28 0 34 24 9 34 -26 10 -34 7 -34
-14z"/>
<path d="M12430 4891 c0 -6 -17 -12 -37 -14 -33 -3 -35 -5 -15 -12 12 -4 22
-15 22 -24 0 -16 -41 -41 -67 -41 -7 0 -13 -7 -13 -15 0 -11 11 -15 40 -15 32
0 40 4 40 18 0 14 7 17 40 14 32 -3 40 -1 40 12 0 10 -9 16 -25 16 -20 0 -25
5 -25 25 0 14 5 25 10 25 6 0 10 5 10 10 0 6 -4 10 -10 10 -5 0 -10 -4 -10 -9z"/>
<path d="M14205 4890 c-3 -5 3 -10 14 -10 12 0 21 5 21 10 0 6 -6 10 -14 10
-8 0 -18 -4 -21 -10z"/>
<path d="M10960 4880 c0 -5 5 -10 11 -10 5 0 7 5 4 10 -3 6 -8 10 -11 10 -2 0
-4 -4 -4 -10z"/>
<path d="M12018 4873 c12 -2 32 -2 45 0 12 2 2 4 -23 4 -25 0 -35 -2 -22 -4z"/>
<path d="M12910 4860 c6 -11 19 -24 30 -30 18 -10 20 -7 20 20 0 27 -3 30 -30
30 -27 0 -30 -2 -20 -20z"/>
<path d="M11600 4840 c0 -19 3 -21 12 -12 9 9 9 15 0 24 -9 9 -12 7 -12 -12z"/>
<path d="M12320 4846 c0 -13 -14 -16 -80 -16 -64 0 -80 -3 -80 -15 0 -12 16
-15 80 -15 44 0 80 4 80 9 0 5 9 11 21 14 24 6 21 30 -4 35 -10 2 -17 -3 -17
-12z"/>
<path d="M12018 4803 c12 -2 32 -2 45 0 12 2 2 4 -23 4 -25 0 -35 -2 -22 -4z"/>
<path d="M12240 4735 c0 -11 11 -15 40 -15 29 0 40 4 40 15 0 11 -11 15 -40
15 -29 0 -40 -4 -40 -15z"/>
<path d="M11491 4704 c0 -11 3 -14 6 -6 3 7 2 16 -1 19 -3 4 -6 -2 -5 -13z"/>
<path d="M12080 4695 c0 -22 -4 -25 -40 -25 -29 0 -40 4 -40 15 0 24 -18 17
-37 -15 -9 -16 -23 -30 -30 -30 -7 0 -13 -5 -13 -11 0 -8 16 -9 53 -5 28 4 71
10 95 13 41 5 42 6 42 44 0 28 -4 39 -15 39 -9 0 -15 -9 -15 -25z m-80 -45 c0
-5 -5 -10 -11 -10 -5 0 -7 5 -4 10 3 6 8 10 11 10 2 0 4 -4 4 -10z"/>
<path d="M12350 4700 c6 -11 19 -24 30 -30 18 -10 20 -7 20 20 0 27 -3 30 -30
30 -27 0 -30 -2 -20 -20z"/>
<path d="M11920 4675 c0 -8 5 -15 10 -15 6 0 10 7 10 15 0 8 -4 15 -10 15 -5
0 -10 -7 -10 -15z"/>
<path d="M11450 4655 c0 -8 7 -15 15 -15 8 0 15 7 15 15 0 8 -7 15 -15 15 -8
0 -15 -7 -15 -15z"/>
<path d="M11320 4650 c-24 -8 -23 -8 8 -9 17 -1 32 4 32 9 0 11 -5 11 -40 0z"/>
<path d="M11680 4650 c0 -5 -18 -10 -40 -10 -31 0 -40 -4 -40 -17 0 -14 12
-15 119 -10 85 5 121 3 123 -4 2 -7 11 -4 23 7 18 19 17 19 -43 22 -34 2 -62
7 -62 12 0 6 -18 10 -40 10 -22 0 -40 -4 -40 -10z"/>
<path d="M12045 4610 c-8 -14 3 -30 21 -30 8 0 14 9 14 20 0 21 -24 28 -35 10z"/>
<path d="M11890 4561 l-35 -6 30 -30 30 -30 3 32 c3 31 4 32 60 36 l57 3 -55
1 c-30 0 -71 -2 -90 -6z"/>
<path d="M10860 4551 c0 -6 5 -13 10 -16 6 -3 10 1 10 9 0 9 -4 16 -10 16 -5
0 -10 -4 -10 -9z"/>
<path d="M11338 4553 c7 -3 16 -2 19 1 4 3 -2 6 -13 5 -11 0 -14 -3 -6 -6z"/>
<path d="M11261 4531 c-34 -9 -39 -31 -7 -31 14 0 26 5 26 10 0 6 9 10 20 10
11 0 20 -7 20 -15 0 -8 -9 -15 -20 -15 -11 0 -20 -6 -20 -14 0 -14 79 -26 181
-26 56 0 59 -1 59 -25 0 -14 5 -25 10 -25 6 0 10 -11 10 -25 0 -14 -4 -25 -10
-25 -5 0 -10 -7 -10 -15 0 -8 7 -15 15 -15 8 0 15 5 15 10 0 6 11 10 25 10 18
0 25 5 25 20 0 27 12 25 39 -6 13 -15 28 -23 37 -20 9 3 31 6 50 6 27 0 34 4
34 20 0 23 17 26 39 6 11 -10 32 -12 69 -9 42 5 52 9 52 24 0 15 -8 19 -39 19
-22 0 -41 -5 -44 -12 -4 -10 -7 -10 -18 0 -11 10 -10 12 4 12 9 0 17 5 17 10
0 6 18 10 40 10 33 0 40 3 40 20 0 19 -7 20 -160 20 -100 0 -160 4 -160 10 0
6 18 10 40 10 29 0 40 4 40 15 0 12 -16 15 -80 15 -53 0 -80 4 -80 11 0 8 -29
10 -100 7 -56 -3 -103 -1 -106 4 -6 9 -18 9 -53 -1z m214 -41 c47 -7 45 -7
-32 -9 -50 0 -83 3 -83 9 0 11 43 12 115 0z"/>
<path d="M11180 4520 c0 -5 5 -10 10 -10 6 0 10 5 10 10 0 6 -4 10 -10 10 -5
0 -10 -4 -10 -10z"/>
<path d="M11760 4495 c0 -11 11 -15 40 -15 29 0 40 4 40 15 0 11 -11 15 -40
15 -29 0 -40 -4 -40 -15z"/>
<path d="M11120 4490 c0 -5 7 -10 16 -10 8 0 12 5 9 10 -3 6 -10 10 -16 10 -5
0 -9 -4 -9 -10z"/>
<path d="M11298 4423 c12 -2 32 -2 45 0 12 2 2 4 -23 4 -25 0 -35 -2 -22 -4z"/>
<path d="M10868 4403 c6 -2 18 -2 25 0 6 3 1 5 -13 5 -14 0 -19 -2 -12 -5z"/>
<path d="M10800 4390 c0 -13 11 -13 30 0 12 8 11 10 -7 10 -13 0 -23 -4 -23
-10z"/>
<path d="M10975 4390 c3 -5 10 -10 16 -10 5 0 9 5 9 10 0 6 -7 10 -16 10 -8 0
-12 -4 -9 -10z"/>
<path d="M11360 4385 c0 -12 16 -15 80 -15 64 0 80 3 80 15 0 12 -16 15 -80
15 -64 0 -80 -3 -80 -15z"/>
<path d="M11200 4366 c0 -12 -10 -16 -40 -16 -29 0 -40 -4 -40 -15 0 -11 11
-15 40 -15 29 0 40 4 40 15 0 19 16 20 23 1 4 -9 -1 -17 -11 -19 -9 -3 -1 -5
18 -6 52 -1 81 9 78 27 -2 11 -15 17 -40 17 -20 1 -44 8 -53 15 -12 10 -15 10
-15 -4z"/>
<path d="M11329 4334 c-11 -31 -3 -64 16 -64 7 0 15 -4 17 -9 2 -5 38 -12 81
-16 88 -8 95 -1 48 46 -36 36 -51 37 -51 4 0 -22 -3 -25 -27 -19 -56 12 -59
15 -28 29 l30 13 -27 1 c-21 1 -28 6 -28 21 0 29 -19 25 -31 -6z"/>
<path d="M10850 4330 c-12 -8 -11 -10 8 -10 12 0 22 5 22 10 0 13 -11 13 -30
0z"/>
<path d="M11000 4330 c0 -5 7 -10 16 -10 8 0 12 5 9 10 -3 6 -10 10 -16 10 -5
0 -9 -4 -9 -10z"/>
<path d="M11608 4323 c7 -3 16 -2 19 1 4 3 -2 6 -13 5 -11 0 -14 -3 -6 -6z"/>
<path d="M11120 4290 c0 -18 7 -20 80 -20 47 0 80 4 80 10 0 6 -18 10 -40 10
-22 0 -40 5 -40 10 0 6 -18 10 -40 10 -33 0 -40 -3 -40 -20z"/>
<path d="M10185 4245 c4 -33 11 -67 16 -76 5 -9 12 -43 15 -74 4 -32 13 -59
20 -62 7 -2 11 -10 8 -17 -3 -7 2 -19 10 -26 9 -7 13 -16 10 -22 -3 -5 -2 -17
2 -26 4 -9 8 -19 9 -22 10 -28 21 -48 37 -63 12 -12 17 -26 13 -38 -5 -15 -3
-17 11 -12 14 5 16 3 10 -13 -12 -31 -12 -36 3 -42 8 -3 11 0 7 7 -4 6 -2 11
3 11 6 0 11 -7 11 -16 0 -8 5 -25 12 -37 7 -12 13 -28 14 -36 2 -7 12 -20 23
-27 11 -8 29 -34 40 -57 11 -23 26 -49 33 -58 16 -19 52 -34 42 -17 -5 7 -3 8
6 3 7 -4 16 -2 22 6 8 11 9 10 4 -3 -3 -12 8 -30 34 -56 22 -21 40 -44 40 -50
0 -18 28 -14 39 6 7 11 10 12 11 4 0 -18 36 -63 43 -55 4 3 13 0 22 -7 8 -7
22 -10 30 -6 9 3 15 0 15 -9 0 -8 7 -15 14 -15 8 0 27 -11 42 -25 15 -14 32
-25 38 -25 6 0 16 -10 21 -22 6 -14 18 -23 32 -22 13 0 19 -4 16 -13 -3 -8 2
-13 14 -13 11 0 29 -9 41 -20 12 -11 25 -20 31 -20 5 0 11 -6 13 -12 3 -7 18
-11 37 -10 18 1 30 -1 27 -6 -3 -5 13 -15 34 -22 22 -7 40 -16 40 -20 0 -4 10
-6 23 -6 18 1 23 -5 25 -31 4 -41 32 -46 32 -6 0 25 1 25 18 10 10 -10 24 -17
30 -17 7 0 12 -5 12 -11 0 -6 -9 -8 -22 -4 -21 5 -21 5 -5 -5 10 -7 29 -9 43
-6 18 5 24 2 24 -9 0 -11 7 -15 20 -13 10 2 26 -6 35 -17 9 -11 13 -14 9 -6
-9 18 16 12 111 -24 39 -15 82 -29 98 -32 15 -3 27 -9 27 -14 0 -5 6 -9 13 -9
18 0 67 -24 67 -32 0 -5 5 -8 11 -8 5 0 7 5 4 10 -9 14 40 3 85 -20 19 -10 73
-28 120 -41 47 -12 90 -25 95 -29 6 -4 53 -17 105 -30 52 -13 101 -27 107 -33
7 -5 22 -7 33 -4 11 3 54 -3 95 -13 81 -20 280 -25 269 -8 -4 5 -15 8 -25 5
-11 -3 -19 -2 -19 2 0 15 -73 41 -115 41 -25 0 -45 5 -45 10 0 6 -18 10 -40
10 -23 0 -42 6 -47 14 -5 8 -31 17 -63 21 -30 3 -59 10 -65 14 -5 5 -35 11
-67 15 -98 11 -309 63 -374 92 -17 7 -40 15 -50 17 -11 1 -24 6 -30 10 -6 3
-80 35 -165 71 -153 63 -420 195 -450 222 -8 8 -19 14 -23 14 -4 0 -22 10 -39
23 -18 12 -47 30 -66 40 -19 10 -40 24 -47 30 -7 7 -51 34 -98 61 -62 35 -105
70 -156 125 -85 92 -110 120 -110 126 0 2 -18 24 -39 47 -103 114 -167 192
-195 243 -10 17 -28 48 -41 70 -22 37 -39 70 -98 195 -12 25 -22 50 -22 57 0
6 -4 15 -9 20 -5 4 -5 -18 -1 -52z"/>
<path d="M10980 4290 c0 -5 11 -10 24 -10 14 0 28 5 31 10 4 6 -7 10 -24 10
-17 0 -31 -4 -31 -10z"/>
<path d="M10818 4283 c12 -2 32 -2 45 0 12 2 2 4 -23 4 -25 0 -35 -2 -22 -4z"/>
<path d="M11240 4251 c-42 -6 -39 -7 43 -16 48 -6 93 -7 100 -3 7 4 -7 8 -30
8 -23 0 -45 5 -48 10 -3 6 -9 9 -13 8 -4 0 -27 -4 -52 -7z"/>
<path d="M11575 4150 c28 -12 45 -12 45 0 0 6 -15 10 -32 9 -28 0 -30 -2 -13
-9z"/>
<path d="M23360 4086 c0 -2 8 -10 18 -17 15 -13 16 -12 3 4 -13 16 -21 21 -21
13z"/>
<path d="M11827 4055 c16 -22 25 -24 96 -25 45 0 77 4 77 10 0 6 -33 10 -80
10 -64 0 -80 3 -80 15 0 8 -7 15 -15 15 -14 0 -13 -3 2 -25z"/>
<path d="M11650 4050 c0 -5 7 -10 15 -10 8 0 15 5 15 10 0 6 -7 10 -15 10 -8
0 -15 -4 -15 -10z"/>
<path d="M11600 4029 c0 -5 5 -7 10 -4 6 3 10 8 10 11 0 2 -4 4 -10 4 -5 0
-10 -5 -10 -11z"/>
<path d="M11710 3961 c0 -5 -3 -16 -6 -25 -4 -12 0 -16 16 -16 16 0 20 4 16
16 -3 9 -6 20 -6 25 0 5 -4 9 -10 9 -5 0 -10 -4 -10 -9z"/>
<path d="M17770 3931 c0 -6 4 -13 10 -16 6 -3 7 1 4 9 -7 18 -14 21 -14 7z"/>
<path d="M17756 3785 c-9 -26 -7 -32 5 -12 6 10 9 21 6 23 -2 3 -7 -2 -11 -11z"/>
<path d="M17775 3750 c4 -6 11 -8 16 -5 14 9 11 15 -7 15 -8 0 -12 -5 -9 -10z"/>
<path d="M11920 3710 c0 -5 15 -10 33 -9 27 0 29 2 12 9 -28 12 -45 12 -45 0z"/>
<path d="M17591 3694 c0 -11 3 -14 6 -6 3 7 2 16 -1 19 -3 4 -6 -2 -5 -13z"/>
<path d="M17743 3684 c-15 -16 -16 -24 -4 -24 8 0 24 30 19 35 -2 2 -9 -3 -15
-11z"/>
<path d="M11817 3683 c18 -2 50 -2 70 0 21 2 7 4 -32 4 -38 0 -55 -2 -38 -4z"/>
<path d="M11948 3668 c9 -9 15 -9 24 0 9 9 7 12 -12 12 -19 0 -21 -3 -12 -12z"/>
<path d="M17351 3524 c0 -11 3 -14 6 -6 3 7 2 16 -1 19 -3 4 -6 -2 -5 -13z"/>
<path d="M12218 3393 c7 -3 16 -2 19 1 4 3 -2 6 -13 5 -11 0 -14 -3 -6 -6z"/>
<path d="M17280 3324 c0 -9 5 -14 12 -12 18 6 21 28 4 28 -9 0 -16 -7 -16 -16z"/>
<path d="M10985 3190 c3 -5 8 -10 11 -10 2 0 4 5 4 10 0 6 -5 10 -11 10 -5 0
-7 -4 -4 -10z"/>
<path d="M12720 3190 c0 -5 4 -10 9 -10 6 0 13 5 16 10 3 6 -1 10 -9 10 -9 0
-16 -4 -16 -10z"/>
<path d="M12766 3185 c-20 -15 -16 -45 8 -45 14 0 26 21 26 46 0 18 -10 17
-34 -1z"/>
<path d="M10370 3070 c0 -5 5 -10 10 -10 6 0 10 5 10 10 0 6 -4 10 -10 10 -5
0 -10 -4 -10 -10z"/>
<path d="M10431 2953 c7 -12 15 -20 18 -17 3 2 -3 12 -13 22 -17 16 -18 16 -5
-5z"/>
<path d="M12115 2910 c-3 -5 3 -10 15 -10 12 0 18 5 15 10 -3 6 -10 10 -15 10
-5 0 -12 -4 -15 -10z"/>
<path d="M12706 2676 c3 -9 11 -16 16 -16 13 0 5 23 -10 28 -7 2 -10 -2 -6
-12z"/>
<path d="M13568 2583 c7 -3 16 -2 19 1 4 3 -2 6 -13 5 -11 0 -14 -3 -6 -6z"/>
<path d="M13803 2293 c9 -2 23 -2 30 0 6 3 -1 5 -18 5 -16 0 -22 -2 -12 -5z"/>
<path d="M14028 2153 c6 -2 18 -2 25 0 6 3 1 5 -13 5 -14 0 -19 -2 -12 -5z"/>
</g>
</svg>
